G04 (created by PCBNEW (2013-07-07 BZR 4022)-stable) date 5/31/2014 7:32:52 PM*
%MOIN*%
G04 Gerber Fmt 3.4, Leading zero omitted, Abs format*
%FSLAX34Y34*%
G01*
G70*
G90*
G04 APERTURE LIST*
%ADD10C,0.00590551*%
%ADD11C,0.055*%
%ADD12R,0.06X0.06*%
%ADD13R,0.035X0.055*%
%ADD14R,0.055X0.035*%
%ADD15C,0.06*%
%ADD16C,0.056*%
%ADD17R,0.055X0.055*%
%ADD18R,0.0512X0.059*%
%ADD19R,0.059X0.0512*%
%ADD20R,0.1378X0.1378*%
%ADD21R,0.07X0.07*%
%ADD22C,0.07*%
%ADD23R,0.06X0.05*%
%ADD24C,0.05*%
%ADD25C,0.04*%
%ADD26C,0.035*%
%ADD27C,0.02*%
%ADD28C,0.01*%
G04 APERTURE END LIST*
G54D10*
G54D11*
X61650Y-49425D03*
X61650Y-51425D03*
X58650Y-49425D03*
X58650Y-51425D03*
X66140Y-49400D03*
X66140Y-51400D03*
X63140Y-49400D03*
X63140Y-51400D03*
G54D12*
X92480Y-53580D03*
X93960Y-53560D03*
G54D13*
X82725Y-61825D03*
X81975Y-61825D03*
G54D14*
X62575Y-57575D03*
X62575Y-58325D03*
X63575Y-57575D03*
X63575Y-58325D03*
X65700Y-58300D03*
X65700Y-57550D03*
X63575Y-55700D03*
X63575Y-56450D03*
X62600Y-55700D03*
X62600Y-56450D03*
G54D13*
X61225Y-61825D03*
X61975Y-61825D03*
X89675Y-53600D03*
X88925Y-53600D03*
X61200Y-62675D03*
X61950Y-62675D03*
X90725Y-53600D03*
X91475Y-53600D03*
G54D14*
X64675Y-51475D03*
X64675Y-50725D03*
X60200Y-51600D03*
X60200Y-50850D03*
G54D13*
X61275Y-61025D03*
X62025Y-61025D03*
G54D14*
X80875Y-61725D03*
X80875Y-62475D03*
G54D12*
X89225Y-49800D03*
G54D15*
X89225Y-50800D03*
X89225Y-51800D03*
G54D12*
X66150Y-62600D03*
G54D15*
X65150Y-62600D03*
G54D12*
X61100Y-65075D03*
G54D15*
X62100Y-65075D03*
X63100Y-65075D03*
X64100Y-65075D03*
X65100Y-65075D03*
X66100Y-65075D03*
X75000Y-65800D03*
G54D12*
X70000Y-65800D03*
G54D15*
X71000Y-65800D03*
X72000Y-65800D03*
X73000Y-65800D03*
X74000Y-65800D03*
X75000Y-65800D03*
X76000Y-65800D03*
X77000Y-65800D03*
X78000Y-65800D03*
X79000Y-65800D03*
X80000Y-65800D03*
X81000Y-65800D03*
X76050Y-49275D03*
G54D12*
X81050Y-49275D03*
G54D15*
X80050Y-49275D03*
X79050Y-49275D03*
X78050Y-49275D03*
X77050Y-49275D03*
X76050Y-49275D03*
X75050Y-49275D03*
X74050Y-49275D03*
X73050Y-49275D03*
X72050Y-49275D03*
X71050Y-49275D03*
X70050Y-49275D03*
G54D16*
X73500Y-62300D03*
X75500Y-62300D03*
G54D17*
X83000Y-53900D03*
G54D11*
X82000Y-53900D03*
X81000Y-53900D03*
X80000Y-53900D03*
X79000Y-53900D03*
X78000Y-53900D03*
X77000Y-53900D03*
X76000Y-53900D03*
X75000Y-53900D03*
X74000Y-53900D03*
X73000Y-53900D03*
X72000Y-53900D03*
X71000Y-53900D03*
X70000Y-53900D03*
X70000Y-59900D03*
X71000Y-59900D03*
X72000Y-59900D03*
X73000Y-59900D03*
X74000Y-59900D03*
X75000Y-59900D03*
X76000Y-59900D03*
X77000Y-59900D03*
X78000Y-59900D03*
X79000Y-59900D03*
X80000Y-59900D03*
X81000Y-59900D03*
X82000Y-59900D03*
X83000Y-59900D03*
G54D18*
X76025Y-58700D03*
X76775Y-58700D03*
X77275Y-62300D03*
X76525Y-62300D03*
X71650Y-62300D03*
X72400Y-62300D03*
X76225Y-55200D03*
X76975Y-55200D03*
G54D19*
X64700Y-49950D03*
X64700Y-49200D03*
X60200Y-49925D03*
X60200Y-49175D03*
G54D20*
X91084Y-50825D03*
X93446Y-50825D03*
X92265Y-48975D03*
G54D21*
X91560Y-55290D03*
G54D22*
X92560Y-55290D03*
X93560Y-55290D03*
G54D23*
X58962Y-60425D03*
G54D24*
X59750Y-60425D03*
X58962Y-61212D03*
X59750Y-61212D03*
X58962Y-62000D03*
X59750Y-62000D03*
X58962Y-62787D03*
X59750Y-62787D03*
X58962Y-63574D03*
X59750Y-63574D03*
G54D25*
X61600Y-57025D03*
X77925Y-56300D03*
X85400Y-56325D03*
X89800Y-63000D03*
X77275Y-61150D03*
X76600Y-56400D03*
X85425Y-55525D03*
X61100Y-65075D03*
X59250Y-57475D03*
G54D26*
X80175Y-63850D03*
X82450Y-49775D03*
X69050Y-65100D03*
X79750Y-50925D03*
X69350Y-64000D03*
X61200Y-58675D03*
X59725Y-59125D03*
X64325Y-57475D03*
X80400Y-53025D03*
X67350Y-53075D03*
X64200Y-60475D03*
X67400Y-55950D03*
X67325Y-57425D03*
X70450Y-50900D03*
X65075Y-59000D03*
X66350Y-56300D03*
X67750Y-56475D03*
X67600Y-57800D03*
X78325Y-63200D03*
X77350Y-63325D03*
G54D27*
X77325Y-57025D02*
X65325Y-57025D01*
X63575Y-56450D02*
X63575Y-56575D01*
X63575Y-56575D02*
X64025Y-57025D01*
G54D28*
X63575Y-58325D02*
X64225Y-58325D01*
X64225Y-58325D02*
X64675Y-58775D01*
X61950Y-62675D02*
X63050Y-62675D01*
X64675Y-61050D02*
X64675Y-59300D01*
X63050Y-62675D02*
X64675Y-61050D01*
X62025Y-61025D02*
X62950Y-61025D01*
X64675Y-57675D02*
X65325Y-57025D01*
X64675Y-59300D02*
X64675Y-58775D01*
X64675Y-58775D02*
X64675Y-57675D01*
X62950Y-61025D02*
X64675Y-59300D01*
G54D27*
X77925Y-56300D02*
X77925Y-56425D01*
X65325Y-57025D02*
X64025Y-57025D01*
X64025Y-57025D02*
X61600Y-57025D01*
X77925Y-56425D02*
X77325Y-57025D01*
X76025Y-58700D02*
X76025Y-58050D01*
X77925Y-57225D02*
X77925Y-56300D01*
X77375Y-57775D02*
X77925Y-57225D01*
X76300Y-57775D02*
X77375Y-57775D01*
X76025Y-58050D02*
X76300Y-57775D01*
X92560Y-55290D02*
X92560Y-55615D01*
X91850Y-56325D02*
X85400Y-56325D01*
X92560Y-55615D02*
X91850Y-56325D01*
X76975Y-55350D02*
X76975Y-55200D01*
X77925Y-56300D02*
X76975Y-55350D01*
X91475Y-53600D02*
X92460Y-53600D01*
X92460Y-53600D02*
X92480Y-53580D01*
X92480Y-53580D02*
X92480Y-55210D01*
X92480Y-55210D02*
X92560Y-55290D01*
X76000Y-59900D02*
X76000Y-58725D01*
X76000Y-58725D02*
X76025Y-58700D01*
X77000Y-53900D02*
X77000Y-55175D01*
X77000Y-55175D02*
X76975Y-55200D01*
X77275Y-61150D02*
X77275Y-62300D01*
X87150Y-55375D02*
X88925Y-53600D01*
X85575Y-55375D02*
X87150Y-55375D01*
X85425Y-55525D02*
X85575Y-55375D01*
X92265Y-48975D02*
X88400Y-48975D01*
X88400Y-48975D02*
X87925Y-49450D01*
X87925Y-49450D02*
X87925Y-52600D01*
X87925Y-52600D02*
X88925Y-53600D01*
X92265Y-48975D02*
X92265Y-49644D01*
X92265Y-49644D02*
X93446Y-50825D01*
X58962Y-61212D02*
X58212Y-61212D01*
X58275Y-57475D02*
X59250Y-57475D01*
X58050Y-57700D02*
X58275Y-57475D01*
X58050Y-61050D02*
X58050Y-57700D01*
X58212Y-61212D02*
X58050Y-61050D01*
X61100Y-65075D02*
X62100Y-65075D01*
X58962Y-61212D02*
X58962Y-63574D01*
X58962Y-63574D02*
X58962Y-64412D01*
X59625Y-65075D02*
X61100Y-65075D01*
X58962Y-64412D02*
X59625Y-65075D01*
X59250Y-57475D02*
X59275Y-57500D01*
X77000Y-59900D02*
X77000Y-58925D01*
X77000Y-58925D02*
X76775Y-58700D01*
X76000Y-53900D02*
X76000Y-54975D01*
X76000Y-54975D02*
X76225Y-55200D01*
G54D28*
X81000Y-59900D02*
X81000Y-60325D01*
X80875Y-60450D02*
X80875Y-61725D01*
X81000Y-60325D02*
X80875Y-60450D01*
X73000Y-65800D02*
X73000Y-64725D01*
X73875Y-63850D02*
X80175Y-63850D01*
X73000Y-64725D02*
X73875Y-63850D01*
X81425Y-64375D02*
X80000Y-65800D01*
X82800Y-64375D02*
X81425Y-64375D01*
X84850Y-62175D02*
X82800Y-64375D01*
X84850Y-50725D02*
X84850Y-62175D01*
X83925Y-49700D02*
X84850Y-50725D01*
X82525Y-49700D02*
X83925Y-49700D01*
X82450Y-49775D02*
X82525Y-49700D01*
X71200Y-65000D02*
X72000Y-65800D01*
X69150Y-65000D02*
X71200Y-65000D01*
X69050Y-65100D02*
X69150Y-65000D01*
X77050Y-49275D02*
X77050Y-50625D01*
X77350Y-50925D02*
X79750Y-50925D01*
X77050Y-50625D02*
X77350Y-50925D01*
X82725Y-61825D02*
X83950Y-61825D01*
X81025Y-50250D02*
X80050Y-49275D01*
X83600Y-50250D02*
X81025Y-50250D01*
X84350Y-51000D02*
X83600Y-50250D01*
X84350Y-61425D02*
X84350Y-51000D01*
X83950Y-61825D02*
X84350Y-61425D01*
G54D27*
X89675Y-53600D02*
X89675Y-54675D01*
X90290Y-55290D02*
X91560Y-55290D01*
X89675Y-54675D02*
X90290Y-55290D01*
X90725Y-53600D02*
X90725Y-54455D01*
X90725Y-54455D02*
X91560Y-55290D01*
G54D28*
X59750Y-62000D02*
X60525Y-62000D01*
X60525Y-62000D02*
X61200Y-62675D01*
X64100Y-65075D02*
X64100Y-64900D01*
X64100Y-64900D02*
X65000Y-64000D01*
X65000Y-64000D02*
X69350Y-64000D01*
X61425Y-58925D02*
X61975Y-58925D01*
X61200Y-58675D02*
X61425Y-58925D01*
X61975Y-58925D02*
X62575Y-58325D01*
X62600Y-56450D02*
X60625Y-56450D01*
X60050Y-58800D02*
X59725Y-59125D01*
X60050Y-57025D02*
X60050Y-58800D01*
X60625Y-56450D02*
X60050Y-57025D01*
X63575Y-57575D02*
X64225Y-57575D01*
X64225Y-57575D02*
X64325Y-57475D01*
X62575Y-57575D02*
X63575Y-57575D01*
X60200Y-49925D02*
X59150Y-49925D01*
X59150Y-49925D02*
X58650Y-49425D01*
X60200Y-49925D02*
X61150Y-49925D01*
X61150Y-49925D02*
X61650Y-49425D01*
X66140Y-51400D02*
X64750Y-51400D01*
X64750Y-51400D02*
X64675Y-51475D01*
X63140Y-51400D02*
X64600Y-51400D01*
X64600Y-51400D02*
X64675Y-51475D01*
X67400Y-53025D02*
X80400Y-53025D01*
X67350Y-53075D02*
X67400Y-53025D01*
X61975Y-61825D02*
X62850Y-61825D01*
X62850Y-61825D02*
X64200Y-60475D01*
X59750Y-61212D02*
X60612Y-61212D01*
X60612Y-61212D02*
X61225Y-61825D01*
X65700Y-57550D02*
X67200Y-57550D01*
X67400Y-55950D02*
X67175Y-55725D01*
X67175Y-55725D02*
X63325Y-55725D01*
X67200Y-57550D02*
X67325Y-57425D01*
X63140Y-49400D02*
X63125Y-49400D01*
X62600Y-49925D02*
X62600Y-55700D01*
X63125Y-49400D02*
X62600Y-49925D01*
X63575Y-55700D02*
X62600Y-55700D01*
X63140Y-49400D02*
X63140Y-49440D01*
X63650Y-49950D02*
X64700Y-49950D01*
X63140Y-49440D02*
X63650Y-49950D01*
X64700Y-49950D02*
X65590Y-49950D01*
X65590Y-49950D02*
X66140Y-49400D01*
X79750Y-64800D02*
X79775Y-64800D01*
X79775Y-64800D02*
X80875Y-63700D01*
X80875Y-63700D02*
X80875Y-62475D01*
X76000Y-65800D02*
X76000Y-65050D01*
X76250Y-64800D02*
X79750Y-64800D01*
X76000Y-65050D02*
X76250Y-64800D01*
X59750Y-60425D02*
X60675Y-60425D01*
X60675Y-60425D02*
X61275Y-61025D01*
X60200Y-51600D02*
X61475Y-51600D01*
X61475Y-51600D02*
X61650Y-51425D01*
X60200Y-51600D02*
X58825Y-51600D01*
X58825Y-51600D02*
X58650Y-51425D01*
X73050Y-50025D02*
X73050Y-49275D01*
X72200Y-50875D02*
X73050Y-50025D01*
X70475Y-50875D02*
X72200Y-50875D01*
X70450Y-50900D02*
X70475Y-50875D01*
X82000Y-59900D02*
X82000Y-61800D01*
X82000Y-61800D02*
X81975Y-61825D01*
X65150Y-59075D02*
X65150Y-62600D01*
X65150Y-59075D02*
X65075Y-59000D01*
G54D27*
X90500Y-52300D02*
X93625Y-52300D01*
X89700Y-50800D02*
X90000Y-51100D01*
X90000Y-51100D02*
X90000Y-51800D01*
X90000Y-51800D02*
X90500Y-52300D01*
X89225Y-50800D02*
X89700Y-50800D01*
X93960Y-52635D02*
X93960Y-53560D01*
X93625Y-52300D02*
X93960Y-52635D01*
X93960Y-53560D02*
X93960Y-54890D01*
X93960Y-54890D02*
X93560Y-55290D01*
X75500Y-62300D02*
X76525Y-62300D01*
X73500Y-62300D02*
X72400Y-62300D01*
G54D28*
X67575Y-56300D02*
X66350Y-56300D01*
X67750Y-56475D02*
X67575Y-56300D01*
X67600Y-59700D02*
X67600Y-57800D01*
X68500Y-60600D02*
X67600Y-59700D01*
X77700Y-60600D02*
X68500Y-60600D01*
X78125Y-61025D02*
X77700Y-60600D01*
X78125Y-63000D02*
X78125Y-61025D01*
X78325Y-63200D02*
X78125Y-63000D01*
X67325Y-63574D02*
X67274Y-63574D01*
X66900Y-59400D02*
X65700Y-58300D01*
X66900Y-63100D02*
X66900Y-59400D01*
X67274Y-63574D02*
X66900Y-63100D01*
X77100Y-63574D02*
X67325Y-63574D01*
X67325Y-63574D02*
X59750Y-63574D01*
X77350Y-63325D02*
X77100Y-63574D01*
G54D10*
G36*
X78073Y-63550D02*
X77781Y-63550D01*
X77781Y-62545D01*
X77781Y-62054D01*
X77780Y-61955D01*
X77742Y-61863D01*
X77672Y-61792D01*
X77580Y-61754D01*
X77387Y-61755D01*
X77325Y-61817D01*
X77325Y-62250D01*
X77718Y-62250D01*
X77781Y-62187D01*
X77781Y-62054D01*
X77781Y-62545D01*
X77781Y-62412D01*
X77718Y-62350D01*
X77325Y-62350D01*
X77325Y-62782D01*
X77387Y-62845D01*
X77580Y-62845D01*
X77672Y-62807D01*
X77742Y-62736D01*
X77780Y-62644D01*
X77781Y-62545D01*
X77781Y-63550D01*
X77716Y-63550D01*
X77774Y-63409D01*
X77775Y-63240D01*
X77710Y-63084D01*
X77591Y-62964D01*
X77434Y-62900D01*
X77265Y-62899D01*
X77225Y-62916D01*
X77225Y-62782D01*
X77225Y-62350D01*
X77217Y-62350D01*
X77217Y-62250D01*
X77225Y-62250D01*
X77225Y-61817D01*
X77162Y-61755D01*
X76969Y-61754D01*
X76899Y-61783D01*
X76830Y-61755D01*
X76731Y-61754D01*
X76219Y-61754D01*
X76127Y-61792D01*
X76057Y-61863D01*
X76021Y-61950D01*
X75899Y-61950D01*
X75800Y-61850D01*
X75605Y-61770D01*
X75395Y-61769D01*
X75200Y-61850D01*
X75050Y-61999D01*
X74970Y-62194D01*
X74969Y-62404D01*
X75050Y-62599D01*
X75199Y-62749D01*
X75394Y-62829D01*
X75604Y-62830D01*
X75799Y-62749D01*
X75899Y-62650D01*
X76021Y-62650D01*
X76056Y-62736D01*
X76127Y-62806D01*
X76219Y-62844D01*
X76318Y-62845D01*
X76830Y-62845D01*
X76900Y-62816D01*
X76969Y-62845D01*
X77162Y-62845D01*
X77225Y-62782D01*
X77225Y-62916D01*
X77109Y-62964D01*
X76989Y-63083D01*
X76925Y-63240D01*
X76925Y-63274D01*
X74030Y-63274D01*
X74030Y-62195D01*
X73949Y-62000D01*
X73800Y-61850D01*
X73605Y-61770D01*
X73395Y-61769D01*
X73200Y-61850D01*
X73100Y-61950D01*
X72903Y-61950D01*
X72868Y-61863D01*
X72797Y-61793D01*
X72705Y-61755D01*
X72606Y-61754D01*
X72094Y-61754D01*
X72025Y-61783D01*
X71955Y-61754D01*
X71762Y-61755D01*
X71700Y-61817D01*
X71700Y-62250D01*
X71707Y-62250D01*
X71707Y-62350D01*
X71700Y-62350D01*
X71700Y-62782D01*
X71762Y-62845D01*
X71955Y-62845D01*
X72025Y-62816D01*
X72094Y-62844D01*
X72193Y-62845D01*
X72705Y-62845D01*
X72797Y-62807D01*
X72867Y-62736D01*
X72903Y-62650D01*
X73100Y-62650D01*
X73199Y-62749D01*
X73394Y-62829D01*
X73604Y-62830D01*
X73799Y-62749D01*
X73949Y-62600D01*
X74029Y-62405D01*
X74030Y-62195D01*
X74030Y-63274D01*
X71600Y-63274D01*
X71600Y-62782D01*
X71600Y-62350D01*
X71600Y-62250D01*
X71600Y-61817D01*
X71537Y-61755D01*
X71344Y-61754D01*
X71252Y-61792D01*
X71182Y-61863D01*
X71144Y-61955D01*
X71143Y-62054D01*
X71144Y-62187D01*
X71206Y-62250D01*
X71600Y-62250D01*
X71600Y-62350D01*
X71206Y-62350D01*
X71144Y-62412D01*
X71143Y-62545D01*
X71144Y-62644D01*
X71182Y-62736D01*
X71252Y-62807D01*
X71344Y-62845D01*
X71537Y-62845D01*
X71600Y-62782D01*
X71600Y-63274D01*
X67420Y-63274D01*
X67200Y-62995D01*
X67200Y-59400D01*
X67198Y-59393D01*
X67199Y-59386D01*
X67186Y-59330D01*
X67177Y-59285D01*
X67173Y-59280D01*
X67172Y-59272D01*
X67137Y-59225D01*
X67112Y-59187D01*
X67107Y-59184D01*
X67102Y-59178D01*
X66225Y-58374D01*
X66225Y-58075D01*
X66187Y-57983D01*
X66128Y-57924D01*
X66186Y-57866D01*
X66193Y-57850D01*
X67174Y-57850D01*
X67174Y-57884D01*
X67239Y-58040D01*
X67300Y-58101D01*
X67300Y-59700D01*
X67322Y-59814D01*
X67387Y-59912D01*
X68287Y-60812D01*
X68287Y-60812D01*
X68385Y-60877D01*
X68500Y-60900D01*
X77575Y-60900D01*
X77825Y-61149D01*
X77825Y-63000D01*
X77847Y-63114D01*
X77900Y-63192D01*
X77899Y-63284D01*
X77964Y-63440D01*
X78073Y-63550D01*
X78073Y-63550D01*
G37*
G54D28*
X78073Y-63550D02*
X77781Y-63550D01*
X77781Y-62545D01*
X77781Y-62054D01*
X77780Y-61955D01*
X77742Y-61863D01*
X77672Y-61792D01*
X77580Y-61754D01*
X77387Y-61755D01*
X77325Y-61817D01*
X77325Y-62250D01*
X77718Y-62250D01*
X77781Y-62187D01*
X77781Y-62054D01*
X77781Y-62545D01*
X77781Y-62412D01*
X77718Y-62350D01*
X77325Y-62350D01*
X77325Y-62782D01*
X77387Y-62845D01*
X77580Y-62845D01*
X77672Y-62807D01*
X77742Y-62736D01*
X77780Y-62644D01*
X77781Y-62545D01*
X77781Y-63550D01*
X77716Y-63550D01*
X77774Y-63409D01*
X77775Y-63240D01*
X77710Y-63084D01*
X77591Y-62964D01*
X77434Y-62900D01*
X77265Y-62899D01*
X77225Y-62916D01*
X77225Y-62782D01*
X77225Y-62350D01*
X77217Y-62350D01*
X77217Y-62250D01*
X77225Y-62250D01*
X77225Y-61817D01*
X77162Y-61755D01*
X76969Y-61754D01*
X76899Y-61783D01*
X76830Y-61755D01*
X76731Y-61754D01*
X76219Y-61754D01*
X76127Y-61792D01*
X76057Y-61863D01*
X76021Y-61950D01*
X75899Y-61950D01*
X75800Y-61850D01*
X75605Y-61770D01*
X75395Y-61769D01*
X75200Y-61850D01*
X75050Y-61999D01*
X74970Y-62194D01*
X74969Y-62404D01*
X75050Y-62599D01*
X75199Y-62749D01*
X75394Y-62829D01*
X75604Y-62830D01*
X75799Y-62749D01*
X75899Y-62650D01*
X76021Y-62650D01*
X76056Y-62736D01*
X76127Y-62806D01*
X76219Y-62844D01*
X76318Y-62845D01*
X76830Y-62845D01*
X76900Y-62816D01*
X76969Y-62845D01*
X77162Y-62845D01*
X77225Y-62782D01*
X77225Y-62916D01*
X77109Y-62964D01*
X76989Y-63083D01*
X76925Y-63240D01*
X76925Y-63274D01*
X74030Y-63274D01*
X74030Y-62195D01*
X73949Y-62000D01*
X73800Y-61850D01*
X73605Y-61770D01*
X73395Y-61769D01*
X73200Y-61850D01*
X73100Y-61950D01*
X72903Y-61950D01*
X72868Y-61863D01*
X72797Y-61793D01*
X72705Y-61755D01*
X72606Y-61754D01*
X72094Y-61754D01*
X72025Y-61783D01*
X71955Y-61754D01*
X71762Y-61755D01*
X71700Y-61817D01*
X71700Y-62250D01*
X71707Y-62250D01*
X71707Y-62350D01*
X71700Y-62350D01*
X71700Y-62782D01*
X71762Y-62845D01*
X71955Y-62845D01*
X72025Y-62816D01*
X72094Y-62844D01*
X72193Y-62845D01*
X72705Y-62845D01*
X72797Y-62807D01*
X72867Y-62736D01*
X72903Y-62650D01*
X73100Y-62650D01*
X73199Y-62749D01*
X73394Y-62829D01*
X73604Y-62830D01*
X73799Y-62749D01*
X73949Y-62600D01*
X74029Y-62405D01*
X74030Y-62195D01*
X74030Y-63274D01*
X71600Y-63274D01*
X71600Y-62782D01*
X71600Y-62350D01*
X71600Y-62250D01*
X71600Y-61817D01*
X71537Y-61755D01*
X71344Y-61754D01*
X71252Y-61792D01*
X71182Y-61863D01*
X71144Y-61955D01*
X71143Y-62054D01*
X71144Y-62187D01*
X71206Y-62250D01*
X71600Y-62250D01*
X71600Y-62350D01*
X71206Y-62350D01*
X71144Y-62412D01*
X71143Y-62545D01*
X71144Y-62644D01*
X71182Y-62736D01*
X71252Y-62807D01*
X71344Y-62845D01*
X71537Y-62845D01*
X71600Y-62782D01*
X71600Y-63274D01*
X67420Y-63274D01*
X67200Y-62995D01*
X67200Y-59400D01*
X67198Y-59393D01*
X67199Y-59386D01*
X67186Y-59330D01*
X67177Y-59285D01*
X67173Y-59280D01*
X67172Y-59272D01*
X67137Y-59225D01*
X67112Y-59187D01*
X67107Y-59184D01*
X67102Y-59178D01*
X66225Y-58374D01*
X66225Y-58075D01*
X66187Y-57983D01*
X66128Y-57924D01*
X66186Y-57866D01*
X66193Y-57850D01*
X67174Y-57850D01*
X67174Y-57884D01*
X67239Y-58040D01*
X67300Y-58101D01*
X67300Y-59700D01*
X67322Y-59814D01*
X67387Y-59912D01*
X68287Y-60812D01*
X68287Y-60812D01*
X68385Y-60877D01*
X68500Y-60900D01*
X77575Y-60900D01*
X77825Y-61149D01*
X77825Y-63000D01*
X77847Y-63114D01*
X77900Y-63192D01*
X77899Y-63284D01*
X77964Y-63440D01*
X78073Y-63550D01*
G54D10*
G36*
X95710Y-66910D02*
X94510Y-66910D01*
X94510Y-53810D01*
X94510Y-53210D01*
X94472Y-53118D01*
X94401Y-53048D01*
X94385Y-53041D01*
X94385Y-51464D01*
X94385Y-50185D01*
X94384Y-50086D01*
X94346Y-49994D01*
X94276Y-49923D01*
X94184Y-49885D01*
X93558Y-49886D01*
X93496Y-49948D01*
X93496Y-50775D01*
X94322Y-50775D01*
X94385Y-50712D01*
X94385Y-50185D01*
X94385Y-51464D01*
X94385Y-50937D01*
X94322Y-50875D01*
X93496Y-50875D01*
X93496Y-51701D01*
X93558Y-51764D01*
X94184Y-51764D01*
X94276Y-51726D01*
X94346Y-51655D01*
X94384Y-51563D01*
X94385Y-51464D01*
X94385Y-53041D01*
X94310Y-53010D01*
X94310Y-52635D01*
X94283Y-52501D01*
X94207Y-52387D01*
X93872Y-52052D01*
X93758Y-51976D01*
X93625Y-51950D01*
X93396Y-51950D01*
X93396Y-51701D01*
X93396Y-50875D01*
X93396Y-50775D01*
X93396Y-49948D01*
X93333Y-49886D01*
X93071Y-49885D01*
X93095Y-49876D01*
X93165Y-49805D01*
X93203Y-49713D01*
X93204Y-49614D01*
X93204Y-49087D01*
X93141Y-49025D01*
X92315Y-49025D01*
X92315Y-49851D01*
X92377Y-49914D01*
X92639Y-49914D01*
X92615Y-49923D01*
X92545Y-49994D01*
X92507Y-50086D01*
X92506Y-50185D01*
X92507Y-50712D01*
X92569Y-50775D01*
X93396Y-50775D01*
X93396Y-50875D01*
X92569Y-50875D01*
X92507Y-50937D01*
X92506Y-51464D01*
X92507Y-51563D01*
X92545Y-51655D01*
X92615Y-51726D01*
X92707Y-51764D01*
X93333Y-51764D01*
X93396Y-51701D01*
X93396Y-51950D01*
X90644Y-51950D01*
X90459Y-51764D01*
X91822Y-51764D01*
X91914Y-51726D01*
X91984Y-51655D01*
X92022Y-51563D01*
X92023Y-51464D01*
X92023Y-50086D01*
X91985Y-49994D01*
X91914Y-49924D01*
X91890Y-49914D01*
X92152Y-49914D01*
X92215Y-49851D01*
X92215Y-49025D01*
X91388Y-49025D01*
X91326Y-49087D01*
X91325Y-49614D01*
X91326Y-49713D01*
X91364Y-49805D01*
X91434Y-49876D01*
X91458Y-49885D01*
X90345Y-49885D01*
X90253Y-49923D01*
X90183Y-49994D01*
X90145Y-50086D01*
X90144Y-50185D01*
X90144Y-50749D01*
X89947Y-50552D01*
X89833Y-50476D01*
X89700Y-50450D01*
X89652Y-50450D01*
X89552Y-50350D01*
X89574Y-50350D01*
X89666Y-50312D01*
X89736Y-50241D01*
X89774Y-50149D01*
X89775Y-50050D01*
X89775Y-49450D01*
X89737Y-49358D01*
X89666Y-49288D01*
X89574Y-49250D01*
X89475Y-49249D01*
X88875Y-49249D01*
X88783Y-49287D01*
X88713Y-49358D01*
X88675Y-49450D01*
X88674Y-49549D01*
X88674Y-50149D01*
X88712Y-50241D01*
X88783Y-50311D01*
X88875Y-50349D01*
X88897Y-50349D01*
X88759Y-50488D01*
X88675Y-50690D01*
X88674Y-50908D01*
X88758Y-51111D01*
X88913Y-51265D01*
X88994Y-51299D01*
X88913Y-51333D01*
X88759Y-51488D01*
X88675Y-51690D01*
X88674Y-51908D01*
X88758Y-52111D01*
X88913Y-52265D01*
X89115Y-52349D01*
X89333Y-52350D01*
X89536Y-52266D01*
X89690Y-52111D01*
X89731Y-52015D01*
X89752Y-52047D01*
X90252Y-52547D01*
X90366Y-52623D01*
X90366Y-52623D01*
X90500Y-52650D01*
X93480Y-52650D01*
X93610Y-52779D01*
X93610Y-53010D01*
X93518Y-53047D01*
X93448Y-53118D01*
X93410Y-53210D01*
X93409Y-53309D01*
X93409Y-53909D01*
X93447Y-54001D01*
X93518Y-54071D01*
X93610Y-54109D01*
X93610Y-54690D01*
X93441Y-54689D01*
X93220Y-54781D01*
X93059Y-54941D01*
X92900Y-54781D01*
X92830Y-54752D01*
X92830Y-54129D01*
X92921Y-54092D01*
X92991Y-54021D01*
X93029Y-53929D01*
X93030Y-53830D01*
X93030Y-53230D01*
X92992Y-53138D01*
X92921Y-53068D01*
X92829Y-53030D01*
X92730Y-53029D01*
X92130Y-53029D01*
X92038Y-53067D01*
X91968Y-53138D01*
X91930Y-53230D01*
X91930Y-53250D01*
X91889Y-53250D01*
X91862Y-53183D01*
X91791Y-53113D01*
X91699Y-53075D01*
X91600Y-53074D01*
X91250Y-53074D01*
X91158Y-53112D01*
X91099Y-53171D01*
X91041Y-53113D01*
X90949Y-53075D01*
X90850Y-53074D01*
X90500Y-53074D01*
X90408Y-53112D01*
X90338Y-53183D01*
X90300Y-53275D01*
X90299Y-53374D01*
X90299Y-53924D01*
X90337Y-54016D01*
X90375Y-54053D01*
X90375Y-54455D01*
X90401Y-54588D01*
X90477Y-54702D01*
X90715Y-54940D01*
X90434Y-54940D01*
X90025Y-54530D01*
X90025Y-54053D01*
X90061Y-54016D01*
X90099Y-53924D01*
X90100Y-53825D01*
X90100Y-53275D01*
X90062Y-53183D01*
X89991Y-53113D01*
X89899Y-53075D01*
X89800Y-53074D01*
X89450Y-53074D01*
X89358Y-53112D01*
X89300Y-53171D01*
X89241Y-53112D01*
X89149Y-53074D01*
X89037Y-53075D01*
X88975Y-53137D01*
X88975Y-53550D01*
X88982Y-53550D01*
X88982Y-53650D01*
X88975Y-53650D01*
X88975Y-54062D01*
X89037Y-54125D01*
X89149Y-54125D01*
X89241Y-54087D01*
X89300Y-54028D01*
X89325Y-54053D01*
X89325Y-54675D01*
X89351Y-54808D01*
X89427Y-54922D01*
X90042Y-55537D01*
X90156Y-55613D01*
X90156Y-55613D01*
X90290Y-55640D01*
X90959Y-55640D01*
X90959Y-55689D01*
X90997Y-55781D01*
X91068Y-55851D01*
X91160Y-55889D01*
X91259Y-55890D01*
X91789Y-55890D01*
X91705Y-55975D01*
X88875Y-55975D01*
X88875Y-54062D01*
X88875Y-53650D01*
X88875Y-53550D01*
X88875Y-53137D01*
X88812Y-53075D01*
X88700Y-53074D01*
X88608Y-53112D01*
X88538Y-53183D01*
X88500Y-53275D01*
X88499Y-53374D01*
X88500Y-53487D01*
X88562Y-53550D01*
X88875Y-53550D01*
X88875Y-53650D01*
X88562Y-53650D01*
X88500Y-53712D01*
X88499Y-53825D01*
X88500Y-53924D01*
X88538Y-54016D01*
X88608Y-54087D01*
X88700Y-54125D01*
X88812Y-54125D01*
X88875Y-54062D01*
X88875Y-55975D01*
X85686Y-55975D01*
X85655Y-55943D01*
X85489Y-55875D01*
X85310Y-55874D01*
X85150Y-55941D01*
X85150Y-50740D01*
X85150Y-50739D01*
X85150Y-50737D01*
X85150Y-50725D01*
X85142Y-50688D01*
X85133Y-50623D01*
X85128Y-50615D01*
X85127Y-50610D01*
X85108Y-50581D01*
X85073Y-50523D01*
X84147Y-49498D01*
X84141Y-49494D01*
X84137Y-49487D01*
X84094Y-49459D01*
X84053Y-49428D01*
X84046Y-49427D01*
X84039Y-49422D01*
X83989Y-49412D01*
X83940Y-49400D01*
X83932Y-49401D01*
X83925Y-49400D01*
X82655Y-49400D01*
X82534Y-49350D01*
X82365Y-49349D01*
X82209Y-49414D01*
X82089Y-49533D01*
X82025Y-49690D01*
X82024Y-49859D01*
X82062Y-49950D01*
X81149Y-49950D01*
X81024Y-49825D01*
X81399Y-49825D01*
X81491Y-49787D01*
X81561Y-49716D01*
X81599Y-49624D01*
X81600Y-49525D01*
X81600Y-48925D01*
X81562Y-48833D01*
X81491Y-48763D01*
X81399Y-48725D01*
X81300Y-48724D01*
X80700Y-48724D01*
X80608Y-48762D01*
X80538Y-48833D01*
X80500Y-48925D01*
X80500Y-48947D01*
X80361Y-48809D01*
X80159Y-48725D01*
X79941Y-48724D01*
X79738Y-48808D01*
X79584Y-48963D01*
X79550Y-49044D01*
X79516Y-48963D01*
X79361Y-48809D01*
X79159Y-48725D01*
X78941Y-48724D01*
X78738Y-48808D01*
X78584Y-48963D01*
X78550Y-49044D01*
X78516Y-48963D01*
X78361Y-48809D01*
X78159Y-48725D01*
X77941Y-48724D01*
X77738Y-48808D01*
X77584Y-48963D01*
X77550Y-49044D01*
X77516Y-48963D01*
X77361Y-48809D01*
X77159Y-48725D01*
X76941Y-48724D01*
X76738Y-48808D01*
X76584Y-48963D01*
X76550Y-49044D01*
X76516Y-48963D01*
X76361Y-48809D01*
X76159Y-48725D01*
X75941Y-48724D01*
X75738Y-48808D01*
X75584Y-48963D01*
X75550Y-49044D01*
X75516Y-48963D01*
X75361Y-48809D01*
X75159Y-48725D01*
X74941Y-48724D01*
X74738Y-48808D01*
X74584Y-48963D01*
X74550Y-49044D01*
X74516Y-48963D01*
X74361Y-48809D01*
X74159Y-48725D01*
X73941Y-48724D01*
X73738Y-48808D01*
X73584Y-48963D01*
X73550Y-49044D01*
X73516Y-48963D01*
X73361Y-48809D01*
X73159Y-48725D01*
X72941Y-48724D01*
X72738Y-48808D01*
X72584Y-48963D01*
X72550Y-49044D01*
X72516Y-48963D01*
X72361Y-48809D01*
X72159Y-48725D01*
X71941Y-48724D01*
X71738Y-48808D01*
X71584Y-48963D01*
X71550Y-49044D01*
X71516Y-48963D01*
X71361Y-48809D01*
X71159Y-48725D01*
X70941Y-48724D01*
X70738Y-48808D01*
X70584Y-48963D01*
X70550Y-49044D01*
X70516Y-48963D01*
X70361Y-48809D01*
X70159Y-48725D01*
X69941Y-48724D01*
X69738Y-48808D01*
X69584Y-48963D01*
X69500Y-49165D01*
X69499Y-49383D01*
X69583Y-49586D01*
X69738Y-49740D01*
X69940Y-49824D01*
X70158Y-49825D01*
X70361Y-49741D01*
X70515Y-49586D01*
X70549Y-49505D01*
X70583Y-49586D01*
X70738Y-49740D01*
X70940Y-49824D01*
X71158Y-49825D01*
X71361Y-49741D01*
X71515Y-49586D01*
X71549Y-49505D01*
X71583Y-49586D01*
X71738Y-49740D01*
X71940Y-49824D01*
X72158Y-49825D01*
X72361Y-49741D01*
X72515Y-49586D01*
X72549Y-49505D01*
X72583Y-49586D01*
X72738Y-49740D01*
X72750Y-49745D01*
X72750Y-49900D01*
X72075Y-50575D01*
X70726Y-50575D01*
X70691Y-50539D01*
X70534Y-50475D01*
X70365Y-50474D01*
X70209Y-50539D01*
X70089Y-50658D01*
X70025Y-50815D01*
X70024Y-50984D01*
X70089Y-51140D01*
X70208Y-51260D01*
X70365Y-51324D01*
X70534Y-51325D01*
X70690Y-51260D01*
X70776Y-51175D01*
X72200Y-51175D01*
X72200Y-51174D01*
X72314Y-51152D01*
X72314Y-51152D01*
X72412Y-51087D01*
X73262Y-50237D01*
X73327Y-50139D01*
X73349Y-50025D01*
X73350Y-50025D01*
X73350Y-49746D01*
X73361Y-49741D01*
X73515Y-49586D01*
X73549Y-49505D01*
X73583Y-49586D01*
X73738Y-49740D01*
X73940Y-49824D01*
X74158Y-49825D01*
X74361Y-49741D01*
X74515Y-49586D01*
X74549Y-49505D01*
X74583Y-49586D01*
X74738Y-49740D01*
X74940Y-49824D01*
X75158Y-49825D01*
X75361Y-49741D01*
X75515Y-49586D01*
X75549Y-49505D01*
X75583Y-49586D01*
X75738Y-49740D01*
X75940Y-49824D01*
X76158Y-49825D01*
X76361Y-49741D01*
X76515Y-49586D01*
X76549Y-49505D01*
X76583Y-49586D01*
X76738Y-49740D01*
X76750Y-49745D01*
X76750Y-50625D01*
X76772Y-50739D01*
X76837Y-50837D01*
X77137Y-51137D01*
X77137Y-51137D01*
X77235Y-51202D01*
X77349Y-51224D01*
X77350Y-51225D01*
X79448Y-51225D01*
X79508Y-51285D01*
X79665Y-51349D01*
X79834Y-51350D01*
X79990Y-51285D01*
X80110Y-51166D01*
X80174Y-51009D01*
X80175Y-50840D01*
X80110Y-50684D01*
X79991Y-50564D01*
X79834Y-50500D01*
X79665Y-50499D01*
X79509Y-50564D01*
X79448Y-50625D01*
X77474Y-50625D01*
X77350Y-50500D01*
X77350Y-49746D01*
X77361Y-49741D01*
X77515Y-49586D01*
X77549Y-49505D01*
X77583Y-49586D01*
X77738Y-49740D01*
X77940Y-49824D01*
X78158Y-49825D01*
X78361Y-49741D01*
X78515Y-49586D01*
X78549Y-49505D01*
X78583Y-49586D01*
X78738Y-49740D01*
X78940Y-49824D01*
X79158Y-49825D01*
X79361Y-49741D01*
X79515Y-49586D01*
X79549Y-49505D01*
X79583Y-49586D01*
X79738Y-49740D01*
X79940Y-49824D01*
X80158Y-49825D01*
X80170Y-49820D01*
X80812Y-50462D01*
X80812Y-50462D01*
X80910Y-50527D01*
X81024Y-50549D01*
X81025Y-50550D01*
X83475Y-50550D01*
X84050Y-51124D01*
X84050Y-61300D01*
X83825Y-61525D01*
X83150Y-61525D01*
X83150Y-61500D01*
X83112Y-61408D01*
X83041Y-61338D01*
X82949Y-61300D01*
X82850Y-61299D01*
X82500Y-61299D01*
X82408Y-61337D01*
X82349Y-61396D01*
X82300Y-61346D01*
X82300Y-60342D01*
X82444Y-60197D01*
X82500Y-60064D01*
X82554Y-60197D01*
X82702Y-60344D01*
X82895Y-60424D01*
X83103Y-60425D01*
X83297Y-60345D01*
X83444Y-60197D01*
X83524Y-60004D01*
X83525Y-59796D01*
X83445Y-59603D01*
X83297Y-59455D01*
X83104Y-59375D01*
X82896Y-59374D01*
X82703Y-59454D01*
X82555Y-59602D01*
X82499Y-59735D01*
X82445Y-59603D01*
X82297Y-59455D01*
X82104Y-59375D01*
X81896Y-59374D01*
X81703Y-59454D01*
X81555Y-59602D01*
X81499Y-59735D01*
X81445Y-59603D01*
X81297Y-59455D01*
X81104Y-59375D01*
X80896Y-59374D01*
X80703Y-59454D01*
X80555Y-59602D01*
X80499Y-59735D01*
X80445Y-59603D01*
X80297Y-59455D01*
X80104Y-59375D01*
X79896Y-59374D01*
X79703Y-59454D01*
X79555Y-59602D01*
X79499Y-59735D01*
X79445Y-59603D01*
X79297Y-59455D01*
X79104Y-59375D01*
X78896Y-59374D01*
X78703Y-59454D01*
X78555Y-59602D01*
X78499Y-59735D01*
X78445Y-59603D01*
X78297Y-59455D01*
X78104Y-59375D01*
X77896Y-59374D01*
X77703Y-59454D01*
X77555Y-59602D01*
X77502Y-59728D01*
X77460Y-59627D01*
X77367Y-59602D01*
X77297Y-59673D01*
X77297Y-59532D01*
X77281Y-59470D01*
X77281Y-58945D01*
X77281Y-58454D01*
X77280Y-58355D01*
X77242Y-58263D01*
X77172Y-58192D01*
X77080Y-58154D01*
X76887Y-58155D01*
X76825Y-58217D01*
X76825Y-58650D01*
X77218Y-58650D01*
X77281Y-58587D01*
X77281Y-58454D01*
X77281Y-58945D01*
X77281Y-58812D01*
X77218Y-58750D01*
X76825Y-58750D01*
X76825Y-59182D01*
X76887Y-59245D01*
X77080Y-59245D01*
X77172Y-59207D01*
X77242Y-59136D01*
X77280Y-59044D01*
X77281Y-58945D01*
X77281Y-59470D01*
X77272Y-59439D01*
X77075Y-59370D01*
X76867Y-59381D01*
X76727Y-59439D01*
X76702Y-59532D01*
X77000Y-59829D01*
X77297Y-59532D01*
X77297Y-59673D01*
X77070Y-59900D01*
X77367Y-60197D01*
X77460Y-60172D01*
X77499Y-60062D01*
X77554Y-60197D01*
X77657Y-60300D01*
X77288Y-60300D01*
X77297Y-60267D01*
X77000Y-59970D01*
X76702Y-60267D01*
X76711Y-60300D01*
X76342Y-60300D01*
X76444Y-60197D01*
X76497Y-60071D01*
X76539Y-60172D01*
X76632Y-60197D01*
X76929Y-59900D01*
X76632Y-59602D01*
X76539Y-59627D01*
X76500Y-59737D01*
X76445Y-59603D01*
X76350Y-59507D01*
X76350Y-59236D01*
X76400Y-59216D01*
X76469Y-59245D01*
X76662Y-59245D01*
X76725Y-59182D01*
X76725Y-58750D01*
X76717Y-58750D01*
X76717Y-58650D01*
X76725Y-58650D01*
X76725Y-58217D01*
X76662Y-58155D01*
X76469Y-58154D01*
X76399Y-58183D01*
X76390Y-58179D01*
X76444Y-58125D01*
X77375Y-58125D01*
X77508Y-58098D01*
X77508Y-58098D01*
X77622Y-58022D01*
X78172Y-57472D01*
X78248Y-57358D01*
X78275Y-57225D01*
X78275Y-56586D01*
X78306Y-56555D01*
X78374Y-56389D01*
X78375Y-56210D01*
X78306Y-56045D01*
X78180Y-55918D01*
X78014Y-55850D01*
X77970Y-55850D01*
X77481Y-55361D01*
X77481Y-54855D01*
X77443Y-54763D01*
X77372Y-54693D01*
X77350Y-54683D01*
X77350Y-54292D01*
X77444Y-54197D01*
X77500Y-54064D01*
X77554Y-54197D01*
X77702Y-54344D01*
X77895Y-54424D01*
X78103Y-54425D01*
X78297Y-54345D01*
X78444Y-54197D01*
X78500Y-54064D01*
X78554Y-54197D01*
X78702Y-54344D01*
X78895Y-54424D01*
X79103Y-54425D01*
X79297Y-54345D01*
X79444Y-54197D01*
X79500Y-54064D01*
X79554Y-54197D01*
X79702Y-54344D01*
X79895Y-54424D01*
X80103Y-54425D01*
X80297Y-54345D01*
X80444Y-54197D01*
X80500Y-54064D01*
X80554Y-54197D01*
X80702Y-54344D01*
X80895Y-54424D01*
X81103Y-54425D01*
X81297Y-54345D01*
X81444Y-54197D01*
X81500Y-54064D01*
X81554Y-54197D01*
X81702Y-54344D01*
X81895Y-54424D01*
X82103Y-54425D01*
X82297Y-54345D01*
X82444Y-54197D01*
X82474Y-54125D01*
X82474Y-54224D01*
X82512Y-54316D01*
X82583Y-54386D01*
X82675Y-54424D01*
X82774Y-54425D01*
X83324Y-54425D01*
X83416Y-54387D01*
X83486Y-54316D01*
X83524Y-54224D01*
X83525Y-54125D01*
X83525Y-53575D01*
X83487Y-53483D01*
X83416Y-53413D01*
X83324Y-53375D01*
X83225Y-53374D01*
X82675Y-53374D01*
X82583Y-53412D01*
X82513Y-53483D01*
X82475Y-53575D01*
X82474Y-53674D01*
X82474Y-53674D01*
X82445Y-53603D01*
X82297Y-53455D01*
X82104Y-53375D01*
X81896Y-53374D01*
X81703Y-53454D01*
X81555Y-53602D01*
X81499Y-53735D01*
X81445Y-53603D01*
X81297Y-53455D01*
X81104Y-53375D01*
X80896Y-53374D01*
X80825Y-53404D01*
X80825Y-52940D01*
X80760Y-52784D01*
X80641Y-52664D01*
X80484Y-52600D01*
X80315Y-52599D01*
X80159Y-52664D01*
X80098Y-52725D01*
X67601Y-52725D01*
X67591Y-52714D01*
X67434Y-52650D01*
X67265Y-52649D01*
X67109Y-52714D01*
X66989Y-52833D01*
X66925Y-52990D01*
X66924Y-53159D01*
X66989Y-53315D01*
X67108Y-53435D01*
X67265Y-53499D01*
X67434Y-53500D01*
X67590Y-53435D01*
X67701Y-53325D01*
X80098Y-53325D01*
X80158Y-53385D01*
X80315Y-53449D01*
X80484Y-53450D01*
X80640Y-53385D01*
X80760Y-53266D01*
X80824Y-53109D01*
X80825Y-52940D01*
X80825Y-53404D01*
X80703Y-53454D01*
X80555Y-53602D01*
X80499Y-53735D01*
X80445Y-53603D01*
X80297Y-53455D01*
X80104Y-53375D01*
X79896Y-53374D01*
X79703Y-53454D01*
X79555Y-53602D01*
X79499Y-53735D01*
X79445Y-53603D01*
X79297Y-53455D01*
X79104Y-53375D01*
X78896Y-53374D01*
X78703Y-53454D01*
X78555Y-53602D01*
X78499Y-53735D01*
X78445Y-53603D01*
X78297Y-53455D01*
X78104Y-53375D01*
X77896Y-53374D01*
X77703Y-53454D01*
X77555Y-53602D01*
X77499Y-53735D01*
X77445Y-53603D01*
X77297Y-53455D01*
X77104Y-53375D01*
X76896Y-53374D01*
X76703Y-53454D01*
X76555Y-53602D01*
X76502Y-53728D01*
X76460Y-53627D01*
X76367Y-53602D01*
X76297Y-53673D01*
X76297Y-53532D01*
X76272Y-53439D01*
X76075Y-53370D01*
X75867Y-53381D01*
X75727Y-53439D01*
X75702Y-53532D01*
X76000Y-53829D01*
X76297Y-53532D01*
X76297Y-53673D01*
X76070Y-53900D01*
X76367Y-54197D01*
X76460Y-54172D01*
X76499Y-54062D01*
X76554Y-54197D01*
X76650Y-54292D01*
X76650Y-54663D01*
X76600Y-54683D01*
X76530Y-54654D01*
X76337Y-54655D01*
X76297Y-54695D01*
X76297Y-54267D01*
X76000Y-53970D01*
X75929Y-54041D01*
X75929Y-53900D01*
X75632Y-53602D01*
X75539Y-53627D01*
X75500Y-53737D01*
X75445Y-53603D01*
X75297Y-53455D01*
X75104Y-53375D01*
X74896Y-53374D01*
X74703Y-53454D01*
X74555Y-53602D01*
X74499Y-53735D01*
X74445Y-53603D01*
X74297Y-53455D01*
X74104Y-53375D01*
X73896Y-53374D01*
X73703Y-53454D01*
X73555Y-53602D01*
X73499Y-53735D01*
X73445Y-53603D01*
X73297Y-53455D01*
X73104Y-53375D01*
X72896Y-53374D01*
X72703Y-53454D01*
X72555Y-53602D01*
X72499Y-53735D01*
X72445Y-53603D01*
X72297Y-53455D01*
X72104Y-53375D01*
X71896Y-53374D01*
X71703Y-53454D01*
X71555Y-53602D01*
X71499Y-53735D01*
X71445Y-53603D01*
X71297Y-53455D01*
X71104Y-53375D01*
X70896Y-53374D01*
X70703Y-53454D01*
X70555Y-53602D01*
X70499Y-53735D01*
X70445Y-53603D01*
X70297Y-53455D01*
X70104Y-53375D01*
X69896Y-53374D01*
X69703Y-53454D01*
X69555Y-53602D01*
X69475Y-53795D01*
X69474Y-54003D01*
X69554Y-54197D01*
X69702Y-54344D01*
X69895Y-54424D01*
X70103Y-54425D01*
X70297Y-54345D01*
X70444Y-54197D01*
X70500Y-54064D01*
X70554Y-54197D01*
X70702Y-54344D01*
X70895Y-54424D01*
X71103Y-54425D01*
X71297Y-54345D01*
X71444Y-54197D01*
X71500Y-54064D01*
X71554Y-54197D01*
X71702Y-54344D01*
X71895Y-54424D01*
X72103Y-54425D01*
X72297Y-54345D01*
X72444Y-54197D01*
X72500Y-54064D01*
X72554Y-54197D01*
X72702Y-54344D01*
X72895Y-54424D01*
X73103Y-54425D01*
X73297Y-54345D01*
X73444Y-54197D01*
X73500Y-54064D01*
X73554Y-54197D01*
X73702Y-54344D01*
X73895Y-54424D01*
X74103Y-54425D01*
X74297Y-54345D01*
X74444Y-54197D01*
X74500Y-54064D01*
X74554Y-54197D01*
X74702Y-54344D01*
X74895Y-54424D01*
X75103Y-54425D01*
X75297Y-54345D01*
X75444Y-54197D01*
X75497Y-54071D01*
X75539Y-54172D01*
X75632Y-54197D01*
X75929Y-53900D01*
X75929Y-54041D01*
X75702Y-54267D01*
X75727Y-54360D01*
X75924Y-54429D01*
X76132Y-54418D01*
X76272Y-54360D01*
X76297Y-54267D01*
X76297Y-54695D01*
X76275Y-54717D01*
X76275Y-55150D01*
X76282Y-55150D01*
X76282Y-55250D01*
X76275Y-55250D01*
X76275Y-55682D01*
X76337Y-55745D01*
X76530Y-55745D01*
X76600Y-55716D01*
X76669Y-55744D01*
X76768Y-55745D01*
X76875Y-55745D01*
X77474Y-56344D01*
X77474Y-56380D01*
X77180Y-56675D01*
X76175Y-56675D01*
X76175Y-55682D01*
X76175Y-55250D01*
X76175Y-55150D01*
X76175Y-54717D01*
X76112Y-54655D01*
X75919Y-54654D01*
X75827Y-54692D01*
X75757Y-54763D01*
X75719Y-54855D01*
X75718Y-54954D01*
X75719Y-55087D01*
X75781Y-55150D01*
X76175Y-55150D01*
X76175Y-55250D01*
X75781Y-55250D01*
X75719Y-55312D01*
X75718Y-55445D01*
X75719Y-55544D01*
X75757Y-55636D01*
X75827Y-55707D01*
X75919Y-55745D01*
X76112Y-55745D01*
X76175Y-55682D01*
X76175Y-56675D01*
X68127Y-56675D01*
X68174Y-56559D01*
X68175Y-56390D01*
X68110Y-56234D01*
X67991Y-56114D01*
X67834Y-56050D01*
X67818Y-56050D01*
X67824Y-56034D01*
X67825Y-55865D01*
X67760Y-55709D01*
X67641Y-55589D01*
X67484Y-55525D01*
X67399Y-55524D01*
X67387Y-55512D01*
X67289Y-55447D01*
X67175Y-55425D01*
X64079Y-55425D01*
X64062Y-55383D01*
X63991Y-55313D01*
X63899Y-55275D01*
X63800Y-55274D01*
X63250Y-55274D01*
X63158Y-55312D01*
X63088Y-55383D01*
X63087Y-55384D01*
X63087Y-55383D01*
X63016Y-55313D01*
X62924Y-55275D01*
X62900Y-55275D01*
X62900Y-51868D01*
X63035Y-51924D01*
X63243Y-51925D01*
X63437Y-51845D01*
X63582Y-51700D01*
X64150Y-51700D01*
X64187Y-51791D01*
X64258Y-51861D01*
X64350Y-51899D01*
X64449Y-51900D01*
X64999Y-51900D01*
X65091Y-51862D01*
X65161Y-51791D01*
X65199Y-51700D01*
X65697Y-51700D01*
X65842Y-51844D01*
X66035Y-51924D01*
X66243Y-51925D01*
X66437Y-51845D01*
X66584Y-51697D01*
X66664Y-51504D01*
X66665Y-51296D01*
X66585Y-51103D01*
X66437Y-50955D01*
X66244Y-50875D01*
X66036Y-50874D01*
X65843Y-50954D01*
X65697Y-51100D01*
X65103Y-51100D01*
X65162Y-51041D01*
X65200Y-50949D01*
X65200Y-50837D01*
X65137Y-50775D01*
X64725Y-50775D01*
X64725Y-50782D01*
X64625Y-50782D01*
X64625Y-50775D01*
X64212Y-50775D01*
X64150Y-50837D01*
X64149Y-50949D01*
X64187Y-51041D01*
X64246Y-51100D01*
X63582Y-51100D01*
X63437Y-50955D01*
X63244Y-50875D01*
X63036Y-50874D01*
X62900Y-50931D01*
X62900Y-50049D01*
X63027Y-49921D01*
X63035Y-49924D01*
X63200Y-49925D01*
X63437Y-50162D01*
X63437Y-50162D01*
X63535Y-50227D01*
X63650Y-50250D01*
X64154Y-50250D01*
X64154Y-50255D01*
X64192Y-50347D01*
X64220Y-50375D01*
X64187Y-50408D01*
X64149Y-50500D01*
X64150Y-50612D01*
X64212Y-50675D01*
X64625Y-50675D01*
X64625Y-50667D01*
X64725Y-50667D01*
X64725Y-50675D01*
X65137Y-50675D01*
X65200Y-50612D01*
X65200Y-50500D01*
X65162Y-50408D01*
X65154Y-50400D01*
X65206Y-50347D01*
X65244Y-50255D01*
X65244Y-50250D01*
X65590Y-50250D01*
X65590Y-50249D01*
X65704Y-50227D01*
X65704Y-50227D01*
X65802Y-50162D01*
X66039Y-49924D01*
X66243Y-49925D01*
X66437Y-49845D01*
X66584Y-49697D01*
X66664Y-49504D01*
X66665Y-49296D01*
X66585Y-49103D01*
X66437Y-48955D01*
X66244Y-48875D01*
X66036Y-48874D01*
X65843Y-48954D01*
X65695Y-49102D01*
X65615Y-49295D01*
X65614Y-49500D01*
X65465Y-49650D01*
X65245Y-49650D01*
X65245Y-49644D01*
X65216Y-49575D01*
X65245Y-49505D01*
X65245Y-48894D01*
X65207Y-48802D01*
X65136Y-48732D01*
X65044Y-48694D01*
X64945Y-48693D01*
X64812Y-48694D01*
X64750Y-48756D01*
X64750Y-49150D01*
X65182Y-49150D01*
X65245Y-49087D01*
X65245Y-48894D01*
X65245Y-49505D01*
X65245Y-49312D01*
X65182Y-49250D01*
X64750Y-49250D01*
X64750Y-49257D01*
X64650Y-49257D01*
X64650Y-49250D01*
X64650Y-49150D01*
X64650Y-48756D01*
X64587Y-48694D01*
X64454Y-48693D01*
X64355Y-48694D01*
X64263Y-48732D01*
X64192Y-48802D01*
X64154Y-48894D01*
X64155Y-49087D01*
X64217Y-49150D01*
X64650Y-49150D01*
X64650Y-49250D01*
X64217Y-49250D01*
X64155Y-49312D01*
X64154Y-49505D01*
X64183Y-49575D01*
X64155Y-49644D01*
X64155Y-49650D01*
X63774Y-49650D01*
X63654Y-49530D01*
X63664Y-49504D01*
X63665Y-49296D01*
X63585Y-49103D01*
X63437Y-48955D01*
X63244Y-48875D01*
X63036Y-48874D01*
X62843Y-48954D01*
X62695Y-49102D01*
X62615Y-49295D01*
X62614Y-49485D01*
X62387Y-49712D01*
X62322Y-49810D01*
X62300Y-49925D01*
X62300Y-55274D01*
X62275Y-55274D01*
X62183Y-55312D01*
X62175Y-55321D01*
X62175Y-51321D01*
X62175Y-49321D01*
X62095Y-49128D01*
X61947Y-48980D01*
X61754Y-48900D01*
X61546Y-48899D01*
X61353Y-48979D01*
X61205Y-49127D01*
X61125Y-49320D01*
X61124Y-49525D01*
X61025Y-49625D01*
X60745Y-49625D01*
X60745Y-49619D01*
X60716Y-49550D01*
X60745Y-49480D01*
X60745Y-48869D01*
X60707Y-48777D01*
X60636Y-48707D01*
X60544Y-48669D01*
X60445Y-48668D01*
X60312Y-48669D01*
X60250Y-48731D01*
X60250Y-49125D01*
X60682Y-49125D01*
X60745Y-49062D01*
X60745Y-48869D01*
X60745Y-49480D01*
X60745Y-49287D01*
X60682Y-49225D01*
X60250Y-49225D01*
X60250Y-49232D01*
X60150Y-49232D01*
X60150Y-49225D01*
X60150Y-49125D01*
X60150Y-48731D01*
X60087Y-48669D01*
X59954Y-48668D01*
X59855Y-48669D01*
X59763Y-48707D01*
X59692Y-48777D01*
X59654Y-48869D01*
X59655Y-49062D01*
X59717Y-49125D01*
X60150Y-49125D01*
X60150Y-49225D01*
X59717Y-49225D01*
X59655Y-49287D01*
X59654Y-49480D01*
X59683Y-49550D01*
X59655Y-49619D01*
X59655Y-49625D01*
X59274Y-49625D01*
X59174Y-49525D01*
X59175Y-49321D01*
X59095Y-49128D01*
X58947Y-48980D01*
X58754Y-48900D01*
X58546Y-48899D01*
X58353Y-48979D01*
X58205Y-49127D01*
X58125Y-49320D01*
X58124Y-49528D01*
X58204Y-49722D01*
X58352Y-49869D01*
X58545Y-49949D01*
X58750Y-49950D01*
X58937Y-50137D01*
X58937Y-50137D01*
X59035Y-50202D01*
X59150Y-50225D01*
X59654Y-50225D01*
X59654Y-50230D01*
X59692Y-50322D01*
X59763Y-50392D01*
X59855Y-50430D01*
X59860Y-50430D01*
X59783Y-50463D01*
X59712Y-50533D01*
X59674Y-50625D01*
X59675Y-50737D01*
X59737Y-50800D01*
X60150Y-50800D01*
X60150Y-50792D01*
X60250Y-50792D01*
X60250Y-50800D01*
X60662Y-50800D01*
X60725Y-50737D01*
X60725Y-50625D01*
X60687Y-50533D01*
X60616Y-50463D01*
X60539Y-50431D01*
X60544Y-50431D01*
X60636Y-50393D01*
X60706Y-50322D01*
X60744Y-50230D01*
X60744Y-50225D01*
X61150Y-50225D01*
X61150Y-50224D01*
X61264Y-50202D01*
X61264Y-50202D01*
X61362Y-50137D01*
X61549Y-49949D01*
X61753Y-49950D01*
X61947Y-49870D01*
X62094Y-49722D01*
X62174Y-49529D01*
X62175Y-49321D01*
X62175Y-51321D01*
X62095Y-51128D01*
X61947Y-50980D01*
X61754Y-50900D01*
X61546Y-50899D01*
X61353Y-50979D01*
X61205Y-51127D01*
X61133Y-51300D01*
X60693Y-51300D01*
X60687Y-51283D01*
X60628Y-51225D01*
X60687Y-51166D01*
X60725Y-51074D01*
X60725Y-50962D01*
X60662Y-50900D01*
X60250Y-50900D01*
X60250Y-50907D01*
X60150Y-50907D01*
X60150Y-50900D01*
X59737Y-50900D01*
X59675Y-50962D01*
X59674Y-51074D01*
X59712Y-51166D01*
X59771Y-51225D01*
X59713Y-51283D01*
X59706Y-51300D01*
X59166Y-51300D01*
X59095Y-51128D01*
X58947Y-50980D01*
X58754Y-50900D01*
X58546Y-50899D01*
X58353Y-50979D01*
X58205Y-51127D01*
X58125Y-51320D01*
X58124Y-51528D01*
X58204Y-51722D01*
X58352Y-51869D01*
X58545Y-51949D01*
X58753Y-51950D01*
X58875Y-51900D01*
X59706Y-51900D01*
X59712Y-51916D01*
X59783Y-51986D01*
X59875Y-52024D01*
X59974Y-52025D01*
X60524Y-52025D01*
X60616Y-51987D01*
X60686Y-51916D01*
X60693Y-51900D01*
X61424Y-51900D01*
X61545Y-51949D01*
X61753Y-51950D01*
X61947Y-51870D01*
X62094Y-51722D01*
X62174Y-51529D01*
X62175Y-51321D01*
X62175Y-55321D01*
X62113Y-55383D01*
X62075Y-55475D01*
X62074Y-55574D01*
X62074Y-55924D01*
X62112Y-56016D01*
X62171Y-56075D01*
X62113Y-56133D01*
X62106Y-56150D01*
X60625Y-56150D01*
X60510Y-56172D01*
X60412Y-56237D01*
X59837Y-56812D01*
X59772Y-56910D01*
X59750Y-57025D01*
X59750Y-58675D01*
X59725Y-58700D01*
X59640Y-58699D01*
X59484Y-58764D01*
X59364Y-58883D01*
X59300Y-59040D01*
X59299Y-59209D01*
X59364Y-59365D01*
X59483Y-59485D01*
X59640Y-59549D01*
X59809Y-59550D01*
X59965Y-59485D01*
X60085Y-59366D01*
X60149Y-59209D01*
X60150Y-59124D01*
X60262Y-59012D01*
X60262Y-59012D01*
X60327Y-58914D01*
X60349Y-58800D01*
X60350Y-58800D01*
X60350Y-57149D01*
X60749Y-56750D01*
X61238Y-56750D01*
X61218Y-56769D01*
X61150Y-56935D01*
X61149Y-57114D01*
X61218Y-57279D01*
X61344Y-57406D01*
X61510Y-57474D01*
X61689Y-57475D01*
X61854Y-57406D01*
X61886Y-57375D01*
X62050Y-57375D01*
X62049Y-57449D01*
X62049Y-57799D01*
X62087Y-57891D01*
X62146Y-57950D01*
X62088Y-58008D01*
X62050Y-58100D01*
X62049Y-58199D01*
X62049Y-58425D01*
X61850Y-58625D01*
X61625Y-58625D01*
X61625Y-58590D01*
X61560Y-58434D01*
X61441Y-58314D01*
X61284Y-58250D01*
X61115Y-58249D01*
X60959Y-58314D01*
X60839Y-58433D01*
X60775Y-58590D01*
X60774Y-58759D01*
X60839Y-58915D01*
X60958Y-59035D01*
X61115Y-59099D01*
X61178Y-59099D01*
X61202Y-59125D01*
X61208Y-59130D01*
X61212Y-59137D01*
X61256Y-59166D01*
X61295Y-59195D01*
X61303Y-59197D01*
X61310Y-59202D01*
X61361Y-59212D01*
X61409Y-59224D01*
X61417Y-59223D01*
X61425Y-59225D01*
X61975Y-59225D01*
X61975Y-59224D01*
X62089Y-59202D01*
X62089Y-59202D01*
X62187Y-59137D01*
X62574Y-58750D01*
X62899Y-58750D01*
X62991Y-58712D01*
X63061Y-58641D01*
X63074Y-58610D01*
X63087Y-58641D01*
X63158Y-58711D01*
X63250Y-58749D01*
X63349Y-58750D01*
X63899Y-58750D01*
X63991Y-58712D01*
X64061Y-58641D01*
X64068Y-58625D01*
X64100Y-58625D01*
X64375Y-58899D01*
X64375Y-59175D01*
X62825Y-60725D01*
X62450Y-60725D01*
X62450Y-60700D01*
X62412Y-60608D01*
X62341Y-60538D01*
X62249Y-60500D01*
X62150Y-60499D01*
X61800Y-60499D01*
X61708Y-60537D01*
X61649Y-60596D01*
X61591Y-60538D01*
X61499Y-60500D01*
X61400Y-60499D01*
X61174Y-60499D01*
X60887Y-60213D01*
X60790Y-60148D01*
X60675Y-60125D01*
X60157Y-60125D01*
X60033Y-60001D01*
X59849Y-59925D01*
X59650Y-59925D01*
X59467Y-60001D01*
X59454Y-60013D01*
X59404Y-59963D01*
X59312Y-59925D01*
X59213Y-59925D01*
X58613Y-59925D01*
X58521Y-59963D01*
X58450Y-60033D01*
X58412Y-60125D01*
X58412Y-60224D01*
X58412Y-60724D01*
X58450Y-60816D01*
X58520Y-60887D01*
X58598Y-60919D01*
X58612Y-60933D01*
X58522Y-60954D01*
X58457Y-61142D01*
X58469Y-61341D01*
X58522Y-61470D01*
X58612Y-61491D01*
X58891Y-61212D01*
X58886Y-61207D01*
X58957Y-61136D01*
X58962Y-61141D01*
X58968Y-61136D01*
X59038Y-61207D01*
X59033Y-61212D01*
X59312Y-61491D01*
X59323Y-61488D01*
X59325Y-61495D01*
X59436Y-61606D01*
X59326Y-61716D01*
X59323Y-61723D01*
X59312Y-61721D01*
X59241Y-61791D01*
X59241Y-61650D01*
X59231Y-61606D01*
X59241Y-61562D01*
X58962Y-61283D01*
X58891Y-61354D01*
X58683Y-61562D01*
X58694Y-61606D01*
X58683Y-61650D01*
X58962Y-61929D01*
X59241Y-61650D01*
X59241Y-61791D01*
X59033Y-62000D01*
X59312Y-62278D01*
X59323Y-62276D01*
X59325Y-62282D01*
X59436Y-62393D01*
X59326Y-62503D01*
X59323Y-62511D01*
X59312Y-62508D01*
X59241Y-62579D01*
X59241Y-62437D01*
X59231Y-62393D01*
X59241Y-62349D01*
X58962Y-62070D01*
X58891Y-62141D01*
X58891Y-62000D01*
X58612Y-61721D01*
X58522Y-61742D01*
X58457Y-61930D01*
X58469Y-62128D01*
X58522Y-62257D01*
X58612Y-62278D01*
X58891Y-62000D01*
X58891Y-62141D01*
X58683Y-62349D01*
X58694Y-62393D01*
X58683Y-62437D01*
X58962Y-62716D01*
X59241Y-62437D01*
X59241Y-62579D01*
X59033Y-62787D01*
X59312Y-63066D01*
X59323Y-63063D01*
X59325Y-63070D01*
X59436Y-63181D01*
X59326Y-63291D01*
X59323Y-63298D01*
X59312Y-63295D01*
X59241Y-63366D01*
X59241Y-63225D01*
X59231Y-63181D01*
X59241Y-63137D01*
X58962Y-62858D01*
X58891Y-62928D01*
X58891Y-62787D01*
X58612Y-62508D01*
X58522Y-62529D01*
X58457Y-62717D01*
X58469Y-62916D01*
X58522Y-63045D01*
X58612Y-63066D01*
X58891Y-62787D01*
X58891Y-62928D01*
X58683Y-63137D01*
X58694Y-63181D01*
X58683Y-63225D01*
X58962Y-63504D01*
X59241Y-63225D01*
X59241Y-63366D01*
X59033Y-63574D01*
X59312Y-63853D01*
X59323Y-63851D01*
X59325Y-63857D01*
X59466Y-63998D01*
X59650Y-64074D01*
X59849Y-64074D01*
X60032Y-63998D01*
X60157Y-63874D01*
X64700Y-63874D01*
X64050Y-64524D01*
X63991Y-64524D01*
X63788Y-64608D01*
X63634Y-64763D01*
X63600Y-64844D01*
X63566Y-64763D01*
X63411Y-64609D01*
X63209Y-64525D01*
X62991Y-64524D01*
X62788Y-64608D01*
X62634Y-64763D01*
X62602Y-64838D01*
X62581Y-64787D01*
X62485Y-64759D01*
X62415Y-64830D01*
X62415Y-64689D01*
X62387Y-64593D01*
X62181Y-64520D01*
X61963Y-64531D01*
X61812Y-64593D01*
X61784Y-64689D01*
X62100Y-65004D01*
X62415Y-64689D01*
X62415Y-64830D01*
X62170Y-65075D01*
X62485Y-65390D01*
X62581Y-65362D01*
X62600Y-65307D01*
X62633Y-65386D01*
X62788Y-65540D01*
X62990Y-65624D01*
X63208Y-65625D01*
X63411Y-65541D01*
X63565Y-65386D01*
X63599Y-65305D01*
X63633Y-65386D01*
X63788Y-65540D01*
X63990Y-65624D01*
X64208Y-65625D01*
X64411Y-65541D01*
X64565Y-65386D01*
X64599Y-65305D01*
X64633Y-65386D01*
X64788Y-65540D01*
X64990Y-65624D01*
X65208Y-65625D01*
X65411Y-65541D01*
X65565Y-65386D01*
X65599Y-65305D01*
X65633Y-65386D01*
X65788Y-65540D01*
X65990Y-65624D01*
X66208Y-65625D01*
X66411Y-65541D01*
X66565Y-65386D01*
X66649Y-65184D01*
X66650Y-64966D01*
X66566Y-64763D01*
X66411Y-64609D01*
X66209Y-64525D01*
X65991Y-64524D01*
X65788Y-64608D01*
X65634Y-64763D01*
X65600Y-64844D01*
X65566Y-64763D01*
X65411Y-64609D01*
X65209Y-64525D01*
X64991Y-64524D01*
X64834Y-64589D01*
X65124Y-64300D01*
X69048Y-64300D01*
X69108Y-64360D01*
X69265Y-64424D01*
X69434Y-64425D01*
X69590Y-64360D01*
X69710Y-64241D01*
X69774Y-64084D01*
X69775Y-63915D01*
X69758Y-63874D01*
X73425Y-63874D01*
X72787Y-64512D01*
X72722Y-64610D01*
X72700Y-64725D01*
X72700Y-65328D01*
X72688Y-65333D01*
X72534Y-65488D01*
X72500Y-65569D01*
X72466Y-65488D01*
X72311Y-65334D01*
X72109Y-65250D01*
X71891Y-65249D01*
X71879Y-65254D01*
X71412Y-64787D01*
X71314Y-64722D01*
X71200Y-64700D01*
X69194Y-64700D01*
X69134Y-64675D01*
X68965Y-64674D01*
X68809Y-64739D01*
X68689Y-64858D01*
X68625Y-65015D01*
X68624Y-65184D01*
X68689Y-65340D01*
X68808Y-65460D01*
X68965Y-65524D01*
X69134Y-65525D01*
X69290Y-65460D01*
X69410Y-65341D01*
X69427Y-65300D01*
X69546Y-65300D01*
X69488Y-65358D01*
X69450Y-65450D01*
X69449Y-65549D01*
X69449Y-66149D01*
X69487Y-66241D01*
X69558Y-66311D01*
X69650Y-66349D01*
X69749Y-66350D01*
X70349Y-66350D01*
X70441Y-66312D01*
X70511Y-66241D01*
X70549Y-66149D01*
X70549Y-66127D01*
X70688Y-66265D01*
X70890Y-66349D01*
X71108Y-66350D01*
X71311Y-66266D01*
X71465Y-66111D01*
X71499Y-66030D01*
X71533Y-66111D01*
X71688Y-66265D01*
X71890Y-66349D01*
X72108Y-66350D01*
X72311Y-66266D01*
X72465Y-66111D01*
X72499Y-66030D01*
X72533Y-66111D01*
X72688Y-66265D01*
X72890Y-66349D01*
X73108Y-66350D01*
X73311Y-66266D01*
X73465Y-66111D01*
X73499Y-66030D01*
X73533Y-66111D01*
X73688Y-66265D01*
X73890Y-66349D01*
X74108Y-66350D01*
X74311Y-66266D01*
X74465Y-66111D01*
X74499Y-66030D01*
X74533Y-66111D01*
X74688Y-66265D01*
X74890Y-66349D01*
X75108Y-66350D01*
X75311Y-66266D01*
X75465Y-66111D01*
X75499Y-66030D01*
X75533Y-66111D01*
X75688Y-66265D01*
X75890Y-66349D01*
X76108Y-66350D01*
X76311Y-66266D01*
X76465Y-66111D01*
X76499Y-66030D01*
X76533Y-66111D01*
X76688Y-66265D01*
X76890Y-66349D01*
X77108Y-66350D01*
X77311Y-66266D01*
X77465Y-66111D01*
X77499Y-66030D01*
X77533Y-66111D01*
X77688Y-66265D01*
X77890Y-66349D01*
X78108Y-66350D01*
X78311Y-66266D01*
X78465Y-66111D01*
X78499Y-66030D01*
X78533Y-66111D01*
X78688Y-66265D01*
X78890Y-66349D01*
X79108Y-66350D01*
X79311Y-66266D01*
X79465Y-66111D01*
X79499Y-66030D01*
X79533Y-66111D01*
X79688Y-66265D01*
X79890Y-66349D01*
X80108Y-66350D01*
X80311Y-66266D01*
X80465Y-66111D01*
X80499Y-66030D01*
X80533Y-66111D01*
X80688Y-66265D01*
X80890Y-66349D01*
X81108Y-66350D01*
X81311Y-66266D01*
X81465Y-66111D01*
X81549Y-65909D01*
X81550Y-65691D01*
X81466Y-65488D01*
X81311Y-65334D01*
X81109Y-65250D01*
X80974Y-65249D01*
X81549Y-64675D01*
X82800Y-64675D01*
X82805Y-64673D01*
X82810Y-64674D01*
X82862Y-64662D01*
X82914Y-64652D01*
X82919Y-64649D01*
X82924Y-64647D01*
X82967Y-64616D01*
X83012Y-64587D01*
X83015Y-64582D01*
X83019Y-64579D01*
X85070Y-62380D01*
X85115Y-62307D01*
X85127Y-62289D01*
X85127Y-62287D01*
X85131Y-62280D01*
X85144Y-62201D01*
X85150Y-62175D01*
X85150Y-62169D01*
X85150Y-62165D01*
X85150Y-62162D01*
X85150Y-56708D01*
X85310Y-56774D01*
X85489Y-56775D01*
X85654Y-56706D01*
X85686Y-56675D01*
X91850Y-56675D01*
X91983Y-56648D01*
X91983Y-56648D01*
X92097Y-56572D01*
X92807Y-55862D01*
X92807Y-55862D01*
X92807Y-55862D01*
X92831Y-55827D01*
X92899Y-55798D01*
X93060Y-55638D01*
X93219Y-55798D01*
X93440Y-55889D01*
X93678Y-55890D01*
X93899Y-55798D01*
X94068Y-55630D01*
X94159Y-55409D01*
X94160Y-55184D01*
X94207Y-55137D01*
X94207Y-55137D01*
X94207Y-55137D01*
X94283Y-55023D01*
X94309Y-54890D01*
X94310Y-54890D01*
X94310Y-54109D01*
X94401Y-54072D01*
X94471Y-54001D01*
X94509Y-53909D01*
X94510Y-53810D01*
X94510Y-66910D01*
X62415Y-66910D01*
X62415Y-65460D01*
X62100Y-65145D01*
X62029Y-65216D01*
X62029Y-65075D01*
X61714Y-64759D01*
X61650Y-64778D01*
X61649Y-64725D01*
X61611Y-64633D01*
X61541Y-64562D01*
X61449Y-64524D01*
X61212Y-64525D01*
X61150Y-64587D01*
X61150Y-65025D01*
X61157Y-65025D01*
X61157Y-65125D01*
X61150Y-65125D01*
X61150Y-65562D01*
X61212Y-65625D01*
X61449Y-65625D01*
X61541Y-65587D01*
X61611Y-65516D01*
X61649Y-65424D01*
X61650Y-65371D01*
X61714Y-65390D01*
X62029Y-65075D01*
X62029Y-65216D01*
X61784Y-65460D01*
X61812Y-65556D01*
X62018Y-65629D01*
X62236Y-65618D01*
X62387Y-65556D01*
X62415Y-65460D01*
X62415Y-66910D01*
X61050Y-66910D01*
X61050Y-65562D01*
X61050Y-65125D01*
X61050Y-65025D01*
X61050Y-64587D01*
X60987Y-64525D01*
X60750Y-64524D01*
X60658Y-64562D01*
X60588Y-64633D01*
X60550Y-64725D01*
X60549Y-64824D01*
X60550Y-64962D01*
X60612Y-65025D01*
X61050Y-65025D01*
X61050Y-65125D01*
X60612Y-65125D01*
X60550Y-65187D01*
X60549Y-65325D01*
X60550Y-65424D01*
X60588Y-65516D01*
X60658Y-65587D01*
X60750Y-65625D01*
X60987Y-65625D01*
X61050Y-65562D01*
X61050Y-66910D01*
X59241Y-66910D01*
X59241Y-63924D01*
X58962Y-63645D01*
X58891Y-63716D01*
X58891Y-63574D01*
X58612Y-63295D01*
X58522Y-63317D01*
X58457Y-63504D01*
X58469Y-63703D01*
X58522Y-63832D01*
X58612Y-63853D01*
X58891Y-63574D01*
X58891Y-63716D01*
X58683Y-63924D01*
X58704Y-64014D01*
X58892Y-64079D01*
X59091Y-64068D01*
X59220Y-64014D01*
X59241Y-63924D01*
X59241Y-66910D01*
X57330Y-66910D01*
X57330Y-48210D01*
X91336Y-48210D01*
X91326Y-48236D01*
X91325Y-48335D01*
X91326Y-48862D01*
X91388Y-48925D01*
X92215Y-48925D01*
X92215Y-48917D01*
X92315Y-48917D01*
X92315Y-48925D01*
X93141Y-48925D01*
X93204Y-48862D01*
X93204Y-48335D01*
X93203Y-48236D01*
X93193Y-48210D01*
X95710Y-48210D01*
X95710Y-66910D01*
X95710Y-66910D01*
G37*
G54D28*
X95710Y-66910D02*
X94510Y-66910D01*
X94510Y-53810D01*
X94510Y-53210D01*
X94472Y-53118D01*
X94401Y-53048D01*
X94385Y-53041D01*
X94385Y-51464D01*
X94385Y-50185D01*
X94384Y-50086D01*
X94346Y-49994D01*
X94276Y-49923D01*
X94184Y-49885D01*
X93558Y-49886D01*
X93496Y-49948D01*
X93496Y-50775D01*
X94322Y-50775D01*
X94385Y-50712D01*
X94385Y-50185D01*
X94385Y-51464D01*
X94385Y-50937D01*
X94322Y-50875D01*
X93496Y-50875D01*
X93496Y-51701D01*
X93558Y-51764D01*
X94184Y-51764D01*
X94276Y-51726D01*
X94346Y-51655D01*
X94384Y-51563D01*
X94385Y-51464D01*
X94385Y-53041D01*
X94310Y-53010D01*
X94310Y-52635D01*
X94283Y-52501D01*
X94207Y-52387D01*
X93872Y-52052D01*
X93758Y-51976D01*
X93625Y-51950D01*
X93396Y-51950D01*
X93396Y-51701D01*
X93396Y-50875D01*
X93396Y-50775D01*
X93396Y-49948D01*
X93333Y-49886D01*
X93071Y-49885D01*
X93095Y-49876D01*
X93165Y-49805D01*
X93203Y-49713D01*
X93204Y-49614D01*
X93204Y-49087D01*
X93141Y-49025D01*
X92315Y-49025D01*
X92315Y-49851D01*
X92377Y-49914D01*
X92639Y-49914D01*
X92615Y-49923D01*
X92545Y-49994D01*
X92507Y-50086D01*
X92506Y-50185D01*
X92507Y-50712D01*
X92569Y-50775D01*
X93396Y-50775D01*
X93396Y-50875D01*
X92569Y-50875D01*
X92507Y-50937D01*
X92506Y-51464D01*
X92507Y-51563D01*
X92545Y-51655D01*
X92615Y-51726D01*
X92707Y-51764D01*
X93333Y-51764D01*
X93396Y-51701D01*
X93396Y-51950D01*
X90644Y-51950D01*
X90459Y-51764D01*
X91822Y-51764D01*
X91914Y-51726D01*
X91984Y-51655D01*
X92022Y-51563D01*
X92023Y-51464D01*
X92023Y-50086D01*
X91985Y-49994D01*
X91914Y-49924D01*
X91890Y-49914D01*
X92152Y-49914D01*
X92215Y-49851D01*
X92215Y-49025D01*
X91388Y-49025D01*
X91326Y-49087D01*
X91325Y-49614D01*
X91326Y-49713D01*
X91364Y-49805D01*
X91434Y-49876D01*
X91458Y-49885D01*
X90345Y-49885D01*
X90253Y-49923D01*
X90183Y-49994D01*
X90145Y-50086D01*
X90144Y-50185D01*
X90144Y-50749D01*
X89947Y-50552D01*
X89833Y-50476D01*
X89700Y-50450D01*
X89652Y-50450D01*
X89552Y-50350D01*
X89574Y-50350D01*
X89666Y-50312D01*
X89736Y-50241D01*
X89774Y-50149D01*
X89775Y-50050D01*
X89775Y-49450D01*
X89737Y-49358D01*
X89666Y-49288D01*
X89574Y-49250D01*
X89475Y-49249D01*
X88875Y-49249D01*
X88783Y-49287D01*
X88713Y-49358D01*
X88675Y-49450D01*
X88674Y-49549D01*
X88674Y-50149D01*
X88712Y-50241D01*
X88783Y-50311D01*
X88875Y-50349D01*
X88897Y-50349D01*
X88759Y-50488D01*
X88675Y-50690D01*
X88674Y-50908D01*
X88758Y-51111D01*
X88913Y-51265D01*
X88994Y-51299D01*
X88913Y-51333D01*
X88759Y-51488D01*
X88675Y-51690D01*
X88674Y-51908D01*
X88758Y-52111D01*
X88913Y-52265D01*
X89115Y-52349D01*
X89333Y-52350D01*
X89536Y-52266D01*
X89690Y-52111D01*
X89731Y-52015D01*
X89752Y-52047D01*
X90252Y-52547D01*
X90366Y-52623D01*
X90366Y-52623D01*
X90500Y-52650D01*
X93480Y-52650D01*
X93610Y-52779D01*
X93610Y-53010D01*
X93518Y-53047D01*
X93448Y-53118D01*
X93410Y-53210D01*
X93409Y-53309D01*
X93409Y-53909D01*
X93447Y-54001D01*
X93518Y-54071D01*
X93610Y-54109D01*
X93610Y-54690D01*
X93441Y-54689D01*
X93220Y-54781D01*
X93059Y-54941D01*
X92900Y-54781D01*
X92830Y-54752D01*
X92830Y-54129D01*
X92921Y-54092D01*
X92991Y-54021D01*
X93029Y-53929D01*
X93030Y-53830D01*
X93030Y-53230D01*
X92992Y-53138D01*
X92921Y-53068D01*
X92829Y-53030D01*
X92730Y-53029D01*
X92130Y-53029D01*
X92038Y-53067D01*
X91968Y-53138D01*
X91930Y-53230D01*
X91930Y-53250D01*
X91889Y-53250D01*
X91862Y-53183D01*
X91791Y-53113D01*
X91699Y-53075D01*
X91600Y-53074D01*
X91250Y-53074D01*
X91158Y-53112D01*
X91099Y-53171D01*
X91041Y-53113D01*
X90949Y-53075D01*
X90850Y-53074D01*
X90500Y-53074D01*
X90408Y-53112D01*
X90338Y-53183D01*
X90300Y-53275D01*
X90299Y-53374D01*
X90299Y-53924D01*
X90337Y-54016D01*
X90375Y-54053D01*
X90375Y-54455D01*
X90401Y-54588D01*
X90477Y-54702D01*
X90715Y-54940D01*
X90434Y-54940D01*
X90025Y-54530D01*
X90025Y-54053D01*
X90061Y-54016D01*
X90099Y-53924D01*
X90100Y-53825D01*
X90100Y-53275D01*
X90062Y-53183D01*
X89991Y-53113D01*
X89899Y-53075D01*
X89800Y-53074D01*
X89450Y-53074D01*
X89358Y-53112D01*
X89300Y-53171D01*
X89241Y-53112D01*
X89149Y-53074D01*
X89037Y-53075D01*
X88975Y-53137D01*
X88975Y-53550D01*
X88982Y-53550D01*
X88982Y-53650D01*
X88975Y-53650D01*
X88975Y-54062D01*
X89037Y-54125D01*
X89149Y-54125D01*
X89241Y-54087D01*
X89300Y-54028D01*
X89325Y-54053D01*
X89325Y-54675D01*
X89351Y-54808D01*
X89427Y-54922D01*
X90042Y-55537D01*
X90156Y-55613D01*
X90156Y-55613D01*
X90290Y-55640D01*
X90959Y-55640D01*
X90959Y-55689D01*
X90997Y-55781D01*
X91068Y-55851D01*
X91160Y-55889D01*
X91259Y-55890D01*
X91789Y-55890D01*
X91705Y-55975D01*
X88875Y-55975D01*
X88875Y-54062D01*
X88875Y-53650D01*
X88875Y-53550D01*
X88875Y-53137D01*
X88812Y-53075D01*
X88700Y-53074D01*
X88608Y-53112D01*
X88538Y-53183D01*
X88500Y-53275D01*
X88499Y-53374D01*
X88500Y-53487D01*
X88562Y-53550D01*
X88875Y-53550D01*
X88875Y-53650D01*
X88562Y-53650D01*
X88500Y-53712D01*
X88499Y-53825D01*
X88500Y-53924D01*
X88538Y-54016D01*
X88608Y-54087D01*
X88700Y-54125D01*
X88812Y-54125D01*
X88875Y-54062D01*
X88875Y-55975D01*
X85686Y-55975D01*
X85655Y-55943D01*
X85489Y-55875D01*
X85310Y-55874D01*
X85150Y-55941D01*
X85150Y-50740D01*
X85150Y-50739D01*
X85150Y-50737D01*
X85150Y-50725D01*
X85142Y-50688D01*
X85133Y-50623D01*
X85128Y-50615D01*
X85127Y-50610D01*
X85108Y-50581D01*
X85073Y-50523D01*
X84147Y-49498D01*
X84141Y-49494D01*
X84137Y-49487D01*
X84094Y-49459D01*
X84053Y-49428D01*
X84046Y-49427D01*
X84039Y-49422D01*
X83989Y-49412D01*
X83940Y-49400D01*
X83932Y-49401D01*
X83925Y-49400D01*
X82655Y-49400D01*
X82534Y-49350D01*
X82365Y-49349D01*
X82209Y-49414D01*
X82089Y-49533D01*
X82025Y-49690D01*
X82024Y-49859D01*
X82062Y-49950D01*
X81149Y-49950D01*
X81024Y-49825D01*
X81399Y-49825D01*
X81491Y-49787D01*
X81561Y-49716D01*
X81599Y-49624D01*
X81600Y-49525D01*
X81600Y-48925D01*
X81562Y-48833D01*
X81491Y-48763D01*
X81399Y-48725D01*
X81300Y-48724D01*
X80700Y-48724D01*
X80608Y-48762D01*
X80538Y-48833D01*
X80500Y-48925D01*
X80500Y-48947D01*
X80361Y-48809D01*
X80159Y-48725D01*
X79941Y-48724D01*
X79738Y-48808D01*
X79584Y-48963D01*
X79550Y-49044D01*
X79516Y-48963D01*
X79361Y-48809D01*
X79159Y-48725D01*
X78941Y-48724D01*
X78738Y-48808D01*
X78584Y-48963D01*
X78550Y-49044D01*
X78516Y-48963D01*
X78361Y-48809D01*
X78159Y-48725D01*
X77941Y-48724D01*
X77738Y-48808D01*
X77584Y-48963D01*
X77550Y-49044D01*
X77516Y-48963D01*
X77361Y-48809D01*
X77159Y-48725D01*
X76941Y-48724D01*
X76738Y-48808D01*
X76584Y-48963D01*
X76550Y-49044D01*
X76516Y-48963D01*
X76361Y-48809D01*
X76159Y-48725D01*
X75941Y-48724D01*
X75738Y-48808D01*
X75584Y-48963D01*
X75550Y-49044D01*
X75516Y-48963D01*
X75361Y-48809D01*
X75159Y-48725D01*
X74941Y-48724D01*
X74738Y-48808D01*
X74584Y-48963D01*
X74550Y-49044D01*
X74516Y-48963D01*
X74361Y-48809D01*
X74159Y-48725D01*
X73941Y-48724D01*
X73738Y-48808D01*
X73584Y-48963D01*
X73550Y-49044D01*
X73516Y-48963D01*
X73361Y-48809D01*
X73159Y-48725D01*
X72941Y-48724D01*
X72738Y-48808D01*
X72584Y-48963D01*
X72550Y-49044D01*
X72516Y-48963D01*
X72361Y-48809D01*
X72159Y-48725D01*
X71941Y-48724D01*
X71738Y-48808D01*
X71584Y-48963D01*
X71550Y-49044D01*
X71516Y-48963D01*
X71361Y-48809D01*
X71159Y-48725D01*
X70941Y-48724D01*
X70738Y-48808D01*
X70584Y-48963D01*
X70550Y-49044D01*
X70516Y-48963D01*
X70361Y-48809D01*
X70159Y-48725D01*
X69941Y-48724D01*
X69738Y-48808D01*
X69584Y-48963D01*
X69500Y-49165D01*
X69499Y-49383D01*
X69583Y-49586D01*
X69738Y-49740D01*
X69940Y-49824D01*
X70158Y-49825D01*
X70361Y-49741D01*
X70515Y-49586D01*
X70549Y-49505D01*
X70583Y-49586D01*
X70738Y-49740D01*
X70940Y-49824D01*
X71158Y-49825D01*
X71361Y-49741D01*
X71515Y-49586D01*
X71549Y-49505D01*
X71583Y-49586D01*
X71738Y-49740D01*
X71940Y-49824D01*
X72158Y-49825D01*
X72361Y-49741D01*
X72515Y-49586D01*
X72549Y-49505D01*
X72583Y-49586D01*
X72738Y-49740D01*
X72750Y-49745D01*
X72750Y-49900D01*
X72075Y-50575D01*
X70726Y-50575D01*
X70691Y-50539D01*
X70534Y-50475D01*
X70365Y-50474D01*
X70209Y-50539D01*
X70089Y-50658D01*
X70025Y-50815D01*
X70024Y-50984D01*
X70089Y-51140D01*
X70208Y-51260D01*
X70365Y-51324D01*
X70534Y-51325D01*
X70690Y-51260D01*
X70776Y-51175D01*
X72200Y-51175D01*
X72200Y-51174D01*
X72314Y-51152D01*
X72314Y-51152D01*
X72412Y-51087D01*
X73262Y-50237D01*
X73327Y-50139D01*
X73349Y-50025D01*
X73350Y-50025D01*
X73350Y-49746D01*
X73361Y-49741D01*
X73515Y-49586D01*
X73549Y-49505D01*
X73583Y-49586D01*
X73738Y-49740D01*
X73940Y-49824D01*
X74158Y-49825D01*
X74361Y-49741D01*
X74515Y-49586D01*
X74549Y-49505D01*
X74583Y-49586D01*
X74738Y-49740D01*
X74940Y-49824D01*
X75158Y-49825D01*
X75361Y-49741D01*
X75515Y-49586D01*
X75549Y-49505D01*
X75583Y-49586D01*
X75738Y-49740D01*
X75940Y-49824D01*
X76158Y-49825D01*
X76361Y-49741D01*
X76515Y-49586D01*
X76549Y-49505D01*
X76583Y-49586D01*
X76738Y-49740D01*
X76750Y-49745D01*
X76750Y-50625D01*
X76772Y-50739D01*
X76837Y-50837D01*
X77137Y-51137D01*
X77137Y-51137D01*
X77235Y-51202D01*
X77349Y-51224D01*
X77350Y-51225D01*
X79448Y-51225D01*
X79508Y-51285D01*
X79665Y-51349D01*
X79834Y-51350D01*
X79990Y-51285D01*
X80110Y-51166D01*
X80174Y-51009D01*
X80175Y-50840D01*
X80110Y-50684D01*
X79991Y-50564D01*
X79834Y-50500D01*
X79665Y-50499D01*
X79509Y-50564D01*
X79448Y-50625D01*
X77474Y-50625D01*
X77350Y-50500D01*
X77350Y-49746D01*
X77361Y-49741D01*
X77515Y-49586D01*
X77549Y-49505D01*
X77583Y-49586D01*
X77738Y-49740D01*
X77940Y-49824D01*
X78158Y-49825D01*
X78361Y-49741D01*
X78515Y-49586D01*
X78549Y-49505D01*
X78583Y-49586D01*
X78738Y-49740D01*
X78940Y-49824D01*
X79158Y-49825D01*
X79361Y-49741D01*
X79515Y-49586D01*
X79549Y-49505D01*
X79583Y-49586D01*
X79738Y-49740D01*
X79940Y-49824D01*
X80158Y-49825D01*
X80170Y-49820D01*
X80812Y-50462D01*
X80812Y-50462D01*
X80910Y-50527D01*
X81024Y-50549D01*
X81025Y-50550D01*
X83475Y-50550D01*
X84050Y-51124D01*
X84050Y-61300D01*
X83825Y-61525D01*
X83150Y-61525D01*
X83150Y-61500D01*
X83112Y-61408D01*
X83041Y-61338D01*
X82949Y-61300D01*
X82850Y-61299D01*
X82500Y-61299D01*
X82408Y-61337D01*
X82349Y-61396D01*
X82300Y-61346D01*
X82300Y-60342D01*
X82444Y-60197D01*
X82500Y-60064D01*
X82554Y-60197D01*
X82702Y-60344D01*
X82895Y-60424D01*
X83103Y-60425D01*
X83297Y-60345D01*
X83444Y-60197D01*
X83524Y-60004D01*
X83525Y-59796D01*
X83445Y-59603D01*
X83297Y-59455D01*
X83104Y-59375D01*
X82896Y-59374D01*
X82703Y-59454D01*
X82555Y-59602D01*
X82499Y-59735D01*
X82445Y-59603D01*
X82297Y-59455D01*
X82104Y-59375D01*
X81896Y-59374D01*
X81703Y-59454D01*
X81555Y-59602D01*
X81499Y-59735D01*
X81445Y-59603D01*
X81297Y-59455D01*
X81104Y-59375D01*
X80896Y-59374D01*
X80703Y-59454D01*
X80555Y-59602D01*
X80499Y-59735D01*
X80445Y-59603D01*
X80297Y-59455D01*
X80104Y-59375D01*
X79896Y-59374D01*
X79703Y-59454D01*
X79555Y-59602D01*
X79499Y-59735D01*
X79445Y-59603D01*
X79297Y-59455D01*
X79104Y-59375D01*
X78896Y-59374D01*
X78703Y-59454D01*
X78555Y-59602D01*
X78499Y-59735D01*
X78445Y-59603D01*
X78297Y-59455D01*
X78104Y-59375D01*
X77896Y-59374D01*
X77703Y-59454D01*
X77555Y-59602D01*
X77502Y-59728D01*
X77460Y-59627D01*
X77367Y-59602D01*
X77297Y-59673D01*
X77297Y-59532D01*
X77281Y-59470D01*
X77281Y-58945D01*
X77281Y-58454D01*
X77280Y-58355D01*
X77242Y-58263D01*
X77172Y-58192D01*
X77080Y-58154D01*
X76887Y-58155D01*
X76825Y-58217D01*
X76825Y-58650D01*
X77218Y-58650D01*
X77281Y-58587D01*
X77281Y-58454D01*
X77281Y-58945D01*
X77281Y-58812D01*
X77218Y-58750D01*
X76825Y-58750D01*
X76825Y-59182D01*
X76887Y-59245D01*
X77080Y-59245D01*
X77172Y-59207D01*
X77242Y-59136D01*
X77280Y-59044D01*
X77281Y-58945D01*
X77281Y-59470D01*
X77272Y-59439D01*
X77075Y-59370D01*
X76867Y-59381D01*
X76727Y-59439D01*
X76702Y-59532D01*
X77000Y-59829D01*
X77297Y-59532D01*
X77297Y-59673D01*
X77070Y-59900D01*
X77367Y-60197D01*
X77460Y-60172D01*
X77499Y-60062D01*
X77554Y-60197D01*
X77657Y-60300D01*
X77288Y-60300D01*
X77297Y-60267D01*
X77000Y-59970D01*
X76702Y-60267D01*
X76711Y-60300D01*
X76342Y-60300D01*
X76444Y-60197D01*
X76497Y-60071D01*
X76539Y-60172D01*
X76632Y-60197D01*
X76929Y-59900D01*
X76632Y-59602D01*
X76539Y-59627D01*
X76500Y-59737D01*
X76445Y-59603D01*
X76350Y-59507D01*
X76350Y-59236D01*
X76400Y-59216D01*
X76469Y-59245D01*
X76662Y-59245D01*
X76725Y-59182D01*
X76725Y-58750D01*
X76717Y-58750D01*
X76717Y-58650D01*
X76725Y-58650D01*
X76725Y-58217D01*
X76662Y-58155D01*
X76469Y-58154D01*
X76399Y-58183D01*
X76390Y-58179D01*
X76444Y-58125D01*
X77375Y-58125D01*
X77508Y-58098D01*
X77508Y-58098D01*
X77622Y-58022D01*
X78172Y-57472D01*
X78248Y-57358D01*
X78275Y-57225D01*
X78275Y-56586D01*
X78306Y-56555D01*
X78374Y-56389D01*
X78375Y-56210D01*
X78306Y-56045D01*
X78180Y-55918D01*
X78014Y-55850D01*
X77970Y-55850D01*
X77481Y-55361D01*
X77481Y-54855D01*
X77443Y-54763D01*
X77372Y-54693D01*
X77350Y-54683D01*
X77350Y-54292D01*
X77444Y-54197D01*
X77500Y-54064D01*
X77554Y-54197D01*
X77702Y-54344D01*
X77895Y-54424D01*
X78103Y-54425D01*
X78297Y-54345D01*
X78444Y-54197D01*
X78500Y-54064D01*
X78554Y-54197D01*
X78702Y-54344D01*
X78895Y-54424D01*
X79103Y-54425D01*
X79297Y-54345D01*
X79444Y-54197D01*
X79500Y-54064D01*
X79554Y-54197D01*
X79702Y-54344D01*
X79895Y-54424D01*
X80103Y-54425D01*
X80297Y-54345D01*
X80444Y-54197D01*
X80500Y-54064D01*
X80554Y-54197D01*
X80702Y-54344D01*
X80895Y-54424D01*
X81103Y-54425D01*
X81297Y-54345D01*
X81444Y-54197D01*
X81500Y-54064D01*
X81554Y-54197D01*
X81702Y-54344D01*
X81895Y-54424D01*
X82103Y-54425D01*
X82297Y-54345D01*
X82444Y-54197D01*
X82474Y-54125D01*
X82474Y-54224D01*
X82512Y-54316D01*
X82583Y-54386D01*
X82675Y-54424D01*
X82774Y-54425D01*
X83324Y-54425D01*
X83416Y-54387D01*
X83486Y-54316D01*
X83524Y-54224D01*
X83525Y-54125D01*
X83525Y-53575D01*
X83487Y-53483D01*
X83416Y-53413D01*
X83324Y-53375D01*
X83225Y-53374D01*
X82675Y-53374D01*
X82583Y-53412D01*
X82513Y-53483D01*
X82475Y-53575D01*
X82474Y-53674D01*
X82474Y-53674D01*
X82445Y-53603D01*
X82297Y-53455D01*
X82104Y-53375D01*
X81896Y-53374D01*
X81703Y-53454D01*
X81555Y-53602D01*
X81499Y-53735D01*
X81445Y-53603D01*
X81297Y-53455D01*
X81104Y-53375D01*
X80896Y-53374D01*
X80825Y-53404D01*
X80825Y-52940D01*
X80760Y-52784D01*
X80641Y-52664D01*
X80484Y-52600D01*
X80315Y-52599D01*
X80159Y-52664D01*
X80098Y-52725D01*
X67601Y-52725D01*
X67591Y-52714D01*
X67434Y-52650D01*
X67265Y-52649D01*
X67109Y-52714D01*
X66989Y-52833D01*
X66925Y-52990D01*
X66924Y-53159D01*
X66989Y-53315D01*
X67108Y-53435D01*
X67265Y-53499D01*
X67434Y-53500D01*
X67590Y-53435D01*
X67701Y-53325D01*
X80098Y-53325D01*
X80158Y-53385D01*
X80315Y-53449D01*
X80484Y-53450D01*
X80640Y-53385D01*
X80760Y-53266D01*
X80824Y-53109D01*
X80825Y-52940D01*
X80825Y-53404D01*
X80703Y-53454D01*
X80555Y-53602D01*
X80499Y-53735D01*
X80445Y-53603D01*
X80297Y-53455D01*
X80104Y-53375D01*
X79896Y-53374D01*
X79703Y-53454D01*
X79555Y-53602D01*
X79499Y-53735D01*
X79445Y-53603D01*
X79297Y-53455D01*
X79104Y-53375D01*
X78896Y-53374D01*
X78703Y-53454D01*
X78555Y-53602D01*
X78499Y-53735D01*
X78445Y-53603D01*
X78297Y-53455D01*
X78104Y-53375D01*
X77896Y-53374D01*
X77703Y-53454D01*
X77555Y-53602D01*
X77499Y-53735D01*
X77445Y-53603D01*
X77297Y-53455D01*
X77104Y-53375D01*
X76896Y-53374D01*
X76703Y-53454D01*
X76555Y-53602D01*
X76502Y-53728D01*
X76460Y-53627D01*
X76367Y-53602D01*
X76297Y-53673D01*
X76297Y-53532D01*
X76272Y-53439D01*
X76075Y-53370D01*
X75867Y-53381D01*
X75727Y-53439D01*
X75702Y-53532D01*
X76000Y-53829D01*
X76297Y-53532D01*
X76297Y-53673D01*
X76070Y-53900D01*
X76367Y-54197D01*
X76460Y-54172D01*
X76499Y-54062D01*
X76554Y-54197D01*
X76650Y-54292D01*
X76650Y-54663D01*
X76600Y-54683D01*
X76530Y-54654D01*
X76337Y-54655D01*
X76297Y-54695D01*
X76297Y-54267D01*
X76000Y-53970D01*
X75929Y-54041D01*
X75929Y-53900D01*
X75632Y-53602D01*
X75539Y-53627D01*
X75500Y-53737D01*
X75445Y-53603D01*
X75297Y-53455D01*
X75104Y-53375D01*
X74896Y-53374D01*
X74703Y-53454D01*
X74555Y-53602D01*
X74499Y-53735D01*
X74445Y-53603D01*
X74297Y-53455D01*
X74104Y-53375D01*
X73896Y-53374D01*
X73703Y-53454D01*
X73555Y-53602D01*
X73499Y-53735D01*
X73445Y-53603D01*
X73297Y-53455D01*
X73104Y-53375D01*
X72896Y-53374D01*
X72703Y-53454D01*
X72555Y-53602D01*
X72499Y-53735D01*
X72445Y-53603D01*
X72297Y-53455D01*
X72104Y-53375D01*
X71896Y-53374D01*
X71703Y-53454D01*
X71555Y-53602D01*
X71499Y-53735D01*
X71445Y-53603D01*
X71297Y-53455D01*
X71104Y-53375D01*
X70896Y-53374D01*
X70703Y-53454D01*
X70555Y-53602D01*
X70499Y-53735D01*
X70445Y-53603D01*
X70297Y-53455D01*
X70104Y-53375D01*
X69896Y-53374D01*
X69703Y-53454D01*
X69555Y-53602D01*
X69475Y-53795D01*
X69474Y-54003D01*
X69554Y-54197D01*
X69702Y-54344D01*
X69895Y-54424D01*
X70103Y-54425D01*
X70297Y-54345D01*
X70444Y-54197D01*
X70500Y-54064D01*
X70554Y-54197D01*
X70702Y-54344D01*
X70895Y-54424D01*
X71103Y-54425D01*
X71297Y-54345D01*
X71444Y-54197D01*
X71500Y-54064D01*
X71554Y-54197D01*
X71702Y-54344D01*
X71895Y-54424D01*
X72103Y-54425D01*
X72297Y-54345D01*
X72444Y-54197D01*
X72500Y-54064D01*
X72554Y-54197D01*
X72702Y-54344D01*
X72895Y-54424D01*
X73103Y-54425D01*
X73297Y-54345D01*
X73444Y-54197D01*
X73500Y-54064D01*
X73554Y-54197D01*
X73702Y-54344D01*
X73895Y-54424D01*
X74103Y-54425D01*
X74297Y-54345D01*
X74444Y-54197D01*
X74500Y-54064D01*
X74554Y-54197D01*
X74702Y-54344D01*
X74895Y-54424D01*
X75103Y-54425D01*
X75297Y-54345D01*
X75444Y-54197D01*
X75497Y-54071D01*
X75539Y-54172D01*
X75632Y-54197D01*
X75929Y-53900D01*
X75929Y-54041D01*
X75702Y-54267D01*
X75727Y-54360D01*
X75924Y-54429D01*
X76132Y-54418D01*
X76272Y-54360D01*
X76297Y-54267D01*
X76297Y-54695D01*
X76275Y-54717D01*
X76275Y-55150D01*
X76282Y-55150D01*
X76282Y-55250D01*
X76275Y-55250D01*
X76275Y-55682D01*
X76337Y-55745D01*
X76530Y-55745D01*
X76600Y-55716D01*
X76669Y-55744D01*
X76768Y-55745D01*
X76875Y-55745D01*
X77474Y-56344D01*
X77474Y-56380D01*
X77180Y-56675D01*
X76175Y-56675D01*
X76175Y-55682D01*
X76175Y-55250D01*
X76175Y-55150D01*
X76175Y-54717D01*
X76112Y-54655D01*
X75919Y-54654D01*
X75827Y-54692D01*
X75757Y-54763D01*
X75719Y-54855D01*
X75718Y-54954D01*
X75719Y-55087D01*
X75781Y-55150D01*
X76175Y-55150D01*
X76175Y-55250D01*
X75781Y-55250D01*
X75719Y-55312D01*
X75718Y-55445D01*
X75719Y-55544D01*
X75757Y-55636D01*
X75827Y-55707D01*
X75919Y-55745D01*
X76112Y-55745D01*
X76175Y-55682D01*
X76175Y-56675D01*
X68127Y-56675D01*
X68174Y-56559D01*
X68175Y-56390D01*
X68110Y-56234D01*
X67991Y-56114D01*
X67834Y-56050D01*
X67818Y-56050D01*
X67824Y-56034D01*
X67825Y-55865D01*
X67760Y-55709D01*
X67641Y-55589D01*
X67484Y-55525D01*
X67399Y-55524D01*
X67387Y-55512D01*
X67289Y-55447D01*
X67175Y-55425D01*
X64079Y-55425D01*
X64062Y-55383D01*
X63991Y-55313D01*
X63899Y-55275D01*
X63800Y-55274D01*
X63250Y-55274D01*
X63158Y-55312D01*
X63088Y-55383D01*
X63087Y-55384D01*
X63087Y-55383D01*
X63016Y-55313D01*
X62924Y-55275D01*
X62900Y-55275D01*
X62900Y-51868D01*
X63035Y-51924D01*
X63243Y-51925D01*
X63437Y-51845D01*
X63582Y-51700D01*
X64150Y-51700D01*
X64187Y-51791D01*
X64258Y-51861D01*
X64350Y-51899D01*
X64449Y-51900D01*
X64999Y-51900D01*
X65091Y-51862D01*
X65161Y-51791D01*
X65199Y-51700D01*
X65697Y-51700D01*
X65842Y-51844D01*
X66035Y-51924D01*
X66243Y-51925D01*
X66437Y-51845D01*
X66584Y-51697D01*
X66664Y-51504D01*
X66665Y-51296D01*
X66585Y-51103D01*
X66437Y-50955D01*
X66244Y-50875D01*
X66036Y-50874D01*
X65843Y-50954D01*
X65697Y-51100D01*
X65103Y-51100D01*
X65162Y-51041D01*
X65200Y-50949D01*
X65200Y-50837D01*
X65137Y-50775D01*
X64725Y-50775D01*
X64725Y-50782D01*
X64625Y-50782D01*
X64625Y-50775D01*
X64212Y-50775D01*
X64150Y-50837D01*
X64149Y-50949D01*
X64187Y-51041D01*
X64246Y-51100D01*
X63582Y-51100D01*
X63437Y-50955D01*
X63244Y-50875D01*
X63036Y-50874D01*
X62900Y-50931D01*
X62900Y-50049D01*
X63027Y-49921D01*
X63035Y-49924D01*
X63200Y-49925D01*
X63437Y-50162D01*
X63437Y-50162D01*
X63535Y-50227D01*
X63650Y-50250D01*
X64154Y-50250D01*
X64154Y-50255D01*
X64192Y-50347D01*
X64220Y-50375D01*
X64187Y-50408D01*
X64149Y-50500D01*
X64150Y-50612D01*
X64212Y-50675D01*
X64625Y-50675D01*
X64625Y-50667D01*
X64725Y-50667D01*
X64725Y-50675D01*
X65137Y-50675D01*
X65200Y-50612D01*
X65200Y-50500D01*
X65162Y-50408D01*
X65154Y-50400D01*
X65206Y-50347D01*
X65244Y-50255D01*
X65244Y-50250D01*
X65590Y-50250D01*
X65590Y-50249D01*
X65704Y-50227D01*
X65704Y-50227D01*
X65802Y-50162D01*
X66039Y-49924D01*
X66243Y-49925D01*
X66437Y-49845D01*
X66584Y-49697D01*
X66664Y-49504D01*
X66665Y-49296D01*
X66585Y-49103D01*
X66437Y-48955D01*
X66244Y-48875D01*
X66036Y-48874D01*
X65843Y-48954D01*
X65695Y-49102D01*
X65615Y-49295D01*
X65614Y-49500D01*
X65465Y-49650D01*
X65245Y-49650D01*
X65245Y-49644D01*
X65216Y-49575D01*
X65245Y-49505D01*
X65245Y-48894D01*
X65207Y-48802D01*
X65136Y-48732D01*
X65044Y-48694D01*
X64945Y-48693D01*
X64812Y-48694D01*
X64750Y-48756D01*
X64750Y-49150D01*
X65182Y-49150D01*
X65245Y-49087D01*
X65245Y-48894D01*
X65245Y-49505D01*
X65245Y-49312D01*
X65182Y-49250D01*
X64750Y-49250D01*
X64750Y-49257D01*
X64650Y-49257D01*
X64650Y-49250D01*
X64650Y-49150D01*
X64650Y-48756D01*
X64587Y-48694D01*
X64454Y-48693D01*
X64355Y-48694D01*
X64263Y-48732D01*
X64192Y-48802D01*
X64154Y-48894D01*
X64155Y-49087D01*
X64217Y-49150D01*
X64650Y-49150D01*
X64650Y-49250D01*
X64217Y-49250D01*
X64155Y-49312D01*
X64154Y-49505D01*
X64183Y-49575D01*
X64155Y-49644D01*
X64155Y-49650D01*
X63774Y-49650D01*
X63654Y-49530D01*
X63664Y-49504D01*
X63665Y-49296D01*
X63585Y-49103D01*
X63437Y-48955D01*
X63244Y-48875D01*
X63036Y-48874D01*
X62843Y-48954D01*
X62695Y-49102D01*
X62615Y-49295D01*
X62614Y-49485D01*
X62387Y-49712D01*
X62322Y-49810D01*
X62300Y-49925D01*
X62300Y-55274D01*
X62275Y-55274D01*
X62183Y-55312D01*
X62175Y-55321D01*
X62175Y-51321D01*
X62175Y-49321D01*
X62095Y-49128D01*
X61947Y-48980D01*
X61754Y-48900D01*
X61546Y-48899D01*
X61353Y-48979D01*
X61205Y-49127D01*
X61125Y-49320D01*
X61124Y-49525D01*
X61025Y-49625D01*
X60745Y-49625D01*
X60745Y-49619D01*
X60716Y-49550D01*
X60745Y-49480D01*
X60745Y-48869D01*
X60707Y-48777D01*
X60636Y-48707D01*
X60544Y-48669D01*
X60445Y-48668D01*
X60312Y-48669D01*
X60250Y-48731D01*
X60250Y-49125D01*
X60682Y-49125D01*
X60745Y-49062D01*
X60745Y-48869D01*
X60745Y-49480D01*
X60745Y-49287D01*
X60682Y-49225D01*
X60250Y-49225D01*
X60250Y-49232D01*
X60150Y-49232D01*
X60150Y-49225D01*
X60150Y-49125D01*
X60150Y-48731D01*
X60087Y-48669D01*
X59954Y-48668D01*
X59855Y-48669D01*
X59763Y-48707D01*
X59692Y-48777D01*
X59654Y-48869D01*
X59655Y-49062D01*
X59717Y-49125D01*
X60150Y-49125D01*
X60150Y-49225D01*
X59717Y-49225D01*
X59655Y-49287D01*
X59654Y-49480D01*
X59683Y-49550D01*
X59655Y-49619D01*
X59655Y-49625D01*
X59274Y-49625D01*
X59174Y-49525D01*
X59175Y-49321D01*
X59095Y-49128D01*
X58947Y-48980D01*
X58754Y-48900D01*
X58546Y-48899D01*
X58353Y-48979D01*
X58205Y-49127D01*
X58125Y-49320D01*
X58124Y-49528D01*
X58204Y-49722D01*
X58352Y-49869D01*
X58545Y-49949D01*
X58750Y-49950D01*
X58937Y-50137D01*
X58937Y-50137D01*
X59035Y-50202D01*
X59150Y-50225D01*
X59654Y-50225D01*
X59654Y-50230D01*
X59692Y-50322D01*
X59763Y-50392D01*
X59855Y-50430D01*
X59860Y-50430D01*
X59783Y-50463D01*
X59712Y-50533D01*
X59674Y-50625D01*
X59675Y-50737D01*
X59737Y-50800D01*
X60150Y-50800D01*
X60150Y-50792D01*
X60250Y-50792D01*
X60250Y-50800D01*
X60662Y-50800D01*
X60725Y-50737D01*
X60725Y-50625D01*
X60687Y-50533D01*
X60616Y-50463D01*
X60539Y-50431D01*
X60544Y-50431D01*
X60636Y-50393D01*
X60706Y-50322D01*
X60744Y-50230D01*
X60744Y-50225D01*
X61150Y-50225D01*
X61150Y-50224D01*
X61264Y-50202D01*
X61264Y-50202D01*
X61362Y-50137D01*
X61549Y-49949D01*
X61753Y-49950D01*
X61947Y-49870D01*
X62094Y-49722D01*
X62174Y-49529D01*
X62175Y-49321D01*
X62175Y-51321D01*
X62095Y-51128D01*
X61947Y-50980D01*
X61754Y-50900D01*
X61546Y-50899D01*
X61353Y-50979D01*
X61205Y-51127D01*
X61133Y-51300D01*
X60693Y-51300D01*
X60687Y-51283D01*
X60628Y-51225D01*
X60687Y-51166D01*
X60725Y-51074D01*
X60725Y-50962D01*
X60662Y-50900D01*
X60250Y-50900D01*
X60250Y-50907D01*
X60150Y-50907D01*
X60150Y-50900D01*
X59737Y-50900D01*
X59675Y-50962D01*
X59674Y-51074D01*
X59712Y-51166D01*
X59771Y-51225D01*
X59713Y-51283D01*
X59706Y-51300D01*
X59166Y-51300D01*
X59095Y-51128D01*
X58947Y-50980D01*
X58754Y-50900D01*
X58546Y-50899D01*
X58353Y-50979D01*
X58205Y-51127D01*
X58125Y-51320D01*
X58124Y-51528D01*
X58204Y-51722D01*
X58352Y-51869D01*
X58545Y-51949D01*
X58753Y-51950D01*
X58875Y-51900D01*
X59706Y-51900D01*
X59712Y-51916D01*
X59783Y-51986D01*
X59875Y-52024D01*
X59974Y-52025D01*
X60524Y-52025D01*
X60616Y-51987D01*
X60686Y-51916D01*
X60693Y-51900D01*
X61424Y-51900D01*
X61545Y-51949D01*
X61753Y-51950D01*
X61947Y-51870D01*
X62094Y-51722D01*
X62174Y-51529D01*
X62175Y-51321D01*
X62175Y-55321D01*
X62113Y-55383D01*
X62075Y-55475D01*
X62074Y-55574D01*
X62074Y-55924D01*
X62112Y-56016D01*
X62171Y-56075D01*
X62113Y-56133D01*
X62106Y-56150D01*
X60625Y-56150D01*
X60510Y-56172D01*
X60412Y-56237D01*
X59837Y-56812D01*
X59772Y-56910D01*
X59750Y-57025D01*
X59750Y-58675D01*
X59725Y-58700D01*
X59640Y-58699D01*
X59484Y-58764D01*
X59364Y-58883D01*
X59300Y-59040D01*
X59299Y-59209D01*
X59364Y-59365D01*
X59483Y-59485D01*
X59640Y-59549D01*
X59809Y-59550D01*
X59965Y-59485D01*
X60085Y-59366D01*
X60149Y-59209D01*
X60150Y-59124D01*
X60262Y-59012D01*
X60262Y-59012D01*
X60327Y-58914D01*
X60349Y-58800D01*
X60350Y-58800D01*
X60350Y-57149D01*
X60749Y-56750D01*
X61238Y-56750D01*
X61218Y-56769D01*
X61150Y-56935D01*
X61149Y-57114D01*
X61218Y-57279D01*
X61344Y-57406D01*
X61510Y-57474D01*
X61689Y-57475D01*
X61854Y-57406D01*
X61886Y-57375D01*
X62050Y-57375D01*
X62049Y-57449D01*
X62049Y-57799D01*
X62087Y-57891D01*
X62146Y-57950D01*
X62088Y-58008D01*
X62050Y-58100D01*
X62049Y-58199D01*
X62049Y-58425D01*
X61850Y-58625D01*
X61625Y-58625D01*
X61625Y-58590D01*
X61560Y-58434D01*
X61441Y-58314D01*
X61284Y-58250D01*
X61115Y-58249D01*
X60959Y-58314D01*
X60839Y-58433D01*
X60775Y-58590D01*
X60774Y-58759D01*
X60839Y-58915D01*
X60958Y-59035D01*
X61115Y-59099D01*
X61178Y-59099D01*
X61202Y-59125D01*
X61208Y-59130D01*
X61212Y-59137D01*
X61256Y-59166D01*
X61295Y-59195D01*
X61303Y-59197D01*
X61310Y-59202D01*
X61361Y-59212D01*
X61409Y-59224D01*
X61417Y-59223D01*
X61425Y-59225D01*
X61975Y-59225D01*
X61975Y-59224D01*
X62089Y-59202D01*
X62089Y-59202D01*
X62187Y-59137D01*
X62574Y-58750D01*
X62899Y-58750D01*
X62991Y-58712D01*
X63061Y-58641D01*
X63074Y-58610D01*
X63087Y-58641D01*
X63158Y-58711D01*
X63250Y-58749D01*
X63349Y-58750D01*
X63899Y-58750D01*
X63991Y-58712D01*
X64061Y-58641D01*
X64068Y-58625D01*
X64100Y-58625D01*
X64375Y-58899D01*
X64375Y-59175D01*
X62825Y-60725D01*
X62450Y-60725D01*
X62450Y-60700D01*
X62412Y-60608D01*
X62341Y-60538D01*
X62249Y-60500D01*
X62150Y-60499D01*
X61800Y-60499D01*
X61708Y-60537D01*
X61649Y-60596D01*
X61591Y-60538D01*
X61499Y-60500D01*
X61400Y-60499D01*
X61174Y-60499D01*
X60887Y-60213D01*
X60790Y-60148D01*
X60675Y-60125D01*
X60157Y-60125D01*
X60033Y-60001D01*
X59849Y-59925D01*
X59650Y-59925D01*
X59467Y-60001D01*
X59454Y-60013D01*
X59404Y-59963D01*
X59312Y-59925D01*
X59213Y-59925D01*
X58613Y-59925D01*
X58521Y-59963D01*
X58450Y-60033D01*
X58412Y-60125D01*
X58412Y-60224D01*
X58412Y-60724D01*
X58450Y-60816D01*
X58520Y-60887D01*
X58598Y-60919D01*
X58612Y-60933D01*
X58522Y-60954D01*
X58457Y-61142D01*
X58469Y-61341D01*
X58522Y-61470D01*
X58612Y-61491D01*
X58891Y-61212D01*
X58886Y-61207D01*
X58957Y-61136D01*
X58962Y-61141D01*
X58968Y-61136D01*
X59038Y-61207D01*
X59033Y-61212D01*
X59312Y-61491D01*
X59323Y-61488D01*
X59325Y-61495D01*
X59436Y-61606D01*
X59326Y-61716D01*
X59323Y-61723D01*
X59312Y-61721D01*
X59241Y-61791D01*
X59241Y-61650D01*
X59231Y-61606D01*
X59241Y-61562D01*
X58962Y-61283D01*
X58891Y-61354D01*
X58683Y-61562D01*
X58694Y-61606D01*
X58683Y-61650D01*
X58962Y-61929D01*
X59241Y-61650D01*
X59241Y-61791D01*
X59033Y-62000D01*
X59312Y-62278D01*
X59323Y-62276D01*
X59325Y-62282D01*
X59436Y-62393D01*
X59326Y-62503D01*
X59323Y-62511D01*
X59312Y-62508D01*
X59241Y-62579D01*
X59241Y-62437D01*
X59231Y-62393D01*
X59241Y-62349D01*
X58962Y-62070D01*
X58891Y-62141D01*
X58891Y-62000D01*
X58612Y-61721D01*
X58522Y-61742D01*
X58457Y-61930D01*
X58469Y-62128D01*
X58522Y-62257D01*
X58612Y-62278D01*
X58891Y-62000D01*
X58891Y-62141D01*
X58683Y-62349D01*
X58694Y-62393D01*
X58683Y-62437D01*
X58962Y-62716D01*
X59241Y-62437D01*
X59241Y-62579D01*
X59033Y-62787D01*
X59312Y-63066D01*
X59323Y-63063D01*
X59325Y-63070D01*
X59436Y-63181D01*
X59326Y-63291D01*
X59323Y-63298D01*
X59312Y-63295D01*
X59241Y-63366D01*
X59241Y-63225D01*
X59231Y-63181D01*
X59241Y-63137D01*
X58962Y-62858D01*
X58891Y-62928D01*
X58891Y-62787D01*
X58612Y-62508D01*
X58522Y-62529D01*
X58457Y-62717D01*
X58469Y-62916D01*
X58522Y-63045D01*
X58612Y-63066D01*
X58891Y-62787D01*
X58891Y-62928D01*
X58683Y-63137D01*
X58694Y-63181D01*
X58683Y-63225D01*
X58962Y-63504D01*
X59241Y-63225D01*
X59241Y-63366D01*
X59033Y-63574D01*
X59312Y-63853D01*
X59323Y-63851D01*
X59325Y-63857D01*
X59466Y-63998D01*
X59650Y-64074D01*
X59849Y-64074D01*
X60032Y-63998D01*
X60157Y-63874D01*
X64700Y-63874D01*
X64050Y-64524D01*
X63991Y-64524D01*
X63788Y-64608D01*
X63634Y-64763D01*
X63600Y-64844D01*
X63566Y-64763D01*
X63411Y-64609D01*
X63209Y-64525D01*
X62991Y-64524D01*
X62788Y-64608D01*
X62634Y-64763D01*
X62602Y-64838D01*
X62581Y-64787D01*
X62485Y-64759D01*
X62415Y-64830D01*
X62415Y-64689D01*
X62387Y-64593D01*
X62181Y-64520D01*
X61963Y-64531D01*
X61812Y-64593D01*
X61784Y-64689D01*
X62100Y-65004D01*
X62415Y-64689D01*
X62415Y-64830D01*
X62170Y-65075D01*
X62485Y-65390D01*
X62581Y-65362D01*
X62600Y-65307D01*
X62633Y-65386D01*
X62788Y-65540D01*
X62990Y-65624D01*
X63208Y-65625D01*
X63411Y-65541D01*
X63565Y-65386D01*
X63599Y-65305D01*
X63633Y-65386D01*
X63788Y-65540D01*
X63990Y-65624D01*
X64208Y-65625D01*
X64411Y-65541D01*
X64565Y-65386D01*
X64599Y-65305D01*
X64633Y-65386D01*
X64788Y-65540D01*
X64990Y-65624D01*
X65208Y-65625D01*
X65411Y-65541D01*
X65565Y-65386D01*
X65599Y-65305D01*
X65633Y-65386D01*
X65788Y-65540D01*
X65990Y-65624D01*
X66208Y-65625D01*
X66411Y-65541D01*
X66565Y-65386D01*
X66649Y-65184D01*
X66650Y-64966D01*
X66566Y-64763D01*
X66411Y-64609D01*
X66209Y-64525D01*
X65991Y-64524D01*
X65788Y-64608D01*
X65634Y-64763D01*
X65600Y-64844D01*
X65566Y-64763D01*
X65411Y-64609D01*
X65209Y-64525D01*
X64991Y-64524D01*
X64834Y-64589D01*
X65124Y-64300D01*
X69048Y-64300D01*
X69108Y-64360D01*
X69265Y-64424D01*
X69434Y-64425D01*
X69590Y-64360D01*
X69710Y-64241D01*
X69774Y-64084D01*
X69775Y-63915D01*
X69758Y-63874D01*
X73425Y-63874D01*
X72787Y-64512D01*
X72722Y-64610D01*
X72700Y-64725D01*
X72700Y-65328D01*
X72688Y-65333D01*
X72534Y-65488D01*
X72500Y-65569D01*
X72466Y-65488D01*
X72311Y-65334D01*
X72109Y-65250D01*
X71891Y-65249D01*
X71879Y-65254D01*
X71412Y-64787D01*
X71314Y-64722D01*
X71200Y-64700D01*
X69194Y-64700D01*
X69134Y-64675D01*
X68965Y-64674D01*
X68809Y-64739D01*
X68689Y-64858D01*
X68625Y-65015D01*
X68624Y-65184D01*
X68689Y-65340D01*
X68808Y-65460D01*
X68965Y-65524D01*
X69134Y-65525D01*
X69290Y-65460D01*
X69410Y-65341D01*
X69427Y-65300D01*
X69546Y-65300D01*
X69488Y-65358D01*
X69450Y-65450D01*
X69449Y-65549D01*
X69449Y-66149D01*
X69487Y-66241D01*
X69558Y-66311D01*
X69650Y-66349D01*
X69749Y-66350D01*
X70349Y-66350D01*
X70441Y-66312D01*
X70511Y-66241D01*
X70549Y-66149D01*
X70549Y-66127D01*
X70688Y-66265D01*
X70890Y-66349D01*
X71108Y-66350D01*
X71311Y-66266D01*
X71465Y-66111D01*
X71499Y-66030D01*
X71533Y-66111D01*
X71688Y-66265D01*
X71890Y-66349D01*
X72108Y-66350D01*
X72311Y-66266D01*
X72465Y-66111D01*
X72499Y-66030D01*
X72533Y-66111D01*
X72688Y-66265D01*
X72890Y-66349D01*
X73108Y-66350D01*
X73311Y-66266D01*
X73465Y-66111D01*
X73499Y-66030D01*
X73533Y-66111D01*
X73688Y-66265D01*
X73890Y-66349D01*
X74108Y-66350D01*
X74311Y-66266D01*
X74465Y-66111D01*
X74499Y-66030D01*
X74533Y-66111D01*
X74688Y-66265D01*
X74890Y-66349D01*
X75108Y-66350D01*
X75311Y-66266D01*
X75465Y-66111D01*
X75499Y-66030D01*
X75533Y-66111D01*
X75688Y-66265D01*
X75890Y-66349D01*
X76108Y-66350D01*
X76311Y-66266D01*
X76465Y-66111D01*
X76499Y-66030D01*
X76533Y-66111D01*
X76688Y-66265D01*
X76890Y-66349D01*
X77108Y-66350D01*
X77311Y-66266D01*
X77465Y-66111D01*
X77499Y-66030D01*
X77533Y-66111D01*
X77688Y-66265D01*
X77890Y-66349D01*
X78108Y-66350D01*
X78311Y-66266D01*
X78465Y-66111D01*
X78499Y-66030D01*
X78533Y-66111D01*
X78688Y-66265D01*
X78890Y-66349D01*
X79108Y-66350D01*
X79311Y-66266D01*
X79465Y-66111D01*
X79499Y-66030D01*
X79533Y-66111D01*
X79688Y-66265D01*
X79890Y-66349D01*
X80108Y-66350D01*
X80311Y-66266D01*
X80465Y-66111D01*
X80499Y-66030D01*
X80533Y-66111D01*
X80688Y-66265D01*
X80890Y-66349D01*
X81108Y-66350D01*
X81311Y-66266D01*
X81465Y-66111D01*
X81549Y-65909D01*
X81550Y-65691D01*
X81466Y-65488D01*
X81311Y-65334D01*
X81109Y-65250D01*
X80974Y-65249D01*
X81549Y-64675D01*
X82800Y-64675D01*
X82805Y-64673D01*
X82810Y-64674D01*
X82862Y-64662D01*
X82914Y-64652D01*
X82919Y-64649D01*
X82924Y-64647D01*
X82967Y-64616D01*
X83012Y-64587D01*
X83015Y-64582D01*
X83019Y-64579D01*
X85070Y-62380D01*
X85115Y-62307D01*
X85127Y-62289D01*
X85127Y-62287D01*
X85131Y-62280D01*
X85144Y-62201D01*
X85150Y-62175D01*
X85150Y-62169D01*
X85150Y-62165D01*
X85150Y-62162D01*
X85150Y-56708D01*
X85310Y-56774D01*
X85489Y-56775D01*
X85654Y-56706D01*
X85686Y-56675D01*
X91850Y-56675D01*
X91983Y-56648D01*
X91983Y-56648D01*
X92097Y-56572D01*
X92807Y-55862D01*
X92807Y-55862D01*
X92807Y-55862D01*
X92831Y-55827D01*
X92899Y-55798D01*
X93060Y-55638D01*
X93219Y-55798D01*
X93440Y-55889D01*
X93678Y-55890D01*
X93899Y-55798D01*
X94068Y-55630D01*
X94159Y-55409D01*
X94160Y-55184D01*
X94207Y-55137D01*
X94207Y-55137D01*
X94207Y-55137D01*
X94283Y-55023D01*
X94309Y-54890D01*
X94310Y-54890D01*
X94310Y-54109D01*
X94401Y-54072D01*
X94471Y-54001D01*
X94509Y-53909D01*
X94510Y-53810D01*
X94510Y-66910D01*
X62415Y-66910D01*
X62415Y-65460D01*
X62100Y-65145D01*
X62029Y-65216D01*
X62029Y-65075D01*
X61714Y-64759D01*
X61650Y-64778D01*
X61649Y-64725D01*
X61611Y-64633D01*
X61541Y-64562D01*
X61449Y-64524D01*
X61212Y-64525D01*
X61150Y-64587D01*
X61150Y-65025D01*
X61157Y-65025D01*
X61157Y-65125D01*
X61150Y-65125D01*
X61150Y-65562D01*
X61212Y-65625D01*
X61449Y-65625D01*
X61541Y-65587D01*
X61611Y-65516D01*
X61649Y-65424D01*
X61650Y-65371D01*
X61714Y-65390D01*
X62029Y-65075D01*
X62029Y-65216D01*
X61784Y-65460D01*
X61812Y-65556D01*
X62018Y-65629D01*
X62236Y-65618D01*
X62387Y-65556D01*
X62415Y-65460D01*
X62415Y-66910D01*
X61050Y-66910D01*
X61050Y-65562D01*
X61050Y-65125D01*
X61050Y-65025D01*
X61050Y-64587D01*
X60987Y-64525D01*
X60750Y-64524D01*
X60658Y-64562D01*
X60588Y-64633D01*
X60550Y-64725D01*
X60549Y-64824D01*
X60550Y-64962D01*
X60612Y-65025D01*
X61050Y-65025D01*
X61050Y-65125D01*
X60612Y-65125D01*
X60550Y-65187D01*
X60549Y-65325D01*
X60550Y-65424D01*
X60588Y-65516D01*
X60658Y-65587D01*
X60750Y-65625D01*
X60987Y-65625D01*
X61050Y-65562D01*
X61050Y-66910D01*
X59241Y-66910D01*
X59241Y-63924D01*
X58962Y-63645D01*
X58891Y-63716D01*
X58891Y-63574D01*
X58612Y-63295D01*
X58522Y-63317D01*
X58457Y-63504D01*
X58469Y-63703D01*
X58522Y-63832D01*
X58612Y-63853D01*
X58891Y-63574D01*
X58891Y-63716D01*
X58683Y-63924D01*
X58704Y-64014D01*
X58892Y-64079D01*
X59091Y-64068D01*
X59220Y-64014D01*
X59241Y-63924D01*
X59241Y-66910D01*
X57330Y-66910D01*
X57330Y-48210D01*
X91336Y-48210D01*
X91326Y-48236D01*
X91325Y-48335D01*
X91326Y-48862D01*
X91388Y-48925D01*
X92215Y-48925D01*
X92215Y-48917D01*
X92315Y-48917D01*
X92315Y-48925D01*
X93141Y-48925D01*
X93204Y-48862D01*
X93204Y-48335D01*
X93203Y-48236D01*
X93193Y-48210D01*
X95710Y-48210D01*
X95710Y-66910D01*
M02*
