G04 (created by PCBNEW (2013-07-07 BZR 4022)-stable) date 5/31/2014 7:32:52 PM*
%MOIN*%
G04 Gerber Fmt 3.4, Leading zero omitted, Abs format*
%FSLAX34Y34*%
G01*
G70*
G90*
G04 APERTURE LIST*
%ADD10C,0.00590551*%
%ADD11C,0.0039*%
%ADD12C,0.005*%
%ADD13C,0.0043*%
%ADD14C,0.0024*%
G04 APERTURE END LIST*
G54D10*
X93490Y-53120D02*
X93490Y-54010D01*
X92360Y-54060D02*
X94080Y-54060D01*
X92370Y-53090D02*
X94090Y-53090D01*
G54D11*
X83050Y-62125D02*
G75*
G03X83050Y-62125I-50J0D01*
G74*
G01*
X82550Y-62125D02*
X82950Y-62125D01*
X82950Y-62125D02*
X82950Y-61525D01*
X82950Y-61525D02*
X82550Y-61525D01*
X82150Y-61525D02*
X81750Y-61525D01*
X81750Y-61525D02*
X81750Y-62125D01*
X81750Y-62125D02*
X82150Y-62125D01*
X62925Y-57300D02*
G75*
G03X62925Y-57300I-50J0D01*
G74*
G01*
X62875Y-57750D02*
X62875Y-57350D01*
X62875Y-57350D02*
X62275Y-57350D01*
X62275Y-57350D02*
X62275Y-57750D01*
X62275Y-58150D02*
X62275Y-58550D01*
X62275Y-58550D02*
X62875Y-58550D01*
X62875Y-58550D02*
X62875Y-58150D01*
X63925Y-57300D02*
G75*
G03X63925Y-57300I-50J0D01*
G74*
G01*
X63875Y-57750D02*
X63875Y-57350D01*
X63875Y-57350D02*
X63275Y-57350D01*
X63275Y-57350D02*
X63275Y-57750D01*
X63275Y-58150D02*
X63275Y-58550D01*
X63275Y-58550D02*
X63875Y-58550D01*
X63875Y-58550D02*
X63875Y-58150D01*
X65450Y-58575D02*
G75*
G03X65450Y-58575I-50J0D01*
G74*
G01*
X65400Y-58125D02*
X65400Y-58525D01*
X65400Y-58525D02*
X66000Y-58525D01*
X66000Y-58525D02*
X66000Y-58125D01*
X66000Y-57725D02*
X66000Y-57325D01*
X66000Y-57325D02*
X65400Y-57325D01*
X65400Y-57325D02*
X65400Y-57725D01*
X63925Y-55425D02*
G75*
G03X63925Y-55425I-50J0D01*
G74*
G01*
X63875Y-55875D02*
X63875Y-55475D01*
X63875Y-55475D02*
X63275Y-55475D01*
X63275Y-55475D02*
X63275Y-55875D01*
X63275Y-56275D02*
X63275Y-56675D01*
X63275Y-56675D02*
X63875Y-56675D01*
X63875Y-56675D02*
X63875Y-56275D01*
X62950Y-55425D02*
G75*
G03X62950Y-55425I-50J0D01*
G74*
G01*
X62900Y-55875D02*
X62900Y-55475D01*
X62900Y-55475D02*
X62300Y-55475D01*
X62300Y-55475D02*
X62300Y-55875D01*
X62300Y-56275D02*
X62300Y-56675D01*
X62300Y-56675D02*
X62900Y-56675D01*
X62900Y-56675D02*
X62900Y-56275D01*
X61000Y-61525D02*
G75*
G03X61000Y-61525I-50J0D01*
G74*
G01*
X61400Y-61525D02*
X61000Y-61525D01*
X61000Y-61525D02*
X61000Y-62125D01*
X61000Y-62125D02*
X61400Y-62125D01*
X61800Y-62125D02*
X62200Y-62125D01*
X62200Y-62125D02*
X62200Y-61525D01*
X62200Y-61525D02*
X61800Y-61525D01*
X90000Y-53900D02*
G75*
G03X90000Y-53900I-50J0D01*
G74*
G01*
X89500Y-53900D02*
X89900Y-53900D01*
X89900Y-53900D02*
X89900Y-53300D01*
X89900Y-53300D02*
X89500Y-53300D01*
X89100Y-53300D02*
X88700Y-53300D01*
X88700Y-53300D02*
X88700Y-53900D01*
X88700Y-53900D02*
X89100Y-53900D01*
X60975Y-62375D02*
G75*
G03X60975Y-62375I-50J0D01*
G74*
G01*
X61375Y-62375D02*
X60975Y-62375D01*
X60975Y-62375D02*
X60975Y-62975D01*
X60975Y-62975D02*
X61375Y-62975D01*
X61775Y-62975D02*
X62175Y-62975D01*
X62175Y-62975D02*
X62175Y-62375D01*
X62175Y-62375D02*
X61775Y-62375D01*
X90500Y-53300D02*
G75*
G03X90500Y-53300I-50J0D01*
G74*
G01*
X90900Y-53300D02*
X90500Y-53300D01*
X90500Y-53300D02*
X90500Y-53900D01*
X90500Y-53900D02*
X90900Y-53900D01*
X91300Y-53900D02*
X91700Y-53900D01*
X91700Y-53900D02*
X91700Y-53300D01*
X91700Y-53300D02*
X91300Y-53300D01*
X64425Y-51750D02*
G75*
G03X64425Y-51750I-50J0D01*
G74*
G01*
X64375Y-51300D02*
X64375Y-51700D01*
X64375Y-51700D02*
X64975Y-51700D01*
X64975Y-51700D02*
X64975Y-51300D01*
X64975Y-50900D02*
X64975Y-50500D01*
X64975Y-50500D02*
X64375Y-50500D01*
X64375Y-50500D02*
X64375Y-50900D01*
X59950Y-51875D02*
G75*
G03X59950Y-51875I-50J0D01*
G74*
G01*
X59900Y-51425D02*
X59900Y-51825D01*
X59900Y-51825D02*
X60500Y-51825D01*
X60500Y-51825D02*
X60500Y-51425D01*
X60500Y-51025D02*
X60500Y-50625D01*
X60500Y-50625D02*
X59900Y-50625D01*
X59900Y-50625D02*
X59900Y-51025D01*
X61050Y-60725D02*
G75*
G03X61050Y-60725I-50J0D01*
G74*
G01*
X61450Y-60725D02*
X61050Y-60725D01*
X61050Y-60725D02*
X61050Y-61325D01*
X61050Y-61325D02*
X61450Y-61325D01*
X61850Y-61325D02*
X62250Y-61325D01*
X62250Y-61325D02*
X62250Y-60725D01*
X62250Y-60725D02*
X61850Y-60725D01*
X81225Y-61450D02*
G75*
G03X81225Y-61450I-50J0D01*
G74*
G01*
X81175Y-61900D02*
X81175Y-61500D01*
X81175Y-61500D02*
X80575Y-61500D01*
X80575Y-61500D02*
X80575Y-61900D01*
X80575Y-62300D02*
X80575Y-62700D01*
X80575Y-62700D02*
X81175Y-62700D01*
X81175Y-62700D02*
X81175Y-62300D01*
G54D12*
X76150Y-58450D02*
X76150Y-58950D01*
X76650Y-58450D02*
X76650Y-58940D01*
X76800Y-58450D02*
X76000Y-58450D01*
X76000Y-58450D02*
X76000Y-58950D01*
X76000Y-58950D02*
X76800Y-58950D01*
X76800Y-58950D02*
X76800Y-58450D01*
X77150Y-62550D02*
X77150Y-62050D01*
X76650Y-62550D02*
X76650Y-62060D01*
X76500Y-62550D02*
X77300Y-62550D01*
X77300Y-62550D02*
X77300Y-62050D01*
X77300Y-62050D02*
X76500Y-62050D01*
X76500Y-62050D02*
X76500Y-62550D01*
X71775Y-62050D02*
X71775Y-62550D01*
X72275Y-62050D02*
X72275Y-62540D01*
X72425Y-62050D02*
X71625Y-62050D01*
X71625Y-62050D02*
X71625Y-62550D01*
X71625Y-62550D02*
X72425Y-62550D01*
X72425Y-62550D02*
X72425Y-62050D01*
X76350Y-54950D02*
X76350Y-55450D01*
X76850Y-54950D02*
X76850Y-55440D01*
X77000Y-54950D02*
X76200Y-54950D01*
X76200Y-54950D02*
X76200Y-55450D01*
X76200Y-55450D02*
X77000Y-55450D01*
X77000Y-55450D02*
X77000Y-54950D01*
X64450Y-49825D02*
X64950Y-49825D01*
X64450Y-49325D02*
X64940Y-49325D01*
X64450Y-49175D02*
X64450Y-49975D01*
X64450Y-49975D02*
X64950Y-49975D01*
X64950Y-49975D02*
X64950Y-49175D01*
X64950Y-49175D02*
X64450Y-49175D01*
X59950Y-49800D02*
X60450Y-49800D01*
X59950Y-49300D02*
X60440Y-49300D01*
X59950Y-49150D02*
X59950Y-49950D01*
X59950Y-49950D02*
X60450Y-49950D01*
X60450Y-49950D02*
X60450Y-49150D01*
X60450Y-49150D02*
X59950Y-49150D01*
G54D10*
X93720Y-54499D02*
X93720Y-54105D01*
X93626Y-54105D01*
X93570Y-54124D01*
X93533Y-54161D01*
X93514Y-54199D01*
X93495Y-54274D01*
X93495Y-54330D01*
X93514Y-54405D01*
X93533Y-54443D01*
X93570Y-54480D01*
X93626Y-54499D01*
X93720Y-54499D01*
X93120Y-54499D02*
X93345Y-54499D01*
X93233Y-54499D02*
X93233Y-54105D01*
X93270Y-54161D01*
X93308Y-54199D01*
X93345Y-54218D01*
X94073Y-52809D02*
X94298Y-52809D01*
X94186Y-52809D02*
X94186Y-52415D01*
X94223Y-52471D01*
X94261Y-52509D01*
X94298Y-52528D01*
X93904Y-52809D02*
X93904Y-52415D01*
X93679Y-52809D01*
X93679Y-52415D01*
X93323Y-52546D02*
X93323Y-52809D01*
X93417Y-52396D02*
X93511Y-52678D01*
X93267Y-52678D01*
X93042Y-52415D02*
X93005Y-52415D01*
X92967Y-52434D01*
X92948Y-52453D01*
X92930Y-52490D01*
X92911Y-52565D01*
X92911Y-52659D01*
X92930Y-52734D01*
X92948Y-52771D01*
X92967Y-52790D01*
X93005Y-52809D01*
X93042Y-52809D01*
X93080Y-52790D01*
X93098Y-52771D01*
X93117Y-52734D01*
X93136Y-52659D01*
X93136Y-52565D01*
X93117Y-52490D01*
X93098Y-52453D01*
X93080Y-52434D01*
X93042Y-52415D01*
X92667Y-52415D02*
X92630Y-52415D01*
X92592Y-52434D01*
X92573Y-52453D01*
X92555Y-52490D01*
X92536Y-52565D01*
X92536Y-52659D01*
X92555Y-52734D01*
X92573Y-52771D01*
X92592Y-52790D01*
X92630Y-52809D01*
X92667Y-52809D01*
X92705Y-52790D01*
X92723Y-52771D01*
X92742Y-52734D01*
X92761Y-52659D01*
X92761Y-52565D01*
X92742Y-52490D01*
X92723Y-52453D01*
X92705Y-52434D01*
X92667Y-52415D01*
X92386Y-52453D02*
X92367Y-52434D01*
X92330Y-52415D01*
X92236Y-52415D01*
X92198Y-52434D01*
X92180Y-52453D01*
X92161Y-52490D01*
X92161Y-52528D01*
X92180Y-52584D01*
X92405Y-52809D01*
X92161Y-52809D01*
G54D13*
X82382Y-61779D02*
X82448Y-61685D01*
X82495Y-61779D02*
X82495Y-61582D01*
X82420Y-61582D01*
X82401Y-61592D01*
X82392Y-61601D01*
X82382Y-61620D01*
X82382Y-61648D01*
X82392Y-61667D01*
X82401Y-61676D01*
X82420Y-61685D01*
X82495Y-61685D01*
X82270Y-61667D02*
X82289Y-61657D01*
X82298Y-61648D01*
X82307Y-61629D01*
X82307Y-61620D01*
X82298Y-61601D01*
X82289Y-61592D01*
X82270Y-61582D01*
X82232Y-61582D01*
X82213Y-61592D01*
X82204Y-61601D01*
X82195Y-61620D01*
X82195Y-61629D01*
X82204Y-61648D01*
X82213Y-61657D01*
X82232Y-61667D01*
X82270Y-61667D01*
X82289Y-61676D01*
X82298Y-61685D01*
X82307Y-61704D01*
X82307Y-61742D01*
X82298Y-61760D01*
X82289Y-61770D01*
X82270Y-61779D01*
X82232Y-61779D01*
X82213Y-61770D01*
X82204Y-61760D01*
X82195Y-61742D01*
X82195Y-61704D01*
X82204Y-61685D01*
X82213Y-61676D01*
X82232Y-61667D01*
X82359Y-61857D02*
X82340Y-61857D01*
X82321Y-61867D01*
X82312Y-61876D01*
X82303Y-61895D01*
X82293Y-61932D01*
X82293Y-61979D01*
X82303Y-62017D01*
X82312Y-62035D01*
X82321Y-62045D01*
X82340Y-62054D01*
X82359Y-62054D01*
X82378Y-62045D01*
X82387Y-62035D01*
X82396Y-62017D01*
X82406Y-61979D01*
X82406Y-61932D01*
X82396Y-61895D01*
X82387Y-61876D01*
X82378Y-61867D01*
X82359Y-61857D01*
X62529Y-57823D02*
X62435Y-57757D01*
X62529Y-57710D02*
X62332Y-57710D01*
X62332Y-57785D01*
X62342Y-57804D01*
X62351Y-57813D01*
X62370Y-57823D01*
X62398Y-57823D01*
X62417Y-57813D01*
X62426Y-57804D01*
X62435Y-57785D01*
X62435Y-57710D01*
X62332Y-57889D02*
X62332Y-58010D01*
X62407Y-57945D01*
X62407Y-57973D01*
X62417Y-57992D01*
X62426Y-58001D01*
X62445Y-58010D01*
X62492Y-58010D01*
X62510Y-58001D01*
X62520Y-57992D01*
X62529Y-57973D01*
X62529Y-57917D01*
X62520Y-57898D01*
X62510Y-57889D01*
X62332Y-58076D02*
X62332Y-58198D01*
X62407Y-58132D01*
X62407Y-58161D01*
X62417Y-58179D01*
X62426Y-58189D01*
X62445Y-58198D01*
X62492Y-58198D01*
X62510Y-58189D01*
X62520Y-58179D01*
X62529Y-58161D01*
X62529Y-58104D01*
X62520Y-58086D01*
X62510Y-58076D01*
X62607Y-57940D02*
X62607Y-57959D01*
X62617Y-57978D01*
X62626Y-57987D01*
X62645Y-57996D01*
X62682Y-58006D01*
X62729Y-58006D01*
X62767Y-57996D01*
X62785Y-57987D01*
X62795Y-57978D01*
X62804Y-57959D01*
X62804Y-57940D01*
X62795Y-57921D01*
X62785Y-57912D01*
X62767Y-57903D01*
X62729Y-57893D01*
X62682Y-57893D01*
X62645Y-57903D01*
X62626Y-57912D01*
X62617Y-57921D01*
X62607Y-57940D01*
X63529Y-57823D02*
X63435Y-57757D01*
X63529Y-57710D02*
X63332Y-57710D01*
X63332Y-57785D01*
X63342Y-57804D01*
X63351Y-57813D01*
X63370Y-57823D01*
X63398Y-57823D01*
X63417Y-57813D01*
X63426Y-57804D01*
X63435Y-57785D01*
X63435Y-57710D01*
X63332Y-57889D02*
X63332Y-58010D01*
X63407Y-57945D01*
X63407Y-57973D01*
X63417Y-57992D01*
X63426Y-58001D01*
X63445Y-58010D01*
X63492Y-58010D01*
X63510Y-58001D01*
X63520Y-57992D01*
X63529Y-57973D01*
X63529Y-57917D01*
X63520Y-57898D01*
X63510Y-57889D01*
X63398Y-58179D02*
X63529Y-58179D01*
X63323Y-58132D02*
X63464Y-58086D01*
X63464Y-58207D01*
X63861Y-58029D02*
X63973Y-58029D01*
X63917Y-58029D02*
X63917Y-57832D01*
X63936Y-57860D01*
X63954Y-57879D01*
X63973Y-57889D01*
X63739Y-57832D02*
X63720Y-57832D01*
X63701Y-57842D01*
X63692Y-57851D01*
X63682Y-57870D01*
X63673Y-57907D01*
X63673Y-57954D01*
X63682Y-57992D01*
X63692Y-58010D01*
X63701Y-58020D01*
X63720Y-58029D01*
X63739Y-58029D01*
X63757Y-58020D01*
X63767Y-58010D01*
X63776Y-57992D01*
X63785Y-57954D01*
X63785Y-57907D01*
X63776Y-57870D01*
X63767Y-57851D01*
X63757Y-57842D01*
X63739Y-57832D01*
X63588Y-58029D02*
X63588Y-57832D01*
X63476Y-58029D02*
X63560Y-57917D01*
X63476Y-57832D02*
X63588Y-57945D01*
X65904Y-57798D02*
X65810Y-57732D01*
X65904Y-57685D02*
X65707Y-57685D01*
X65707Y-57760D01*
X65717Y-57779D01*
X65726Y-57788D01*
X65745Y-57798D01*
X65773Y-57798D01*
X65792Y-57788D01*
X65801Y-57779D01*
X65810Y-57760D01*
X65810Y-57685D01*
X65904Y-57985D02*
X65904Y-57873D01*
X65904Y-57929D02*
X65707Y-57929D01*
X65735Y-57910D01*
X65754Y-57892D01*
X65764Y-57873D01*
X65707Y-58051D02*
X65707Y-58182D01*
X65904Y-58098D01*
X65657Y-57465D02*
X65657Y-57484D01*
X65667Y-57503D01*
X65676Y-57512D01*
X65695Y-57521D01*
X65732Y-57531D01*
X65779Y-57531D01*
X65817Y-57521D01*
X65835Y-57512D01*
X65845Y-57503D01*
X65854Y-57484D01*
X65854Y-57465D01*
X65845Y-57446D01*
X65835Y-57437D01*
X65817Y-57428D01*
X65779Y-57418D01*
X65732Y-57418D01*
X65695Y-57428D01*
X65676Y-57437D01*
X65667Y-57446D01*
X65657Y-57465D01*
X63529Y-55948D02*
X63435Y-55882D01*
X63529Y-55835D02*
X63332Y-55835D01*
X63332Y-55910D01*
X63342Y-55929D01*
X63351Y-55938D01*
X63370Y-55948D01*
X63398Y-55948D01*
X63417Y-55938D01*
X63426Y-55929D01*
X63435Y-55910D01*
X63435Y-55835D01*
X63529Y-56135D02*
X63529Y-56023D01*
X63529Y-56079D02*
X63332Y-56079D01*
X63360Y-56060D01*
X63379Y-56042D01*
X63389Y-56023D01*
X63529Y-56229D02*
X63529Y-56267D01*
X63520Y-56286D01*
X63510Y-56295D01*
X63482Y-56314D01*
X63445Y-56323D01*
X63370Y-56323D01*
X63351Y-56314D01*
X63342Y-56304D01*
X63332Y-56286D01*
X63332Y-56248D01*
X63342Y-56229D01*
X63351Y-56220D01*
X63370Y-56211D01*
X63417Y-56211D01*
X63435Y-56220D01*
X63445Y-56229D01*
X63454Y-56248D01*
X63454Y-56286D01*
X63445Y-56304D01*
X63435Y-56314D01*
X63417Y-56323D01*
X63804Y-55938D02*
X63804Y-55826D01*
X63804Y-55882D02*
X63607Y-55882D01*
X63635Y-55863D01*
X63654Y-55845D01*
X63664Y-55826D01*
X63607Y-56060D02*
X63607Y-56079D01*
X63617Y-56098D01*
X63626Y-56107D01*
X63645Y-56117D01*
X63682Y-56126D01*
X63729Y-56126D01*
X63767Y-56117D01*
X63785Y-56107D01*
X63795Y-56098D01*
X63804Y-56079D01*
X63804Y-56060D01*
X63795Y-56042D01*
X63785Y-56032D01*
X63767Y-56023D01*
X63729Y-56014D01*
X63682Y-56014D01*
X63645Y-56023D01*
X63626Y-56032D01*
X63617Y-56042D01*
X63607Y-56060D01*
X63804Y-56211D02*
X63607Y-56211D01*
X63804Y-56323D02*
X63692Y-56239D01*
X63607Y-56323D02*
X63720Y-56211D01*
X62554Y-55948D02*
X62460Y-55882D01*
X62554Y-55835D02*
X62357Y-55835D01*
X62357Y-55910D01*
X62367Y-55929D01*
X62376Y-55938D01*
X62395Y-55948D01*
X62423Y-55948D01*
X62442Y-55938D01*
X62451Y-55929D01*
X62460Y-55910D01*
X62460Y-55835D01*
X62554Y-56135D02*
X62554Y-56023D01*
X62554Y-56079D02*
X62357Y-56079D01*
X62385Y-56060D01*
X62404Y-56042D01*
X62414Y-56023D01*
X62442Y-56248D02*
X62432Y-56229D01*
X62423Y-56220D01*
X62404Y-56211D01*
X62395Y-56211D01*
X62376Y-56220D01*
X62367Y-56229D01*
X62357Y-56248D01*
X62357Y-56286D01*
X62367Y-56304D01*
X62376Y-56314D01*
X62395Y-56323D01*
X62404Y-56323D01*
X62423Y-56314D01*
X62432Y-56304D01*
X62442Y-56286D01*
X62442Y-56248D01*
X62451Y-56229D01*
X62460Y-56220D01*
X62479Y-56211D01*
X62517Y-56211D01*
X62535Y-56220D01*
X62545Y-56229D01*
X62554Y-56248D01*
X62554Y-56286D01*
X62545Y-56304D01*
X62535Y-56314D01*
X62517Y-56323D01*
X62479Y-56323D01*
X62460Y-56314D01*
X62451Y-56304D01*
X62442Y-56286D01*
X62632Y-56065D02*
X62632Y-56084D01*
X62642Y-56103D01*
X62651Y-56112D01*
X62670Y-56121D01*
X62707Y-56131D01*
X62754Y-56131D01*
X62792Y-56121D01*
X62810Y-56112D01*
X62820Y-56103D01*
X62829Y-56084D01*
X62829Y-56065D01*
X62820Y-56046D01*
X62810Y-56037D01*
X62792Y-56028D01*
X62754Y-56018D01*
X62707Y-56018D01*
X62670Y-56028D01*
X62651Y-56037D01*
X62642Y-56046D01*
X62632Y-56065D01*
X61632Y-62029D02*
X61698Y-61935D01*
X61745Y-62029D02*
X61745Y-61832D01*
X61670Y-61832D01*
X61651Y-61842D01*
X61642Y-61851D01*
X61632Y-61870D01*
X61632Y-61898D01*
X61642Y-61917D01*
X61651Y-61926D01*
X61670Y-61935D01*
X61745Y-61935D01*
X61454Y-61832D02*
X61548Y-61832D01*
X61557Y-61926D01*
X61548Y-61917D01*
X61529Y-61907D01*
X61482Y-61907D01*
X61463Y-61917D01*
X61454Y-61926D01*
X61445Y-61945D01*
X61445Y-61992D01*
X61454Y-62010D01*
X61463Y-62020D01*
X61482Y-62029D01*
X61529Y-62029D01*
X61548Y-62020D01*
X61557Y-62010D01*
X61609Y-61557D02*
X61590Y-61557D01*
X61571Y-61567D01*
X61562Y-61576D01*
X61553Y-61595D01*
X61543Y-61632D01*
X61543Y-61679D01*
X61553Y-61717D01*
X61562Y-61735D01*
X61571Y-61745D01*
X61590Y-61754D01*
X61609Y-61754D01*
X61628Y-61745D01*
X61637Y-61735D01*
X61646Y-61717D01*
X61656Y-61679D01*
X61656Y-61632D01*
X61646Y-61595D01*
X61637Y-61576D01*
X61628Y-61567D01*
X61609Y-61557D01*
X89332Y-53554D02*
X89398Y-53460D01*
X89445Y-53554D02*
X89445Y-53357D01*
X89370Y-53357D01*
X89351Y-53367D01*
X89342Y-53376D01*
X89332Y-53395D01*
X89332Y-53423D01*
X89342Y-53442D01*
X89351Y-53451D01*
X89370Y-53460D01*
X89445Y-53460D01*
X89145Y-53554D02*
X89257Y-53554D01*
X89201Y-53554D02*
X89201Y-53357D01*
X89220Y-53385D01*
X89239Y-53404D01*
X89257Y-53414D01*
X89553Y-53632D02*
X89431Y-53632D01*
X89496Y-53707D01*
X89468Y-53707D01*
X89450Y-53717D01*
X89440Y-53726D01*
X89431Y-53745D01*
X89431Y-53792D01*
X89440Y-53810D01*
X89450Y-53820D01*
X89468Y-53829D01*
X89525Y-53829D01*
X89543Y-53820D01*
X89553Y-53810D01*
X89365Y-53632D02*
X89243Y-53632D01*
X89309Y-53707D01*
X89281Y-53707D01*
X89262Y-53717D01*
X89253Y-53726D01*
X89243Y-53745D01*
X89243Y-53792D01*
X89253Y-53810D01*
X89262Y-53820D01*
X89281Y-53829D01*
X89337Y-53829D01*
X89356Y-53820D01*
X89365Y-53810D01*
X89121Y-53632D02*
X89103Y-53632D01*
X89084Y-53642D01*
X89074Y-53651D01*
X89065Y-53670D01*
X89056Y-53707D01*
X89056Y-53754D01*
X89065Y-53792D01*
X89074Y-53810D01*
X89084Y-53820D01*
X89103Y-53829D01*
X89121Y-53829D01*
X89140Y-53820D01*
X89149Y-53810D01*
X89159Y-53792D01*
X89168Y-53754D01*
X89168Y-53707D01*
X89159Y-53670D01*
X89149Y-53651D01*
X89140Y-53642D01*
X89121Y-53632D01*
X61701Y-62879D02*
X61767Y-62785D01*
X61814Y-62879D02*
X61814Y-62682D01*
X61739Y-62682D01*
X61720Y-62692D01*
X61711Y-62701D01*
X61701Y-62720D01*
X61701Y-62748D01*
X61711Y-62767D01*
X61720Y-62776D01*
X61739Y-62785D01*
X61814Y-62785D01*
X61635Y-62682D02*
X61514Y-62682D01*
X61579Y-62757D01*
X61551Y-62757D01*
X61532Y-62767D01*
X61523Y-62776D01*
X61514Y-62795D01*
X61514Y-62842D01*
X61523Y-62860D01*
X61532Y-62870D01*
X61551Y-62879D01*
X61607Y-62879D01*
X61626Y-62870D01*
X61635Y-62860D01*
X61448Y-62682D02*
X61317Y-62682D01*
X61401Y-62879D01*
X61711Y-62604D02*
X61823Y-62604D01*
X61767Y-62604D02*
X61767Y-62407D01*
X61786Y-62435D01*
X61804Y-62454D01*
X61823Y-62464D01*
X61589Y-62407D02*
X61570Y-62407D01*
X61551Y-62417D01*
X61542Y-62426D01*
X61532Y-62445D01*
X61523Y-62482D01*
X61523Y-62529D01*
X61532Y-62567D01*
X61542Y-62585D01*
X61551Y-62595D01*
X61570Y-62604D01*
X61589Y-62604D01*
X61607Y-62595D01*
X61617Y-62585D01*
X61626Y-62567D01*
X61635Y-62529D01*
X61635Y-62482D01*
X61626Y-62445D01*
X61617Y-62426D01*
X61607Y-62417D01*
X61589Y-62407D01*
X61438Y-62604D02*
X61438Y-62407D01*
X61326Y-62604D02*
X61410Y-62492D01*
X61326Y-62407D02*
X61438Y-62520D01*
X91132Y-53804D02*
X91198Y-53710D01*
X91245Y-53804D02*
X91245Y-53607D01*
X91170Y-53607D01*
X91151Y-53617D01*
X91142Y-53626D01*
X91132Y-53645D01*
X91132Y-53673D01*
X91142Y-53692D01*
X91151Y-53701D01*
X91170Y-53710D01*
X91245Y-53710D01*
X91057Y-53626D02*
X91048Y-53617D01*
X91029Y-53607D01*
X90982Y-53607D01*
X90963Y-53617D01*
X90954Y-53626D01*
X90945Y-53645D01*
X90945Y-53664D01*
X90954Y-53692D01*
X91067Y-53804D01*
X90945Y-53804D01*
X91343Y-53351D02*
X91334Y-53342D01*
X91315Y-53332D01*
X91268Y-53332D01*
X91250Y-53342D01*
X91240Y-53351D01*
X91231Y-53370D01*
X91231Y-53389D01*
X91240Y-53417D01*
X91353Y-53529D01*
X91231Y-53529D01*
X91109Y-53332D02*
X91090Y-53332D01*
X91071Y-53342D01*
X91062Y-53351D01*
X91053Y-53370D01*
X91043Y-53407D01*
X91043Y-53454D01*
X91053Y-53492D01*
X91062Y-53510D01*
X91071Y-53520D01*
X91090Y-53529D01*
X91109Y-53529D01*
X91128Y-53520D01*
X91137Y-53510D01*
X91146Y-53492D01*
X91156Y-53454D01*
X91156Y-53407D01*
X91146Y-53370D01*
X91137Y-53351D01*
X91128Y-53342D01*
X91109Y-53332D01*
X90921Y-53332D02*
X90903Y-53332D01*
X90884Y-53342D01*
X90874Y-53351D01*
X90865Y-53370D01*
X90856Y-53407D01*
X90856Y-53454D01*
X90865Y-53492D01*
X90874Y-53510D01*
X90884Y-53520D01*
X90903Y-53529D01*
X90921Y-53529D01*
X90940Y-53520D01*
X90949Y-53510D01*
X90959Y-53492D01*
X90968Y-53454D01*
X90968Y-53407D01*
X90959Y-53370D01*
X90949Y-53351D01*
X90940Y-53342D01*
X90921Y-53332D01*
X64879Y-50973D02*
X64785Y-50907D01*
X64879Y-50860D02*
X64682Y-50860D01*
X64682Y-50935D01*
X64692Y-50954D01*
X64701Y-50963D01*
X64720Y-50973D01*
X64748Y-50973D01*
X64767Y-50963D01*
X64776Y-50954D01*
X64785Y-50935D01*
X64785Y-50860D01*
X64682Y-51039D02*
X64682Y-51160D01*
X64757Y-51095D01*
X64757Y-51123D01*
X64767Y-51142D01*
X64776Y-51151D01*
X64795Y-51160D01*
X64842Y-51160D01*
X64860Y-51151D01*
X64870Y-51142D01*
X64879Y-51123D01*
X64879Y-51067D01*
X64870Y-51048D01*
X64860Y-51039D01*
X64682Y-51339D02*
X64682Y-51245D01*
X64776Y-51236D01*
X64767Y-51245D01*
X64757Y-51264D01*
X64757Y-51311D01*
X64767Y-51329D01*
X64776Y-51339D01*
X64795Y-51348D01*
X64842Y-51348D01*
X64860Y-51339D01*
X64870Y-51329D01*
X64879Y-51311D01*
X64879Y-51264D01*
X64870Y-51245D01*
X64860Y-51236D01*
X64604Y-50968D02*
X64604Y-50856D01*
X64604Y-50912D02*
X64407Y-50912D01*
X64435Y-50893D01*
X64454Y-50874D01*
X64464Y-50856D01*
X64407Y-51090D02*
X64407Y-51109D01*
X64417Y-51128D01*
X64426Y-51137D01*
X64445Y-51146D01*
X64482Y-51156D01*
X64529Y-51156D01*
X64567Y-51146D01*
X64585Y-51137D01*
X64595Y-51128D01*
X64604Y-51109D01*
X64604Y-51090D01*
X64595Y-51071D01*
X64585Y-51062D01*
X64567Y-51053D01*
X64529Y-51043D01*
X64482Y-51043D01*
X64445Y-51053D01*
X64426Y-51062D01*
X64417Y-51071D01*
X64407Y-51090D01*
X64407Y-51278D02*
X64407Y-51297D01*
X64417Y-51315D01*
X64426Y-51325D01*
X64445Y-51334D01*
X64482Y-51343D01*
X64529Y-51343D01*
X64567Y-51334D01*
X64585Y-51325D01*
X64595Y-51315D01*
X64604Y-51297D01*
X64604Y-51278D01*
X64595Y-51259D01*
X64585Y-51250D01*
X64567Y-51240D01*
X64529Y-51231D01*
X64482Y-51231D01*
X64445Y-51240D01*
X64426Y-51250D01*
X64417Y-51259D01*
X64407Y-51278D01*
X60404Y-51098D02*
X60310Y-51032D01*
X60404Y-50985D02*
X60207Y-50985D01*
X60207Y-51060D01*
X60217Y-51079D01*
X60226Y-51088D01*
X60245Y-51098D01*
X60273Y-51098D01*
X60292Y-51088D01*
X60301Y-51079D01*
X60310Y-51060D01*
X60310Y-50985D01*
X60207Y-51164D02*
X60207Y-51285D01*
X60282Y-51220D01*
X60282Y-51248D01*
X60292Y-51267D01*
X60301Y-51276D01*
X60320Y-51285D01*
X60367Y-51285D01*
X60385Y-51276D01*
X60395Y-51267D01*
X60404Y-51248D01*
X60404Y-51192D01*
X60395Y-51173D01*
X60385Y-51164D01*
X60207Y-51454D02*
X60207Y-51417D01*
X60217Y-51398D01*
X60226Y-51389D01*
X60254Y-51370D01*
X60292Y-51361D01*
X60367Y-51361D01*
X60385Y-51370D01*
X60395Y-51379D01*
X60404Y-51398D01*
X60404Y-51436D01*
X60395Y-51454D01*
X60385Y-51464D01*
X60367Y-51473D01*
X60320Y-51473D01*
X60301Y-51464D01*
X60292Y-51454D01*
X60282Y-51436D01*
X60282Y-51398D01*
X60292Y-51379D01*
X60301Y-51370D01*
X60320Y-51361D01*
X60129Y-51093D02*
X60129Y-50981D01*
X60129Y-51037D02*
X59932Y-51037D01*
X59960Y-51018D01*
X59979Y-50999D01*
X59989Y-50981D01*
X59932Y-51215D02*
X59932Y-51234D01*
X59942Y-51253D01*
X59951Y-51262D01*
X59970Y-51271D01*
X60007Y-51281D01*
X60054Y-51281D01*
X60092Y-51271D01*
X60110Y-51262D01*
X60120Y-51253D01*
X60129Y-51234D01*
X60129Y-51215D01*
X60120Y-51196D01*
X60110Y-51187D01*
X60092Y-51178D01*
X60054Y-51168D01*
X60007Y-51168D01*
X59970Y-51178D01*
X59951Y-51187D01*
X59942Y-51196D01*
X59932Y-51215D01*
X59932Y-51403D02*
X59932Y-51422D01*
X59942Y-51440D01*
X59951Y-51450D01*
X59970Y-51459D01*
X60007Y-51468D01*
X60054Y-51468D01*
X60092Y-51459D01*
X60110Y-51450D01*
X60120Y-51440D01*
X60129Y-51422D01*
X60129Y-51403D01*
X60120Y-51384D01*
X60110Y-51375D01*
X60092Y-51365D01*
X60054Y-51356D01*
X60007Y-51356D01*
X59970Y-51365D01*
X59951Y-51375D01*
X59942Y-51384D01*
X59932Y-51403D01*
X61407Y-61104D02*
X61473Y-61010D01*
X61520Y-61104D02*
X61520Y-60907D01*
X61445Y-60907D01*
X61426Y-60917D01*
X61417Y-60926D01*
X61407Y-60945D01*
X61407Y-60973D01*
X61417Y-60992D01*
X61426Y-61001D01*
X61445Y-61010D01*
X61520Y-61010D01*
X61342Y-60907D02*
X61220Y-60907D01*
X61285Y-60982D01*
X61257Y-60982D01*
X61238Y-60992D01*
X61229Y-61001D01*
X61220Y-61020D01*
X61220Y-61067D01*
X61229Y-61085D01*
X61238Y-61095D01*
X61257Y-61104D01*
X61314Y-61104D01*
X61332Y-61095D01*
X61342Y-61085D01*
X61811Y-60954D02*
X61923Y-60954D01*
X61867Y-60954D02*
X61867Y-60757D01*
X61886Y-60785D01*
X61904Y-60804D01*
X61923Y-60814D01*
X61689Y-60757D02*
X61670Y-60757D01*
X61651Y-60767D01*
X61642Y-60776D01*
X61632Y-60795D01*
X61623Y-60832D01*
X61623Y-60879D01*
X61632Y-60917D01*
X61642Y-60935D01*
X61651Y-60945D01*
X61670Y-60954D01*
X61689Y-60954D01*
X61707Y-60945D01*
X61717Y-60935D01*
X61726Y-60917D01*
X61735Y-60879D01*
X61735Y-60832D01*
X61726Y-60795D01*
X61717Y-60776D01*
X61707Y-60767D01*
X61689Y-60757D01*
X61538Y-60954D02*
X61538Y-60757D01*
X61426Y-60954D02*
X61510Y-60842D01*
X61426Y-60757D02*
X61538Y-60870D01*
X80829Y-61973D02*
X80735Y-61907D01*
X80829Y-61860D02*
X80632Y-61860D01*
X80632Y-61935D01*
X80642Y-61954D01*
X80651Y-61963D01*
X80670Y-61973D01*
X80698Y-61973D01*
X80717Y-61963D01*
X80726Y-61954D01*
X80735Y-61935D01*
X80735Y-61860D01*
X80651Y-62048D02*
X80642Y-62057D01*
X80632Y-62076D01*
X80632Y-62123D01*
X80642Y-62142D01*
X80651Y-62151D01*
X80670Y-62160D01*
X80689Y-62160D01*
X80717Y-62151D01*
X80829Y-62039D01*
X80829Y-62160D01*
X80632Y-62339D02*
X80632Y-62245D01*
X80726Y-62236D01*
X80717Y-62245D01*
X80707Y-62264D01*
X80707Y-62311D01*
X80717Y-62329D01*
X80726Y-62339D01*
X80745Y-62348D01*
X80792Y-62348D01*
X80810Y-62339D01*
X80820Y-62329D01*
X80829Y-62311D01*
X80829Y-62264D01*
X80820Y-62245D01*
X80810Y-62236D01*
X80707Y-61840D02*
X80707Y-61859D01*
X80717Y-61878D01*
X80726Y-61887D01*
X80745Y-61896D01*
X80782Y-61906D01*
X80829Y-61906D01*
X80867Y-61896D01*
X80885Y-61887D01*
X80895Y-61878D01*
X80904Y-61859D01*
X80904Y-61840D01*
X80895Y-61821D01*
X80885Y-61812D01*
X80867Y-61803D01*
X80829Y-61793D01*
X80782Y-61793D01*
X80745Y-61803D01*
X80726Y-61812D01*
X80717Y-61821D01*
X80707Y-61840D01*
G54D14*
X76419Y-58346D02*
X76425Y-58352D01*
X76442Y-58357D01*
X76453Y-58357D01*
X76470Y-58352D01*
X76481Y-58340D01*
X76487Y-58329D01*
X76492Y-58307D01*
X76492Y-58290D01*
X76487Y-58267D01*
X76481Y-58256D01*
X76470Y-58245D01*
X76453Y-58239D01*
X76442Y-58239D01*
X76425Y-58245D01*
X76419Y-58251D01*
X76318Y-58239D02*
X76341Y-58239D01*
X76352Y-58245D01*
X76357Y-58251D01*
X76369Y-58267D01*
X76374Y-58290D01*
X76374Y-58335D01*
X76369Y-58346D01*
X76363Y-58352D01*
X76352Y-58357D01*
X76329Y-58357D01*
X76318Y-58352D01*
X76312Y-58346D01*
X76307Y-58335D01*
X76307Y-58307D01*
X76312Y-58295D01*
X76318Y-58290D01*
X76329Y-58284D01*
X76352Y-58284D01*
X76363Y-58290D01*
X76369Y-58295D01*
X76374Y-58307D01*
X76919Y-62726D02*
X76925Y-62732D01*
X76942Y-62737D01*
X76953Y-62737D01*
X76970Y-62732D01*
X76981Y-62720D01*
X76987Y-62709D01*
X76992Y-62687D01*
X76992Y-62670D01*
X76987Y-62647D01*
X76981Y-62636D01*
X76970Y-62625D01*
X76953Y-62619D01*
X76942Y-62619D01*
X76925Y-62625D01*
X76919Y-62631D01*
X76874Y-62631D02*
X76869Y-62625D01*
X76857Y-62619D01*
X76829Y-62619D01*
X76818Y-62625D01*
X76812Y-62631D01*
X76807Y-62642D01*
X76807Y-62653D01*
X76812Y-62670D01*
X76880Y-62737D01*
X76807Y-62737D01*
X72044Y-61946D02*
X72050Y-61952D01*
X72067Y-61957D01*
X72078Y-61957D01*
X72095Y-61952D01*
X72106Y-61940D01*
X72112Y-61929D01*
X72117Y-61907D01*
X72117Y-61890D01*
X72112Y-61867D01*
X72106Y-61856D01*
X72095Y-61845D01*
X72078Y-61839D01*
X72067Y-61839D01*
X72050Y-61845D01*
X72044Y-61851D01*
X72005Y-61839D02*
X71932Y-61839D01*
X71971Y-61884D01*
X71954Y-61884D01*
X71943Y-61890D01*
X71937Y-61895D01*
X71932Y-61907D01*
X71932Y-61935D01*
X71937Y-61946D01*
X71943Y-61952D01*
X71954Y-61957D01*
X71988Y-61957D01*
X71999Y-61952D01*
X72005Y-61946D01*
X76619Y-54846D02*
X76625Y-54852D01*
X76642Y-54857D01*
X76653Y-54857D01*
X76670Y-54852D01*
X76681Y-54840D01*
X76687Y-54829D01*
X76692Y-54807D01*
X76692Y-54790D01*
X76687Y-54767D01*
X76681Y-54756D01*
X76670Y-54745D01*
X76653Y-54739D01*
X76642Y-54739D01*
X76625Y-54745D01*
X76619Y-54751D01*
X76512Y-54739D02*
X76569Y-54739D01*
X76574Y-54795D01*
X76569Y-54790D01*
X76557Y-54784D01*
X76529Y-54784D01*
X76518Y-54790D01*
X76512Y-54795D01*
X76507Y-54807D01*
X76507Y-54835D01*
X76512Y-54846D01*
X76518Y-54852D01*
X76529Y-54857D01*
X76557Y-54857D01*
X76569Y-54852D01*
X76574Y-54846D01*
X64346Y-49555D02*
X64352Y-49549D01*
X64357Y-49532D01*
X64357Y-49521D01*
X64352Y-49504D01*
X64340Y-49493D01*
X64329Y-49487D01*
X64307Y-49482D01*
X64290Y-49482D01*
X64267Y-49487D01*
X64256Y-49493D01*
X64245Y-49504D01*
X64239Y-49521D01*
X64239Y-49532D01*
X64245Y-49549D01*
X64251Y-49555D01*
X64239Y-49594D02*
X64239Y-49673D01*
X64357Y-49622D01*
X59846Y-49530D02*
X59852Y-49524D01*
X59857Y-49507D01*
X59857Y-49496D01*
X59852Y-49479D01*
X59840Y-49468D01*
X59829Y-49462D01*
X59807Y-49457D01*
X59790Y-49457D01*
X59767Y-49462D01*
X59756Y-49468D01*
X59745Y-49479D01*
X59739Y-49496D01*
X59739Y-49507D01*
X59745Y-49524D01*
X59751Y-49530D01*
X59790Y-49597D02*
X59784Y-49586D01*
X59779Y-49580D01*
X59767Y-49575D01*
X59762Y-49575D01*
X59751Y-49580D01*
X59745Y-49586D01*
X59739Y-49597D01*
X59739Y-49620D01*
X59745Y-49631D01*
X59751Y-49637D01*
X59762Y-49642D01*
X59767Y-49642D01*
X59779Y-49637D01*
X59784Y-49631D01*
X59790Y-49620D01*
X59790Y-49597D01*
X59795Y-49586D01*
X59801Y-49580D01*
X59812Y-49575D01*
X59835Y-49575D01*
X59846Y-49580D01*
X59852Y-49586D01*
X59857Y-49597D01*
X59857Y-49620D01*
X59852Y-49631D01*
X59846Y-49637D01*
X59835Y-49642D01*
X59812Y-49642D01*
X59801Y-49637D01*
X59795Y-49631D01*
X59790Y-49620D01*
M02*
