G04 (created by PCBNEW (2013-07-07 BZR 4022)-stable) date 5/31/2014 7:32:52 PM*
%MOIN*%
G04 Gerber Fmt 3.4, Leading zero omitted, Abs format*
%FSLAX34Y34*%
G01*
G70*
G90*
G04 APERTURE LIST*
%ADD10C,0.00590551*%
%ADD11C,0.055*%
%ADD12R,0.02X0.045*%
%ADD13R,0.055X0.035*%
%ADD14R,0.035X0.055*%
%ADD15R,0.06X0.06*%
%ADD16C,0.06*%
%ADD17C,0.056*%
%ADD18R,0.055X0.055*%
%ADD19R,0.1378X0.1378*%
%ADD20R,0.07X0.07*%
%ADD21C,0.07*%
%ADD22R,0.06X0.05*%
%ADD23C,0.05*%
%ADD24R,0.0945X0.1378*%
%ADD25C,0.04*%
%ADD26C,0.035*%
%ADD27C,0.01*%
%ADD28C,0.02*%
G04 APERTURE END LIST*
G54D10*
G54D11*
X61650Y-49425D03*
X61650Y-51425D03*
X58650Y-49425D03*
X58650Y-51425D03*
X66140Y-49400D03*
X66140Y-51400D03*
X63140Y-49400D03*
X63140Y-51400D03*
G54D12*
X58550Y-58100D03*
X59050Y-58100D03*
X59550Y-58100D03*
X60050Y-58100D03*
X60550Y-58100D03*
X61050Y-58100D03*
X61550Y-58100D03*
X61550Y-55600D03*
X61050Y-55600D03*
X60050Y-55600D03*
X59550Y-55600D03*
X59050Y-55600D03*
X58550Y-55600D03*
X60550Y-55600D03*
G54D13*
X77650Y-61725D03*
X77650Y-62475D03*
X78975Y-51600D03*
X78975Y-52350D03*
X77975Y-51600D03*
X77975Y-52350D03*
X79975Y-51600D03*
X79975Y-52350D03*
X74975Y-51525D03*
X74975Y-52275D03*
X74000Y-51525D03*
X74000Y-52275D03*
X73025Y-51525D03*
X73025Y-52275D03*
X72075Y-51525D03*
X72075Y-52275D03*
X71025Y-51525D03*
X71025Y-52275D03*
X78725Y-61725D03*
X78725Y-62475D03*
G54D14*
X61250Y-61000D03*
X62000Y-61000D03*
X65675Y-56500D03*
X64925Y-56500D03*
G54D13*
X69200Y-61725D03*
X69200Y-62475D03*
G54D14*
X61975Y-61850D03*
X61225Y-61850D03*
G54D13*
X70025Y-52250D03*
X70025Y-51500D03*
X68175Y-61725D03*
X68175Y-62475D03*
X80950Y-51600D03*
X80950Y-52350D03*
X83025Y-61725D03*
X83025Y-62475D03*
X70250Y-61725D03*
X70250Y-62475D03*
X71275Y-61725D03*
X71275Y-62475D03*
X82925Y-52350D03*
X82925Y-51600D03*
X81950Y-52350D03*
X81950Y-51600D03*
X79750Y-61725D03*
X79750Y-62475D03*
G54D15*
X89225Y-49800D03*
G54D16*
X89225Y-50800D03*
X89225Y-51800D03*
G54D15*
X66150Y-62600D03*
G54D16*
X65150Y-62600D03*
G54D15*
X61100Y-65075D03*
G54D16*
X62100Y-65075D03*
X63100Y-65075D03*
X64100Y-65075D03*
X65100Y-65075D03*
X66100Y-65075D03*
X75000Y-65800D03*
G54D15*
X70000Y-65800D03*
G54D16*
X71000Y-65800D03*
X72000Y-65800D03*
X73000Y-65800D03*
X74000Y-65800D03*
X75000Y-65800D03*
X76000Y-65800D03*
X77000Y-65800D03*
X78000Y-65800D03*
X79000Y-65800D03*
X80000Y-65800D03*
X81000Y-65800D03*
X76050Y-49275D03*
G54D15*
X81050Y-49275D03*
G54D16*
X80050Y-49275D03*
X79050Y-49275D03*
X78050Y-49275D03*
X77050Y-49275D03*
X76050Y-49275D03*
X75050Y-49275D03*
X74050Y-49275D03*
X73050Y-49275D03*
X72050Y-49275D03*
X71050Y-49275D03*
X70050Y-49275D03*
G54D17*
X73500Y-62300D03*
X75500Y-62300D03*
G54D18*
X83000Y-53900D03*
G54D11*
X82000Y-53900D03*
X81000Y-53900D03*
X80000Y-53900D03*
X79000Y-53900D03*
X78000Y-53900D03*
X77000Y-53900D03*
X76000Y-53900D03*
X75000Y-53900D03*
X74000Y-53900D03*
X73000Y-53900D03*
X72000Y-53900D03*
X71000Y-53900D03*
X70000Y-53900D03*
X70000Y-59900D03*
X71000Y-59900D03*
X72000Y-59900D03*
X73000Y-59900D03*
X74000Y-59900D03*
X75000Y-59900D03*
X76000Y-59900D03*
X77000Y-59900D03*
X78000Y-59900D03*
X79000Y-59900D03*
X80000Y-59900D03*
X81000Y-59900D03*
X82000Y-59900D03*
X83000Y-59900D03*
G54D19*
X91084Y-50825D03*
X93446Y-50825D03*
X92265Y-48975D03*
G54D20*
X91560Y-55290D03*
G54D21*
X92560Y-55290D03*
X93560Y-55290D03*
G54D22*
X58962Y-60425D03*
G54D23*
X59750Y-60425D03*
X58962Y-61212D03*
X59750Y-61212D03*
X58962Y-62000D03*
X59750Y-62000D03*
X58962Y-62787D03*
X59750Y-62787D03*
X58962Y-63574D03*
X59750Y-63574D03*
G54D24*
X93600Y-58120D03*
X93600Y-60680D03*
X89800Y-58220D03*
X89800Y-60780D03*
G54D25*
X61600Y-57025D03*
X77925Y-56300D03*
X85400Y-56325D03*
X89800Y-63000D03*
X77275Y-61150D03*
X76600Y-56400D03*
X85425Y-55525D03*
X61100Y-65075D03*
X59250Y-57475D03*
G54D26*
X80175Y-63850D03*
X82450Y-49775D03*
X69050Y-65100D03*
X79750Y-50925D03*
X69350Y-64000D03*
X61200Y-58675D03*
X59725Y-59125D03*
X64325Y-57475D03*
X80400Y-53025D03*
X67350Y-53075D03*
X64200Y-60475D03*
X67400Y-55950D03*
X67325Y-57425D03*
X70450Y-50900D03*
X65075Y-59000D03*
X66350Y-56300D03*
X67750Y-56475D03*
X67600Y-57800D03*
X78325Y-63200D03*
X77350Y-63325D03*
G54D27*
X80825Y-61550D02*
X80875Y-61725D01*
G54D28*
X91600Y-57000D02*
X90000Y-57000D01*
X92560Y-56040D02*
X91600Y-57000D01*
X92560Y-55290D02*
X92560Y-56040D01*
X89800Y-57200D02*
X89800Y-58220D01*
X90000Y-57000D02*
X89800Y-57200D01*
X58550Y-56525D02*
X58550Y-55600D01*
X59000Y-56975D02*
X58550Y-56525D01*
X61550Y-56975D02*
X59000Y-56975D01*
X61600Y-57025D02*
X61550Y-56975D01*
X85375Y-56300D02*
X77925Y-56300D01*
X85400Y-56325D02*
X85375Y-56300D01*
X93600Y-60680D02*
X93600Y-62200D01*
X89800Y-63000D02*
X89800Y-60780D01*
X92800Y-63000D02*
X89800Y-63000D01*
X93600Y-62200D02*
X92800Y-63000D01*
X77000Y-59900D02*
X77000Y-60875D01*
X77000Y-60875D02*
X77275Y-61150D01*
X76600Y-56400D02*
X76600Y-56375D01*
X77450Y-55525D02*
X85425Y-55525D01*
X76600Y-56375D02*
X77450Y-55525D01*
X61975Y-61850D02*
X62550Y-61850D01*
X62550Y-61850D02*
X62800Y-62100D01*
X62800Y-62100D02*
X62800Y-64375D01*
X62800Y-64375D02*
X62100Y-65075D01*
X61550Y-58100D02*
X61550Y-57650D01*
X61375Y-57475D02*
X60325Y-57475D01*
X61550Y-57650D02*
X61375Y-57475D01*
X60550Y-58100D02*
X60550Y-57700D01*
X60325Y-57475D02*
X59250Y-57475D01*
X60550Y-57700D02*
X60325Y-57475D01*
X59050Y-58100D02*
X59050Y-57675D01*
X59050Y-57675D02*
X59250Y-57475D01*
X77000Y-59900D02*
X77000Y-56800D01*
X76000Y-55800D02*
X76600Y-56400D01*
X76000Y-55800D02*
X76000Y-53900D01*
X77000Y-56800D02*
X76600Y-56400D01*
G54D27*
X83000Y-53900D02*
X83000Y-52425D01*
X83000Y-52425D02*
X82925Y-52350D01*
X81000Y-53900D02*
X81000Y-52400D01*
X81000Y-52400D02*
X80950Y-52350D01*
X70250Y-61725D02*
X70250Y-61050D01*
X71100Y-60800D02*
X72000Y-59900D01*
X70500Y-60800D02*
X71100Y-60800D01*
X70250Y-61050D02*
X70500Y-60800D01*
X73000Y-59900D02*
X73000Y-60250D01*
X71275Y-61125D02*
X71275Y-61725D01*
X71625Y-60775D02*
X71275Y-61125D01*
X72475Y-60775D02*
X71625Y-60775D01*
X73000Y-60250D02*
X72475Y-60775D01*
X79000Y-59900D02*
X79000Y-60175D01*
X78725Y-60450D02*
X78725Y-61725D01*
X79000Y-60175D02*
X78725Y-60450D01*
X80000Y-59900D02*
X80000Y-60200D01*
X79750Y-60450D02*
X79750Y-61725D01*
X80000Y-60200D02*
X79750Y-60450D01*
X82000Y-53900D02*
X82000Y-52400D01*
X82000Y-52400D02*
X81950Y-52350D01*
X71000Y-53900D02*
X71000Y-52300D01*
X71000Y-52300D02*
X71025Y-52275D01*
G54D28*
X91084Y-50825D02*
X91084Y-50659D01*
X90225Y-49800D02*
X89225Y-49800D01*
X91084Y-50659D02*
X90225Y-49800D01*
G54D27*
X72000Y-53900D02*
X72000Y-52350D01*
X72000Y-52350D02*
X72075Y-52275D01*
X70000Y-53900D02*
X70000Y-52275D01*
X70000Y-52275D02*
X70025Y-52250D01*
X70000Y-59900D02*
X69125Y-59900D01*
X68175Y-60850D02*
X68175Y-61725D01*
X69125Y-59900D02*
X68175Y-60850D01*
X69200Y-61725D02*
X69200Y-61700D01*
X69200Y-61700D02*
X71000Y-59900D01*
X83025Y-63075D02*
X83025Y-62475D01*
X82300Y-63850D02*
X83025Y-63075D01*
X80225Y-63850D02*
X82300Y-63850D01*
X80175Y-63850D02*
X80225Y-63850D01*
X83000Y-59900D02*
X83000Y-61700D01*
X83000Y-61700D02*
X83025Y-61725D01*
X74000Y-51525D02*
X74000Y-50900D01*
X75025Y-49300D02*
X75050Y-49275D01*
X75025Y-49875D02*
X75025Y-49300D01*
X74000Y-50900D02*
X75025Y-49875D01*
X68375Y-59500D02*
X68375Y-52300D01*
X70000Y-65500D02*
X68325Y-63825D01*
X68325Y-63825D02*
X67275Y-62775D01*
X67275Y-62775D02*
X67275Y-60600D01*
X67275Y-60600D02*
X68375Y-59500D01*
X70000Y-65800D02*
X70000Y-65500D01*
X69175Y-51500D02*
X70025Y-51500D01*
X68375Y-52300D02*
X69175Y-51500D01*
X79000Y-65800D02*
X79000Y-65075D01*
X79750Y-64325D02*
X79750Y-62475D01*
X79000Y-65075D02*
X79750Y-64325D01*
X81950Y-51600D02*
X81950Y-50275D01*
X81950Y-50275D02*
X82450Y-49775D01*
X82925Y-51600D02*
X82925Y-50925D01*
X82250Y-65800D02*
X81000Y-65800D01*
X85975Y-62400D02*
X82250Y-65800D01*
X85975Y-51275D02*
X85975Y-62400D01*
X84675Y-50300D02*
X85975Y-51275D01*
X83550Y-50300D02*
X84675Y-50300D01*
X82925Y-50925D02*
X83550Y-50300D01*
X73000Y-53900D02*
X73000Y-52300D01*
X73000Y-52300D02*
X73025Y-52275D01*
X71025Y-51525D02*
X71025Y-51000D01*
X72050Y-49975D02*
X72050Y-49275D01*
X71025Y-51000D02*
X72050Y-49975D01*
X73025Y-51525D02*
X73025Y-50975D01*
X74025Y-49300D02*
X74050Y-49275D01*
X74025Y-49975D02*
X74025Y-49300D01*
X73025Y-50975D02*
X74025Y-49975D01*
X65100Y-65075D02*
X65100Y-65475D01*
X68175Y-65975D02*
X69050Y-65100D01*
X65600Y-65975D02*
X68175Y-65975D01*
X65100Y-65475D02*
X65600Y-65975D01*
X69200Y-62475D02*
X69200Y-63000D01*
X69200Y-63000D02*
X72000Y-65800D01*
X74975Y-51525D02*
X74975Y-50925D01*
X76025Y-49300D02*
X76050Y-49275D01*
X76025Y-49875D02*
X76025Y-49300D01*
X74975Y-50925D02*
X76025Y-49875D01*
X79975Y-51150D02*
X79975Y-51600D01*
X79750Y-50925D02*
X79975Y-51150D01*
X77975Y-51600D02*
X77975Y-49350D01*
X77975Y-49350D02*
X78050Y-49275D01*
X78975Y-51600D02*
X78975Y-49350D01*
X78975Y-49350D02*
X79050Y-49275D01*
X74000Y-53900D02*
X74000Y-52275D01*
X66150Y-62600D02*
X66125Y-65050D01*
X66125Y-65050D02*
X66100Y-65075D01*
X68175Y-62475D02*
X68175Y-62825D01*
X68175Y-62825D02*
X69350Y-64000D01*
X71000Y-65650D02*
X71000Y-65800D01*
X69350Y-64000D02*
X71000Y-65650D01*
X68175Y-62650D02*
X68175Y-62475D01*
X61050Y-58525D02*
X61200Y-58675D01*
X61050Y-58100D02*
X61050Y-58525D01*
X59550Y-58950D02*
X59550Y-58100D01*
X59725Y-59125D02*
X59550Y-58950D01*
X75000Y-53900D02*
X75000Y-52300D01*
X75000Y-52300D02*
X74975Y-52275D01*
X61650Y-49425D02*
X61750Y-49425D01*
X62675Y-56500D02*
X64925Y-56500D01*
X62375Y-56200D02*
X62675Y-56500D01*
X62375Y-50050D02*
X62375Y-56200D01*
X61750Y-49425D02*
X62375Y-50050D01*
X64325Y-57475D02*
X64925Y-56875D01*
X64925Y-56875D02*
X64925Y-56500D01*
X67350Y-53075D02*
X67350Y-53225D01*
X80950Y-51600D02*
X80450Y-52100D01*
X80450Y-52975D02*
X80450Y-52100D01*
X80400Y-53025D02*
X80450Y-52975D01*
X66700Y-53875D02*
X66700Y-57975D01*
X67350Y-53225D02*
X66700Y-53875D01*
X64200Y-60475D02*
X66700Y-57975D01*
X80950Y-51600D02*
X80912Y-51637D01*
X81012Y-51537D02*
X81050Y-49275D01*
X80912Y-51637D02*
X81012Y-51537D01*
X59750Y-61212D02*
X60587Y-61212D01*
X60587Y-61212D02*
X61225Y-61850D01*
X67400Y-57350D02*
X67400Y-55950D01*
X67325Y-57425D02*
X67400Y-57350D01*
X78000Y-59900D02*
X78000Y-60075D01*
X77650Y-60425D02*
X77650Y-61725D01*
X78000Y-60075D02*
X77650Y-60425D01*
X80000Y-53900D02*
X80000Y-52375D01*
X80000Y-52375D02*
X79975Y-52350D01*
X71275Y-62475D02*
X71275Y-63325D01*
X75000Y-64875D02*
X75000Y-65800D01*
X74425Y-64300D02*
X75000Y-64875D01*
X72250Y-64300D02*
X74425Y-64300D01*
X71275Y-63325D02*
X72250Y-64300D01*
X70250Y-62475D02*
X70250Y-63025D01*
X74000Y-65175D02*
X74000Y-65800D01*
X73525Y-64700D02*
X74000Y-65175D01*
X71925Y-64700D02*
X73525Y-64700D01*
X70250Y-63025D02*
X71925Y-64700D01*
X59750Y-60425D02*
X60675Y-60425D01*
X60675Y-60425D02*
X61250Y-61000D01*
X62000Y-61000D02*
X66100Y-61000D01*
X68850Y-50900D02*
X70450Y-50900D01*
X68100Y-51750D02*
X68850Y-50900D01*
X68100Y-59100D02*
X68100Y-51750D01*
X66100Y-61000D02*
X68100Y-59100D01*
X73050Y-49275D02*
X73050Y-50025D01*
X72125Y-51475D02*
X72075Y-51525D01*
X72125Y-50950D02*
X72125Y-51475D01*
X73050Y-50025D02*
X72125Y-50950D01*
X77975Y-52350D02*
X77975Y-53875D01*
X77975Y-53875D02*
X78000Y-53900D01*
X79000Y-53900D02*
X79000Y-52375D01*
X79000Y-52375D02*
X78975Y-52350D01*
G54D28*
X89225Y-51800D02*
X88525Y-51800D01*
X63100Y-65325D02*
X64250Y-66475D01*
X64250Y-66475D02*
X84000Y-66475D01*
X84000Y-66475D02*
X87625Y-62850D01*
X87625Y-62850D02*
X87625Y-52700D01*
X63100Y-65325D02*
X63100Y-65075D01*
X88525Y-51800D02*
X87625Y-52700D01*
X63100Y-65075D02*
X63100Y-65700D01*
X58200Y-61187D02*
X58962Y-60425D01*
X58200Y-64800D02*
X58200Y-61187D01*
X59325Y-65925D02*
X58200Y-64800D01*
X62875Y-65925D02*
X59325Y-65925D01*
X63100Y-65700D02*
X62875Y-65925D01*
G54D27*
X60050Y-58525D02*
X60050Y-58925D01*
X60050Y-58100D02*
X60050Y-58525D01*
X60050Y-58925D02*
X60800Y-59675D01*
X58550Y-58650D02*
X58550Y-58925D01*
X58550Y-58100D02*
X58550Y-58650D01*
X65075Y-59000D02*
X64800Y-58825D01*
X64800Y-58825D02*
X64425Y-58825D01*
X64450Y-58825D02*
X64425Y-58825D01*
X63600Y-59675D02*
X64450Y-58825D01*
X59300Y-59675D02*
X60800Y-59675D01*
X60800Y-59675D02*
X63600Y-59675D01*
X58550Y-58925D02*
X59300Y-59675D01*
G54D28*
X93560Y-55290D02*
X93560Y-58080D01*
X93560Y-58080D02*
X93600Y-58120D01*
G54D27*
X75000Y-59900D02*
X75000Y-61800D01*
X75000Y-61800D02*
X75500Y-62300D01*
X74000Y-59900D02*
X74000Y-61800D01*
X74000Y-61800D02*
X73500Y-62300D01*
X67600Y-57800D02*
X67600Y-57675D01*
X66150Y-56500D02*
X65675Y-56500D01*
X66350Y-56300D02*
X66150Y-56500D01*
X67750Y-57525D02*
X67750Y-56475D01*
X67600Y-57675D02*
X67750Y-57525D01*
X67600Y-57800D02*
X67600Y-57700D01*
X78725Y-62475D02*
X78725Y-62800D01*
X67600Y-57800D02*
X67575Y-57825D01*
X78725Y-62800D02*
X78325Y-63200D01*
X78725Y-62475D02*
X78725Y-64275D01*
X78000Y-65000D02*
X78000Y-65800D01*
X78725Y-64275D02*
X78000Y-65000D01*
X77650Y-63225D02*
X77450Y-63225D01*
X77450Y-63225D02*
X77350Y-63325D01*
X77650Y-62475D02*
X77650Y-63225D01*
X77650Y-63225D02*
X77650Y-63500D01*
X77650Y-63500D02*
X77650Y-64300D01*
X77000Y-64950D02*
X77000Y-65800D01*
X77650Y-64300D02*
X77000Y-64950D01*
G54D10*
G36*
X77350Y-64175D02*
X76787Y-64737D01*
X76722Y-64835D01*
X76700Y-64950D01*
X76700Y-65328D01*
X76688Y-65333D01*
X76534Y-65488D01*
X76500Y-65569D01*
X76466Y-65488D01*
X76311Y-65334D01*
X76297Y-65327D01*
X76297Y-60267D01*
X76000Y-59970D01*
X75702Y-60267D01*
X75727Y-60360D01*
X75924Y-60429D01*
X76132Y-60418D01*
X76272Y-60360D01*
X76297Y-60267D01*
X76297Y-65327D01*
X76109Y-65250D01*
X75891Y-65249D01*
X75688Y-65333D01*
X75534Y-65488D01*
X75500Y-65569D01*
X75466Y-65488D01*
X75311Y-65334D01*
X75300Y-65329D01*
X75300Y-64875D01*
X75299Y-64874D01*
X75277Y-64760D01*
X75212Y-64662D01*
X75212Y-64662D01*
X74637Y-64087D01*
X74539Y-64022D01*
X74425Y-64000D01*
X72374Y-64000D01*
X71575Y-63200D01*
X71575Y-62900D01*
X71599Y-62900D01*
X71691Y-62862D01*
X71761Y-62791D01*
X71799Y-62699D01*
X71800Y-62600D01*
X71800Y-62250D01*
X71762Y-62158D01*
X71703Y-62099D01*
X71761Y-62041D01*
X71799Y-61949D01*
X71800Y-61850D01*
X71800Y-61500D01*
X71762Y-61408D01*
X71691Y-61338D01*
X71599Y-61300D01*
X71575Y-61300D01*
X71575Y-61249D01*
X71749Y-61075D01*
X72475Y-61075D01*
X72475Y-61074D01*
X72589Y-61052D01*
X72589Y-61052D01*
X72687Y-60987D01*
X73212Y-60462D01*
X73212Y-60462D01*
X73277Y-60364D01*
X73279Y-60352D01*
X73297Y-60345D01*
X73444Y-60197D01*
X73500Y-60064D01*
X73554Y-60197D01*
X73700Y-60342D01*
X73700Y-61675D01*
X73605Y-61770D01*
X73395Y-61769D01*
X73200Y-61850D01*
X73050Y-61999D01*
X72970Y-62194D01*
X72969Y-62404D01*
X73050Y-62599D01*
X73199Y-62749D01*
X73394Y-62829D01*
X73604Y-62830D01*
X73799Y-62749D01*
X73949Y-62600D01*
X74029Y-62405D01*
X74030Y-62195D01*
X74029Y-62194D01*
X74212Y-62012D01*
X74212Y-62012D01*
X74277Y-61914D01*
X74299Y-61800D01*
X74300Y-61800D01*
X74300Y-60342D01*
X74444Y-60197D01*
X74500Y-60064D01*
X74554Y-60197D01*
X74700Y-60342D01*
X74700Y-61800D01*
X74722Y-61914D01*
X74787Y-62012D01*
X74970Y-62194D01*
X74969Y-62404D01*
X75050Y-62599D01*
X75199Y-62749D01*
X75394Y-62829D01*
X75604Y-62830D01*
X75799Y-62749D01*
X75949Y-62600D01*
X76029Y-62405D01*
X76030Y-62195D01*
X75949Y-62000D01*
X75800Y-61850D01*
X75605Y-61770D01*
X75395Y-61769D01*
X75394Y-61770D01*
X75300Y-61675D01*
X75300Y-60342D01*
X75444Y-60197D01*
X75497Y-60071D01*
X75539Y-60172D01*
X75632Y-60197D01*
X75929Y-59900D01*
X75632Y-59602D01*
X75539Y-59627D01*
X75500Y-59737D01*
X75445Y-59603D01*
X75297Y-59455D01*
X75104Y-59375D01*
X74896Y-59374D01*
X74703Y-59454D01*
X74555Y-59602D01*
X74499Y-59735D01*
X74445Y-59603D01*
X74297Y-59455D01*
X74104Y-59375D01*
X73896Y-59374D01*
X73703Y-59454D01*
X73555Y-59602D01*
X73499Y-59735D01*
X73445Y-59603D01*
X73297Y-59455D01*
X73104Y-59375D01*
X72896Y-59374D01*
X72703Y-59454D01*
X72555Y-59602D01*
X72499Y-59735D01*
X72445Y-59603D01*
X72297Y-59455D01*
X72104Y-59375D01*
X71896Y-59374D01*
X71703Y-59454D01*
X71555Y-59602D01*
X71499Y-59735D01*
X71445Y-59603D01*
X71297Y-59455D01*
X71104Y-59375D01*
X70896Y-59374D01*
X70703Y-59454D01*
X70555Y-59602D01*
X70499Y-59735D01*
X70445Y-59603D01*
X70297Y-59455D01*
X70104Y-59375D01*
X69896Y-59374D01*
X69703Y-59454D01*
X69557Y-59600D01*
X69125Y-59600D01*
X69010Y-59622D01*
X68912Y-59687D01*
X67962Y-60637D01*
X67897Y-60735D01*
X67875Y-60850D01*
X67875Y-61299D01*
X67850Y-61299D01*
X67758Y-61337D01*
X67688Y-61408D01*
X67650Y-61500D01*
X67649Y-61599D01*
X67649Y-61949D01*
X67687Y-62041D01*
X67746Y-62100D01*
X67688Y-62158D01*
X67650Y-62250D01*
X67649Y-62349D01*
X67649Y-62699D01*
X67668Y-62744D01*
X67575Y-62650D01*
X67575Y-60724D01*
X68587Y-59712D01*
X68587Y-59712D01*
X68652Y-59614D01*
X68674Y-59500D01*
X68675Y-59500D01*
X68675Y-52424D01*
X69299Y-51800D01*
X69531Y-51800D01*
X69537Y-51816D01*
X69596Y-51875D01*
X69538Y-51933D01*
X69500Y-52025D01*
X69499Y-52124D01*
X69499Y-52474D01*
X69537Y-52566D01*
X69608Y-52636D01*
X69700Y-52674D01*
X69700Y-53457D01*
X69555Y-53602D01*
X69475Y-53795D01*
X69474Y-54003D01*
X69554Y-54197D01*
X69702Y-54344D01*
X69895Y-54424D01*
X70103Y-54425D01*
X70297Y-54345D01*
X70444Y-54197D01*
X70500Y-54064D01*
X70554Y-54197D01*
X70702Y-54344D01*
X70895Y-54424D01*
X71103Y-54425D01*
X71297Y-54345D01*
X71444Y-54197D01*
X71500Y-54064D01*
X71554Y-54197D01*
X71702Y-54344D01*
X71895Y-54424D01*
X72103Y-54425D01*
X72297Y-54345D01*
X72444Y-54197D01*
X72500Y-54064D01*
X72554Y-54197D01*
X72702Y-54344D01*
X72895Y-54424D01*
X73103Y-54425D01*
X73297Y-54345D01*
X73444Y-54197D01*
X73500Y-54064D01*
X73554Y-54197D01*
X73702Y-54344D01*
X73895Y-54424D01*
X74103Y-54425D01*
X74297Y-54345D01*
X74444Y-54197D01*
X74500Y-54064D01*
X74554Y-54197D01*
X74702Y-54344D01*
X74895Y-54424D01*
X75103Y-54425D01*
X75297Y-54345D01*
X75444Y-54197D01*
X75500Y-54064D01*
X75554Y-54197D01*
X75650Y-54292D01*
X75650Y-55800D01*
X75676Y-55933D01*
X75752Y-56047D01*
X76149Y-56444D01*
X76149Y-56489D01*
X76218Y-56654D01*
X76344Y-56781D01*
X76510Y-56849D01*
X76554Y-56849D01*
X76650Y-56944D01*
X76650Y-59507D01*
X76555Y-59602D01*
X76502Y-59728D01*
X76460Y-59627D01*
X76367Y-59602D01*
X76297Y-59673D01*
X76297Y-59532D01*
X76272Y-59439D01*
X76075Y-59370D01*
X75867Y-59381D01*
X75727Y-59439D01*
X75702Y-59532D01*
X76000Y-59829D01*
X76297Y-59532D01*
X76297Y-59673D01*
X76070Y-59900D01*
X76367Y-60197D01*
X76460Y-60172D01*
X76499Y-60062D01*
X76554Y-60197D01*
X76650Y-60292D01*
X76650Y-60875D01*
X76676Y-61008D01*
X76752Y-61122D01*
X76824Y-61194D01*
X76824Y-61239D01*
X76893Y-61404D01*
X77019Y-61531D01*
X77124Y-61574D01*
X77124Y-61599D01*
X77124Y-61949D01*
X77162Y-62041D01*
X77221Y-62100D01*
X77163Y-62158D01*
X77125Y-62250D01*
X77124Y-62349D01*
X77124Y-62699D01*
X77162Y-62791D01*
X77233Y-62861D01*
X77325Y-62899D01*
X77350Y-62899D01*
X77350Y-62899D01*
X77265Y-62899D01*
X77109Y-62964D01*
X76989Y-63083D01*
X76925Y-63240D01*
X76924Y-63409D01*
X76989Y-63565D01*
X77108Y-63685D01*
X77265Y-63749D01*
X77350Y-63750D01*
X77350Y-64175D01*
X77350Y-64175D01*
G37*
G54D27*
X77350Y-64175D02*
X76787Y-64737D01*
X76722Y-64835D01*
X76700Y-64950D01*
X76700Y-65328D01*
X76688Y-65333D01*
X76534Y-65488D01*
X76500Y-65569D01*
X76466Y-65488D01*
X76311Y-65334D01*
X76297Y-65327D01*
X76297Y-60267D01*
X76000Y-59970D01*
X75702Y-60267D01*
X75727Y-60360D01*
X75924Y-60429D01*
X76132Y-60418D01*
X76272Y-60360D01*
X76297Y-60267D01*
X76297Y-65327D01*
X76109Y-65250D01*
X75891Y-65249D01*
X75688Y-65333D01*
X75534Y-65488D01*
X75500Y-65569D01*
X75466Y-65488D01*
X75311Y-65334D01*
X75300Y-65329D01*
X75300Y-64875D01*
X75299Y-64874D01*
X75277Y-64760D01*
X75212Y-64662D01*
X75212Y-64662D01*
X74637Y-64087D01*
X74539Y-64022D01*
X74425Y-64000D01*
X72374Y-64000D01*
X71575Y-63200D01*
X71575Y-62900D01*
X71599Y-62900D01*
X71691Y-62862D01*
X71761Y-62791D01*
X71799Y-62699D01*
X71800Y-62600D01*
X71800Y-62250D01*
X71762Y-62158D01*
X71703Y-62099D01*
X71761Y-62041D01*
X71799Y-61949D01*
X71800Y-61850D01*
X71800Y-61500D01*
X71762Y-61408D01*
X71691Y-61338D01*
X71599Y-61300D01*
X71575Y-61300D01*
X71575Y-61249D01*
X71749Y-61075D01*
X72475Y-61075D01*
X72475Y-61074D01*
X72589Y-61052D01*
X72589Y-61052D01*
X72687Y-60987D01*
X73212Y-60462D01*
X73212Y-60462D01*
X73277Y-60364D01*
X73279Y-60352D01*
X73297Y-60345D01*
X73444Y-60197D01*
X73500Y-60064D01*
X73554Y-60197D01*
X73700Y-60342D01*
X73700Y-61675D01*
X73605Y-61770D01*
X73395Y-61769D01*
X73200Y-61850D01*
X73050Y-61999D01*
X72970Y-62194D01*
X72969Y-62404D01*
X73050Y-62599D01*
X73199Y-62749D01*
X73394Y-62829D01*
X73604Y-62830D01*
X73799Y-62749D01*
X73949Y-62600D01*
X74029Y-62405D01*
X74030Y-62195D01*
X74029Y-62194D01*
X74212Y-62012D01*
X74212Y-62012D01*
X74277Y-61914D01*
X74299Y-61800D01*
X74300Y-61800D01*
X74300Y-60342D01*
X74444Y-60197D01*
X74500Y-60064D01*
X74554Y-60197D01*
X74700Y-60342D01*
X74700Y-61800D01*
X74722Y-61914D01*
X74787Y-62012D01*
X74970Y-62194D01*
X74969Y-62404D01*
X75050Y-62599D01*
X75199Y-62749D01*
X75394Y-62829D01*
X75604Y-62830D01*
X75799Y-62749D01*
X75949Y-62600D01*
X76029Y-62405D01*
X76030Y-62195D01*
X75949Y-62000D01*
X75800Y-61850D01*
X75605Y-61770D01*
X75395Y-61769D01*
X75394Y-61770D01*
X75300Y-61675D01*
X75300Y-60342D01*
X75444Y-60197D01*
X75497Y-60071D01*
X75539Y-60172D01*
X75632Y-60197D01*
X75929Y-59900D01*
X75632Y-59602D01*
X75539Y-59627D01*
X75500Y-59737D01*
X75445Y-59603D01*
X75297Y-59455D01*
X75104Y-59375D01*
X74896Y-59374D01*
X74703Y-59454D01*
X74555Y-59602D01*
X74499Y-59735D01*
X74445Y-59603D01*
X74297Y-59455D01*
X74104Y-59375D01*
X73896Y-59374D01*
X73703Y-59454D01*
X73555Y-59602D01*
X73499Y-59735D01*
X73445Y-59603D01*
X73297Y-59455D01*
X73104Y-59375D01*
X72896Y-59374D01*
X72703Y-59454D01*
X72555Y-59602D01*
X72499Y-59735D01*
X72445Y-59603D01*
X72297Y-59455D01*
X72104Y-59375D01*
X71896Y-59374D01*
X71703Y-59454D01*
X71555Y-59602D01*
X71499Y-59735D01*
X71445Y-59603D01*
X71297Y-59455D01*
X71104Y-59375D01*
X70896Y-59374D01*
X70703Y-59454D01*
X70555Y-59602D01*
X70499Y-59735D01*
X70445Y-59603D01*
X70297Y-59455D01*
X70104Y-59375D01*
X69896Y-59374D01*
X69703Y-59454D01*
X69557Y-59600D01*
X69125Y-59600D01*
X69010Y-59622D01*
X68912Y-59687D01*
X67962Y-60637D01*
X67897Y-60735D01*
X67875Y-60850D01*
X67875Y-61299D01*
X67850Y-61299D01*
X67758Y-61337D01*
X67688Y-61408D01*
X67650Y-61500D01*
X67649Y-61599D01*
X67649Y-61949D01*
X67687Y-62041D01*
X67746Y-62100D01*
X67688Y-62158D01*
X67650Y-62250D01*
X67649Y-62349D01*
X67649Y-62699D01*
X67668Y-62744D01*
X67575Y-62650D01*
X67575Y-60724D01*
X68587Y-59712D01*
X68587Y-59712D01*
X68652Y-59614D01*
X68674Y-59500D01*
X68675Y-59500D01*
X68675Y-52424D01*
X69299Y-51800D01*
X69531Y-51800D01*
X69537Y-51816D01*
X69596Y-51875D01*
X69538Y-51933D01*
X69500Y-52025D01*
X69499Y-52124D01*
X69499Y-52474D01*
X69537Y-52566D01*
X69608Y-52636D01*
X69700Y-52674D01*
X69700Y-53457D01*
X69555Y-53602D01*
X69475Y-53795D01*
X69474Y-54003D01*
X69554Y-54197D01*
X69702Y-54344D01*
X69895Y-54424D01*
X70103Y-54425D01*
X70297Y-54345D01*
X70444Y-54197D01*
X70500Y-54064D01*
X70554Y-54197D01*
X70702Y-54344D01*
X70895Y-54424D01*
X71103Y-54425D01*
X71297Y-54345D01*
X71444Y-54197D01*
X71500Y-54064D01*
X71554Y-54197D01*
X71702Y-54344D01*
X71895Y-54424D01*
X72103Y-54425D01*
X72297Y-54345D01*
X72444Y-54197D01*
X72500Y-54064D01*
X72554Y-54197D01*
X72702Y-54344D01*
X72895Y-54424D01*
X73103Y-54425D01*
X73297Y-54345D01*
X73444Y-54197D01*
X73500Y-54064D01*
X73554Y-54197D01*
X73702Y-54344D01*
X73895Y-54424D01*
X74103Y-54425D01*
X74297Y-54345D01*
X74444Y-54197D01*
X74500Y-54064D01*
X74554Y-54197D01*
X74702Y-54344D01*
X74895Y-54424D01*
X75103Y-54425D01*
X75297Y-54345D01*
X75444Y-54197D01*
X75500Y-54064D01*
X75554Y-54197D01*
X75650Y-54292D01*
X75650Y-55800D01*
X75676Y-55933D01*
X75752Y-56047D01*
X76149Y-56444D01*
X76149Y-56489D01*
X76218Y-56654D01*
X76344Y-56781D01*
X76510Y-56849D01*
X76554Y-56849D01*
X76650Y-56944D01*
X76650Y-59507D01*
X76555Y-59602D01*
X76502Y-59728D01*
X76460Y-59627D01*
X76367Y-59602D01*
X76297Y-59673D01*
X76297Y-59532D01*
X76272Y-59439D01*
X76075Y-59370D01*
X75867Y-59381D01*
X75727Y-59439D01*
X75702Y-59532D01*
X76000Y-59829D01*
X76297Y-59532D01*
X76297Y-59673D01*
X76070Y-59900D01*
X76367Y-60197D01*
X76460Y-60172D01*
X76499Y-60062D01*
X76554Y-60197D01*
X76650Y-60292D01*
X76650Y-60875D01*
X76676Y-61008D01*
X76752Y-61122D01*
X76824Y-61194D01*
X76824Y-61239D01*
X76893Y-61404D01*
X77019Y-61531D01*
X77124Y-61574D01*
X77124Y-61599D01*
X77124Y-61949D01*
X77162Y-62041D01*
X77221Y-62100D01*
X77163Y-62158D01*
X77125Y-62250D01*
X77124Y-62349D01*
X77124Y-62699D01*
X77162Y-62791D01*
X77233Y-62861D01*
X77325Y-62899D01*
X77350Y-62899D01*
X77350Y-62899D01*
X77265Y-62899D01*
X77109Y-62964D01*
X76989Y-63083D01*
X76925Y-63240D01*
X76924Y-63409D01*
X76989Y-63565D01*
X77108Y-63685D01*
X77265Y-63749D01*
X77350Y-63750D01*
X77350Y-64175D01*
G54D10*
G36*
X85675Y-55141D02*
X85514Y-55075D01*
X85335Y-55074D01*
X85170Y-55143D01*
X85138Y-55175D01*
X77450Y-55175D01*
X77316Y-55201D01*
X77297Y-55214D01*
X77297Y-54267D01*
X77000Y-53970D01*
X76702Y-54267D01*
X76727Y-54360D01*
X76924Y-54429D01*
X77132Y-54418D01*
X77272Y-54360D01*
X77297Y-54267D01*
X77297Y-55214D01*
X77202Y-55277D01*
X76587Y-55892D01*
X76350Y-55655D01*
X76350Y-54292D01*
X76444Y-54197D01*
X76497Y-54071D01*
X76539Y-54172D01*
X76632Y-54197D01*
X76929Y-53900D01*
X76632Y-53602D01*
X76539Y-53627D01*
X76500Y-53737D01*
X76445Y-53603D01*
X76297Y-53455D01*
X76104Y-53375D01*
X75896Y-53374D01*
X75703Y-53454D01*
X75555Y-53602D01*
X75499Y-53735D01*
X75445Y-53603D01*
X75300Y-53457D01*
X75300Y-52699D01*
X75391Y-52662D01*
X75461Y-52591D01*
X75499Y-52499D01*
X75500Y-52400D01*
X75500Y-52050D01*
X75462Y-51958D01*
X75403Y-51899D01*
X75461Y-51841D01*
X75499Y-51749D01*
X75500Y-51650D01*
X75500Y-51300D01*
X75462Y-51208D01*
X75391Y-51138D01*
X75299Y-51100D01*
X75275Y-51100D01*
X75275Y-51049D01*
X76237Y-50087D01*
X76237Y-50087D01*
X76302Y-49989D01*
X76324Y-49875D01*
X76325Y-49875D01*
X76325Y-49756D01*
X76361Y-49741D01*
X76515Y-49586D01*
X76549Y-49505D01*
X76583Y-49586D01*
X76738Y-49740D01*
X76940Y-49824D01*
X77158Y-49825D01*
X77361Y-49741D01*
X77515Y-49586D01*
X77549Y-49505D01*
X77583Y-49586D01*
X77675Y-49677D01*
X77675Y-51174D01*
X77650Y-51174D01*
X77558Y-51212D01*
X77488Y-51283D01*
X77450Y-51375D01*
X77449Y-51474D01*
X77449Y-51824D01*
X77487Y-51916D01*
X77546Y-51975D01*
X77488Y-52033D01*
X77450Y-52125D01*
X77449Y-52224D01*
X77449Y-52574D01*
X77487Y-52666D01*
X77558Y-52736D01*
X77650Y-52774D01*
X77675Y-52774D01*
X77675Y-53482D01*
X77555Y-53602D01*
X77502Y-53728D01*
X77460Y-53627D01*
X77367Y-53602D01*
X77297Y-53673D01*
X77297Y-53532D01*
X77272Y-53439D01*
X77075Y-53370D01*
X76867Y-53381D01*
X76727Y-53439D01*
X76702Y-53532D01*
X77000Y-53829D01*
X77297Y-53532D01*
X77297Y-53673D01*
X77070Y-53900D01*
X77367Y-54197D01*
X77460Y-54172D01*
X77499Y-54062D01*
X77554Y-54197D01*
X77702Y-54344D01*
X77895Y-54424D01*
X78103Y-54425D01*
X78297Y-54345D01*
X78444Y-54197D01*
X78500Y-54064D01*
X78554Y-54197D01*
X78702Y-54344D01*
X78895Y-54424D01*
X79103Y-54425D01*
X79297Y-54345D01*
X79444Y-54197D01*
X79500Y-54064D01*
X79554Y-54197D01*
X79702Y-54344D01*
X79895Y-54424D01*
X80103Y-54425D01*
X80297Y-54345D01*
X80444Y-54197D01*
X80500Y-54064D01*
X80554Y-54197D01*
X80702Y-54344D01*
X80895Y-54424D01*
X81103Y-54425D01*
X81297Y-54345D01*
X81444Y-54197D01*
X81500Y-54064D01*
X81554Y-54197D01*
X81702Y-54344D01*
X81895Y-54424D01*
X82103Y-54425D01*
X82297Y-54345D01*
X82444Y-54197D01*
X82474Y-54125D01*
X82474Y-54224D01*
X82512Y-54316D01*
X82583Y-54386D01*
X82675Y-54424D01*
X82774Y-54425D01*
X83324Y-54425D01*
X83416Y-54387D01*
X83486Y-54316D01*
X83524Y-54224D01*
X83525Y-54125D01*
X83525Y-53575D01*
X83487Y-53483D01*
X83416Y-53413D01*
X83324Y-53375D01*
X83300Y-53375D01*
X83300Y-52754D01*
X83341Y-52737D01*
X83411Y-52666D01*
X83449Y-52574D01*
X83450Y-52475D01*
X83450Y-52125D01*
X83412Y-52033D01*
X83353Y-51974D01*
X83411Y-51916D01*
X83449Y-51824D01*
X83450Y-51725D01*
X83450Y-51375D01*
X83412Y-51283D01*
X83341Y-51213D01*
X83249Y-51175D01*
X83225Y-51175D01*
X83225Y-51049D01*
X83674Y-50600D01*
X84574Y-50600D01*
X85675Y-51425D01*
X85675Y-55141D01*
X85675Y-55141D01*
G37*
G54D27*
X85675Y-55141D02*
X85514Y-55075D01*
X85335Y-55074D01*
X85170Y-55143D01*
X85138Y-55175D01*
X77450Y-55175D01*
X77316Y-55201D01*
X77297Y-55214D01*
X77297Y-54267D01*
X77000Y-53970D01*
X76702Y-54267D01*
X76727Y-54360D01*
X76924Y-54429D01*
X77132Y-54418D01*
X77272Y-54360D01*
X77297Y-54267D01*
X77297Y-55214D01*
X77202Y-55277D01*
X76587Y-55892D01*
X76350Y-55655D01*
X76350Y-54292D01*
X76444Y-54197D01*
X76497Y-54071D01*
X76539Y-54172D01*
X76632Y-54197D01*
X76929Y-53900D01*
X76632Y-53602D01*
X76539Y-53627D01*
X76500Y-53737D01*
X76445Y-53603D01*
X76297Y-53455D01*
X76104Y-53375D01*
X75896Y-53374D01*
X75703Y-53454D01*
X75555Y-53602D01*
X75499Y-53735D01*
X75445Y-53603D01*
X75300Y-53457D01*
X75300Y-52699D01*
X75391Y-52662D01*
X75461Y-52591D01*
X75499Y-52499D01*
X75500Y-52400D01*
X75500Y-52050D01*
X75462Y-51958D01*
X75403Y-51899D01*
X75461Y-51841D01*
X75499Y-51749D01*
X75500Y-51650D01*
X75500Y-51300D01*
X75462Y-51208D01*
X75391Y-51138D01*
X75299Y-51100D01*
X75275Y-51100D01*
X75275Y-51049D01*
X76237Y-50087D01*
X76237Y-50087D01*
X76302Y-49989D01*
X76324Y-49875D01*
X76325Y-49875D01*
X76325Y-49756D01*
X76361Y-49741D01*
X76515Y-49586D01*
X76549Y-49505D01*
X76583Y-49586D01*
X76738Y-49740D01*
X76940Y-49824D01*
X77158Y-49825D01*
X77361Y-49741D01*
X77515Y-49586D01*
X77549Y-49505D01*
X77583Y-49586D01*
X77675Y-49677D01*
X77675Y-51174D01*
X77650Y-51174D01*
X77558Y-51212D01*
X77488Y-51283D01*
X77450Y-51375D01*
X77449Y-51474D01*
X77449Y-51824D01*
X77487Y-51916D01*
X77546Y-51975D01*
X77488Y-52033D01*
X77450Y-52125D01*
X77449Y-52224D01*
X77449Y-52574D01*
X77487Y-52666D01*
X77558Y-52736D01*
X77650Y-52774D01*
X77675Y-52774D01*
X77675Y-53482D01*
X77555Y-53602D01*
X77502Y-53728D01*
X77460Y-53627D01*
X77367Y-53602D01*
X77297Y-53673D01*
X77297Y-53532D01*
X77272Y-53439D01*
X77075Y-53370D01*
X76867Y-53381D01*
X76727Y-53439D01*
X76702Y-53532D01*
X77000Y-53829D01*
X77297Y-53532D01*
X77297Y-53673D01*
X77070Y-53900D01*
X77367Y-54197D01*
X77460Y-54172D01*
X77499Y-54062D01*
X77554Y-54197D01*
X77702Y-54344D01*
X77895Y-54424D01*
X78103Y-54425D01*
X78297Y-54345D01*
X78444Y-54197D01*
X78500Y-54064D01*
X78554Y-54197D01*
X78702Y-54344D01*
X78895Y-54424D01*
X79103Y-54425D01*
X79297Y-54345D01*
X79444Y-54197D01*
X79500Y-54064D01*
X79554Y-54197D01*
X79702Y-54344D01*
X79895Y-54424D01*
X80103Y-54425D01*
X80297Y-54345D01*
X80444Y-54197D01*
X80500Y-54064D01*
X80554Y-54197D01*
X80702Y-54344D01*
X80895Y-54424D01*
X81103Y-54425D01*
X81297Y-54345D01*
X81444Y-54197D01*
X81500Y-54064D01*
X81554Y-54197D01*
X81702Y-54344D01*
X81895Y-54424D01*
X82103Y-54425D01*
X82297Y-54345D01*
X82444Y-54197D01*
X82474Y-54125D01*
X82474Y-54224D01*
X82512Y-54316D01*
X82583Y-54386D01*
X82675Y-54424D01*
X82774Y-54425D01*
X83324Y-54425D01*
X83416Y-54387D01*
X83486Y-54316D01*
X83524Y-54224D01*
X83525Y-54125D01*
X83525Y-53575D01*
X83487Y-53483D01*
X83416Y-53413D01*
X83324Y-53375D01*
X83300Y-53375D01*
X83300Y-52754D01*
X83341Y-52737D01*
X83411Y-52666D01*
X83449Y-52574D01*
X83450Y-52475D01*
X83450Y-52125D01*
X83412Y-52033D01*
X83353Y-51974D01*
X83411Y-51916D01*
X83449Y-51824D01*
X83450Y-51725D01*
X83450Y-51375D01*
X83412Y-51283D01*
X83341Y-51213D01*
X83249Y-51175D01*
X83225Y-51175D01*
X83225Y-51049D01*
X83674Y-50600D01*
X84574Y-50600D01*
X85675Y-51425D01*
X85675Y-55141D01*
G54D10*
G36*
X85675Y-62266D02*
X82133Y-65500D01*
X81471Y-65500D01*
X81466Y-65488D01*
X81311Y-65334D01*
X81109Y-65250D01*
X80891Y-65249D01*
X80688Y-65333D01*
X80534Y-65488D01*
X80500Y-65569D01*
X80466Y-65488D01*
X80311Y-65334D01*
X80109Y-65250D01*
X79891Y-65249D01*
X79688Y-65333D01*
X79534Y-65488D01*
X79500Y-65569D01*
X79466Y-65488D01*
X79311Y-65334D01*
X79300Y-65329D01*
X79300Y-65199D01*
X79962Y-64537D01*
X79962Y-64537D01*
X80027Y-64439D01*
X80049Y-64325D01*
X80050Y-64325D01*
X80050Y-64258D01*
X80090Y-64274D01*
X80259Y-64275D01*
X80415Y-64210D01*
X80476Y-64150D01*
X82300Y-64150D01*
X82304Y-64149D01*
X82309Y-64149D01*
X82362Y-64137D01*
X82414Y-64127D01*
X82419Y-64124D01*
X82423Y-64123D01*
X82467Y-64091D01*
X82512Y-64062D01*
X82514Y-64057D01*
X82519Y-64054D01*
X83244Y-63280D01*
X83275Y-63230D01*
X83302Y-63189D01*
X83303Y-63185D01*
X83305Y-63180D01*
X83315Y-63123D01*
X83325Y-63075D01*
X83325Y-62900D01*
X83349Y-62900D01*
X83441Y-62862D01*
X83511Y-62791D01*
X83549Y-62699D01*
X83550Y-62600D01*
X83550Y-62250D01*
X83512Y-62158D01*
X83453Y-62099D01*
X83511Y-62041D01*
X83549Y-61949D01*
X83550Y-61850D01*
X83550Y-61500D01*
X83512Y-61408D01*
X83441Y-61338D01*
X83349Y-61300D01*
X83300Y-61300D01*
X83300Y-60342D01*
X83444Y-60197D01*
X83524Y-60004D01*
X83525Y-59796D01*
X83445Y-59603D01*
X83297Y-59455D01*
X83104Y-59375D01*
X82896Y-59374D01*
X82703Y-59454D01*
X82555Y-59602D01*
X82499Y-59735D01*
X82445Y-59603D01*
X82297Y-59455D01*
X82104Y-59375D01*
X81896Y-59374D01*
X81703Y-59454D01*
X81555Y-59602D01*
X81499Y-59735D01*
X81445Y-59603D01*
X81297Y-59455D01*
X81104Y-59375D01*
X80896Y-59374D01*
X80703Y-59454D01*
X80555Y-59602D01*
X80499Y-59735D01*
X80445Y-59603D01*
X80297Y-59455D01*
X80104Y-59375D01*
X79896Y-59374D01*
X79703Y-59454D01*
X79555Y-59602D01*
X79499Y-59735D01*
X79445Y-59603D01*
X79297Y-59455D01*
X79104Y-59375D01*
X78896Y-59374D01*
X78703Y-59454D01*
X78555Y-59602D01*
X78499Y-59735D01*
X78445Y-59603D01*
X78297Y-59455D01*
X78104Y-59375D01*
X77896Y-59374D01*
X77703Y-59454D01*
X77555Y-59602D01*
X77499Y-59735D01*
X77445Y-59603D01*
X77350Y-59507D01*
X77350Y-56800D01*
X77349Y-56799D01*
X77323Y-56666D01*
X77247Y-56552D01*
X77247Y-56552D01*
X77082Y-56387D01*
X77594Y-55875D01*
X85138Y-55875D01*
X85169Y-55906D01*
X85335Y-55974D01*
X85514Y-55975D01*
X85675Y-55908D01*
X85675Y-62266D01*
X85675Y-62266D01*
G37*
G54D27*
X85675Y-62266D02*
X82133Y-65500D01*
X81471Y-65500D01*
X81466Y-65488D01*
X81311Y-65334D01*
X81109Y-65250D01*
X80891Y-65249D01*
X80688Y-65333D01*
X80534Y-65488D01*
X80500Y-65569D01*
X80466Y-65488D01*
X80311Y-65334D01*
X80109Y-65250D01*
X79891Y-65249D01*
X79688Y-65333D01*
X79534Y-65488D01*
X79500Y-65569D01*
X79466Y-65488D01*
X79311Y-65334D01*
X79300Y-65329D01*
X79300Y-65199D01*
X79962Y-64537D01*
X79962Y-64537D01*
X80027Y-64439D01*
X80049Y-64325D01*
X80050Y-64325D01*
X80050Y-64258D01*
X80090Y-64274D01*
X80259Y-64275D01*
X80415Y-64210D01*
X80476Y-64150D01*
X82300Y-64150D01*
X82304Y-64149D01*
X82309Y-64149D01*
X82362Y-64137D01*
X82414Y-64127D01*
X82419Y-64124D01*
X82423Y-64123D01*
X82467Y-64091D01*
X82512Y-64062D01*
X82514Y-64057D01*
X82519Y-64054D01*
X83244Y-63280D01*
X83275Y-63230D01*
X83302Y-63189D01*
X83303Y-63185D01*
X83305Y-63180D01*
X83315Y-63123D01*
X83325Y-63075D01*
X83325Y-62900D01*
X83349Y-62900D01*
X83441Y-62862D01*
X83511Y-62791D01*
X83549Y-62699D01*
X83550Y-62600D01*
X83550Y-62250D01*
X83512Y-62158D01*
X83453Y-62099D01*
X83511Y-62041D01*
X83549Y-61949D01*
X83550Y-61850D01*
X83550Y-61500D01*
X83512Y-61408D01*
X83441Y-61338D01*
X83349Y-61300D01*
X83300Y-61300D01*
X83300Y-60342D01*
X83444Y-60197D01*
X83524Y-60004D01*
X83525Y-59796D01*
X83445Y-59603D01*
X83297Y-59455D01*
X83104Y-59375D01*
X82896Y-59374D01*
X82703Y-59454D01*
X82555Y-59602D01*
X82499Y-59735D01*
X82445Y-59603D01*
X82297Y-59455D01*
X82104Y-59375D01*
X81896Y-59374D01*
X81703Y-59454D01*
X81555Y-59602D01*
X81499Y-59735D01*
X81445Y-59603D01*
X81297Y-59455D01*
X81104Y-59375D01*
X80896Y-59374D01*
X80703Y-59454D01*
X80555Y-59602D01*
X80499Y-59735D01*
X80445Y-59603D01*
X80297Y-59455D01*
X80104Y-59375D01*
X79896Y-59374D01*
X79703Y-59454D01*
X79555Y-59602D01*
X79499Y-59735D01*
X79445Y-59603D01*
X79297Y-59455D01*
X79104Y-59375D01*
X78896Y-59374D01*
X78703Y-59454D01*
X78555Y-59602D01*
X78499Y-59735D01*
X78445Y-59603D01*
X78297Y-59455D01*
X78104Y-59375D01*
X77896Y-59374D01*
X77703Y-59454D01*
X77555Y-59602D01*
X77499Y-59735D01*
X77445Y-59603D01*
X77350Y-59507D01*
X77350Y-56800D01*
X77349Y-56799D01*
X77323Y-56666D01*
X77247Y-56552D01*
X77247Y-56552D01*
X77082Y-56387D01*
X77594Y-55875D01*
X85138Y-55875D01*
X85169Y-55906D01*
X85335Y-55974D01*
X85514Y-55975D01*
X85675Y-55908D01*
X85675Y-62266D01*
G54D10*
G36*
X95710Y-66900D02*
X94322Y-66900D01*
X94322Y-61319D01*
X94322Y-59941D01*
X94322Y-58759D01*
X94322Y-57381D01*
X94284Y-57289D01*
X94214Y-57219D01*
X94122Y-57181D01*
X94022Y-57180D01*
X93910Y-57180D01*
X93910Y-55788D01*
X94068Y-55630D01*
X94159Y-55409D01*
X94160Y-55171D01*
X94068Y-54950D01*
X93900Y-54781D01*
X93679Y-54690D01*
X93441Y-54689D01*
X93220Y-54781D01*
X93051Y-54949D01*
X93047Y-54960D01*
X92982Y-54938D01*
X92911Y-55009D01*
X92630Y-55290D01*
X92982Y-55641D01*
X93047Y-55619D01*
X93051Y-55629D01*
X93210Y-55788D01*
X93210Y-57180D01*
X93077Y-57180D01*
X92986Y-57218D01*
X92915Y-57289D01*
X92911Y-57299D01*
X92911Y-55712D01*
X92560Y-55360D01*
X92554Y-55366D01*
X92489Y-55301D01*
X92483Y-55295D01*
X92489Y-55290D01*
X92483Y-55284D01*
X92554Y-55213D01*
X92560Y-55219D01*
X92911Y-54867D01*
X92877Y-54767D01*
X92653Y-54685D01*
X92415Y-54695D01*
X92242Y-54767D01*
X92208Y-54867D01*
X92163Y-54822D01*
X92141Y-54844D01*
X92122Y-54798D01*
X92051Y-54728D01*
X91959Y-54690D01*
X91860Y-54689D01*
X91160Y-54689D01*
X91068Y-54727D01*
X90998Y-54798D01*
X90960Y-54890D01*
X90959Y-54989D01*
X90959Y-55689D01*
X90997Y-55781D01*
X91068Y-55851D01*
X91160Y-55889D01*
X91259Y-55890D01*
X91959Y-55890D01*
X92051Y-55852D01*
X92121Y-55781D01*
X92141Y-55735D01*
X92163Y-55757D01*
X92208Y-55712D01*
X92242Y-55812D01*
X92466Y-55894D01*
X92704Y-55884D01*
X92877Y-55812D01*
X92911Y-55712D01*
X92911Y-57299D01*
X92877Y-57381D01*
X92877Y-57480D01*
X92877Y-58858D01*
X92915Y-58950D01*
X92985Y-59020D01*
X93077Y-59058D01*
X93177Y-59059D01*
X94122Y-59059D01*
X94213Y-59021D01*
X94284Y-58950D01*
X94322Y-58858D01*
X94322Y-58759D01*
X94322Y-59941D01*
X94284Y-59849D01*
X94214Y-59779D01*
X94122Y-59741D01*
X94022Y-59740D01*
X93077Y-59740D01*
X92986Y-59778D01*
X92915Y-59849D01*
X92877Y-59941D01*
X92877Y-60040D01*
X92877Y-61418D01*
X92915Y-61510D01*
X92985Y-61580D01*
X93077Y-61618D01*
X93177Y-61619D01*
X93250Y-61619D01*
X93250Y-62055D01*
X92655Y-62650D01*
X90150Y-62650D01*
X90150Y-61719D01*
X90322Y-61719D01*
X90413Y-61681D01*
X90484Y-61610D01*
X90522Y-61518D01*
X90522Y-61419D01*
X90522Y-60041D01*
X90522Y-58958D01*
X90522Y-57481D01*
X90484Y-57389D01*
X90414Y-57319D01*
X90322Y-57281D01*
X90222Y-57280D01*
X89912Y-57281D01*
X89850Y-57343D01*
X89850Y-58170D01*
X90460Y-58170D01*
X90522Y-58107D01*
X90522Y-57481D01*
X90522Y-58958D01*
X90522Y-58332D01*
X90460Y-58270D01*
X89850Y-58270D01*
X89850Y-59096D01*
X89912Y-59159D01*
X90222Y-59159D01*
X90322Y-59158D01*
X90414Y-59120D01*
X90484Y-59050D01*
X90522Y-58958D01*
X90522Y-60041D01*
X90484Y-59949D01*
X90414Y-59879D01*
X90322Y-59841D01*
X90222Y-59840D01*
X89750Y-59840D01*
X89750Y-59096D01*
X89750Y-58270D01*
X89750Y-58170D01*
X89750Y-57343D01*
X89687Y-57281D01*
X89377Y-57280D01*
X89277Y-57281D01*
X89185Y-57319D01*
X89115Y-57389D01*
X89077Y-57481D01*
X89077Y-58107D01*
X89140Y-58170D01*
X89750Y-58170D01*
X89750Y-58270D01*
X89140Y-58270D01*
X89077Y-58332D01*
X89077Y-58958D01*
X89115Y-59050D01*
X89185Y-59120D01*
X89277Y-59158D01*
X89377Y-59159D01*
X89687Y-59159D01*
X89750Y-59096D01*
X89750Y-59840D01*
X89277Y-59840D01*
X89186Y-59878D01*
X89115Y-59949D01*
X89077Y-60041D01*
X89077Y-60140D01*
X89077Y-61518D01*
X89115Y-61610D01*
X89185Y-61680D01*
X89277Y-61718D01*
X89377Y-61719D01*
X89450Y-61719D01*
X89450Y-62713D01*
X89418Y-62744D01*
X89350Y-62910D01*
X89349Y-63089D01*
X89418Y-63254D01*
X89544Y-63381D01*
X89710Y-63449D01*
X89889Y-63450D01*
X90054Y-63381D01*
X90086Y-63350D01*
X92800Y-63350D01*
X92933Y-63323D01*
X92933Y-63323D01*
X93047Y-63247D01*
X93847Y-62447D01*
X93847Y-62447D01*
X93847Y-62447D01*
X93923Y-62333D01*
X93949Y-62200D01*
X93950Y-62200D01*
X93950Y-61619D01*
X94122Y-61619D01*
X94213Y-61581D01*
X94284Y-61510D01*
X94322Y-61418D01*
X94322Y-61319D01*
X94322Y-66900D01*
X57420Y-66900D01*
X57420Y-48210D01*
X91336Y-48210D01*
X91326Y-48236D01*
X91325Y-48335D01*
X91325Y-49713D01*
X91363Y-49805D01*
X91434Y-49875D01*
X91458Y-49885D01*
X90805Y-49885D01*
X90472Y-49552D01*
X90358Y-49476D01*
X90225Y-49450D01*
X89774Y-49450D01*
X89737Y-49358D01*
X89666Y-49288D01*
X89574Y-49250D01*
X89475Y-49249D01*
X88875Y-49249D01*
X88783Y-49287D01*
X88713Y-49358D01*
X88675Y-49450D01*
X88674Y-49549D01*
X88674Y-50149D01*
X88712Y-50241D01*
X88783Y-50311D01*
X88875Y-50349D01*
X88897Y-50349D01*
X88759Y-50488D01*
X88675Y-50690D01*
X88674Y-50908D01*
X88758Y-51111D01*
X88913Y-51265D01*
X88994Y-51299D01*
X88913Y-51333D01*
X88797Y-51450D01*
X88525Y-51450D01*
X88391Y-51476D01*
X88277Y-51552D01*
X87377Y-52452D01*
X87301Y-52566D01*
X87275Y-52700D01*
X87275Y-62705D01*
X83855Y-66125D01*
X81452Y-66125D01*
X81465Y-66111D01*
X81470Y-66100D01*
X82250Y-66100D01*
X82300Y-66089D01*
X82352Y-66082D01*
X82358Y-66078D01*
X82364Y-66077D01*
X82407Y-66048D01*
X82452Y-66021D01*
X86176Y-62620D01*
X86178Y-62617D01*
X86187Y-62612D01*
X86228Y-62550D01*
X86245Y-62526D01*
X86246Y-62522D01*
X86252Y-62514D01*
X86265Y-62445D01*
X86273Y-62412D01*
X86273Y-62408D01*
X86275Y-62400D01*
X86275Y-51275D01*
X86270Y-51252D01*
X86271Y-51233D01*
X86260Y-51202D01*
X86252Y-51160D01*
X86238Y-51140D01*
X86232Y-51122D01*
X86211Y-51099D01*
X86187Y-51062D01*
X86166Y-51049D01*
X86154Y-51035D01*
X84855Y-50060D01*
X84821Y-50043D01*
X84789Y-50022D01*
X84768Y-50018D01*
X84749Y-50009D01*
X84711Y-50007D01*
X84675Y-50000D01*
X83550Y-50000D01*
X83435Y-50022D01*
X83337Y-50087D01*
X82712Y-50712D01*
X82647Y-50810D01*
X82625Y-50925D01*
X82625Y-51174D01*
X82600Y-51174D01*
X82508Y-51212D01*
X82438Y-51283D01*
X82437Y-51284D01*
X82437Y-51283D01*
X82366Y-51213D01*
X82274Y-51175D01*
X82250Y-51175D01*
X82250Y-50399D01*
X82449Y-50199D01*
X82534Y-50200D01*
X82690Y-50135D01*
X82810Y-50016D01*
X82874Y-49859D01*
X82875Y-49690D01*
X82810Y-49534D01*
X82691Y-49414D01*
X82534Y-49350D01*
X82365Y-49349D01*
X82209Y-49414D01*
X82089Y-49533D01*
X82025Y-49690D01*
X82024Y-49775D01*
X81737Y-50062D01*
X81672Y-50160D01*
X81650Y-50275D01*
X81650Y-51174D01*
X81625Y-51174D01*
X81533Y-51212D01*
X81463Y-51283D01*
X81450Y-51314D01*
X81437Y-51283D01*
X81366Y-51213D01*
X81317Y-51192D01*
X81339Y-49825D01*
X81399Y-49825D01*
X81491Y-49787D01*
X81561Y-49716D01*
X81599Y-49624D01*
X81600Y-49525D01*
X81600Y-48925D01*
X81562Y-48833D01*
X81491Y-48763D01*
X81399Y-48725D01*
X81300Y-48724D01*
X80700Y-48724D01*
X80608Y-48762D01*
X80538Y-48833D01*
X80500Y-48925D01*
X80500Y-48947D01*
X80361Y-48809D01*
X80159Y-48725D01*
X79941Y-48724D01*
X79738Y-48808D01*
X79584Y-48963D01*
X79550Y-49044D01*
X79516Y-48963D01*
X79361Y-48809D01*
X79159Y-48725D01*
X78941Y-48724D01*
X78738Y-48808D01*
X78584Y-48963D01*
X78550Y-49044D01*
X78516Y-48963D01*
X78361Y-48809D01*
X78159Y-48725D01*
X77941Y-48724D01*
X77738Y-48808D01*
X77584Y-48963D01*
X77550Y-49044D01*
X77516Y-48963D01*
X77361Y-48809D01*
X77159Y-48725D01*
X76941Y-48724D01*
X76738Y-48808D01*
X76584Y-48963D01*
X76550Y-49044D01*
X76516Y-48963D01*
X76361Y-48809D01*
X76159Y-48725D01*
X75941Y-48724D01*
X75738Y-48808D01*
X75584Y-48963D01*
X75550Y-49044D01*
X75516Y-48963D01*
X75361Y-48809D01*
X75159Y-48725D01*
X74941Y-48724D01*
X74738Y-48808D01*
X74584Y-48963D01*
X74550Y-49044D01*
X74516Y-48963D01*
X74361Y-48809D01*
X74159Y-48725D01*
X73941Y-48724D01*
X73738Y-48808D01*
X73584Y-48963D01*
X73550Y-49044D01*
X73516Y-48963D01*
X73361Y-48809D01*
X73159Y-48725D01*
X72941Y-48724D01*
X72738Y-48808D01*
X72584Y-48963D01*
X72550Y-49044D01*
X72516Y-48963D01*
X72361Y-48809D01*
X72159Y-48725D01*
X71941Y-48724D01*
X71738Y-48808D01*
X71584Y-48963D01*
X71550Y-49044D01*
X71516Y-48963D01*
X71361Y-48809D01*
X71159Y-48725D01*
X70941Y-48724D01*
X70738Y-48808D01*
X70584Y-48963D01*
X70550Y-49044D01*
X70516Y-48963D01*
X70361Y-48809D01*
X70159Y-48725D01*
X69941Y-48724D01*
X69738Y-48808D01*
X69584Y-48963D01*
X69500Y-49165D01*
X69499Y-49383D01*
X69583Y-49586D01*
X69738Y-49740D01*
X69940Y-49824D01*
X70158Y-49825D01*
X70361Y-49741D01*
X70515Y-49586D01*
X70549Y-49505D01*
X70583Y-49586D01*
X70738Y-49740D01*
X70940Y-49824D01*
X71158Y-49825D01*
X71361Y-49741D01*
X71515Y-49586D01*
X71549Y-49505D01*
X71583Y-49586D01*
X71738Y-49740D01*
X71750Y-49745D01*
X71750Y-49850D01*
X70848Y-50752D01*
X70810Y-50659D01*
X70691Y-50539D01*
X70534Y-50475D01*
X70365Y-50474D01*
X70209Y-50539D01*
X70148Y-50600D01*
X68850Y-50600D01*
X68841Y-50601D01*
X68830Y-50600D01*
X68777Y-50614D01*
X68735Y-50622D01*
X68728Y-50627D01*
X68717Y-50630D01*
X68672Y-50664D01*
X68637Y-50687D01*
X68633Y-50694D01*
X68624Y-50701D01*
X67874Y-51551D01*
X67850Y-51594D01*
X67822Y-51635D01*
X67820Y-51644D01*
X67816Y-51652D01*
X67809Y-51701D01*
X67800Y-51750D01*
X67800Y-55805D01*
X67760Y-55709D01*
X67641Y-55589D01*
X67484Y-55525D01*
X67315Y-55524D01*
X67159Y-55589D01*
X67039Y-55708D01*
X67000Y-55805D01*
X67000Y-53999D01*
X67544Y-53454D01*
X67590Y-53435D01*
X67710Y-53316D01*
X67774Y-53159D01*
X67775Y-52990D01*
X67710Y-52834D01*
X67591Y-52714D01*
X67434Y-52650D01*
X67265Y-52649D01*
X67109Y-52714D01*
X66989Y-52833D01*
X66925Y-52990D01*
X66924Y-53159D01*
X66944Y-53206D01*
X66665Y-53485D01*
X66665Y-51296D01*
X66665Y-49296D01*
X66585Y-49103D01*
X66437Y-48955D01*
X66244Y-48875D01*
X66036Y-48874D01*
X65843Y-48954D01*
X65695Y-49102D01*
X65615Y-49295D01*
X65614Y-49503D01*
X65694Y-49697D01*
X65842Y-49844D01*
X66035Y-49924D01*
X66243Y-49925D01*
X66437Y-49845D01*
X66584Y-49697D01*
X66664Y-49504D01*
X66665Y-49296D01*
X66665Y-51296D01*
X66585Y-51103D01*
X66437Y-50955D01*
X66244Y-50875D01*
X66036Y-50874D01*
X65843Y-50954D01*
X65695Y-51102D01*
X65615Y-51295D01*
X65614Y-51503D01*
X65694Y-51697D01*
X65842Y-51844D01*
X66035Y-51924D01*
X66243Y-51925D01*
X66437Y-51845D01*
X66584Y-51697D01*
X66664Y-51504D01*
X66665Y-51296D01*
X66665Y-53485D01*
X66487Y-53662D01*
X66422Y-53760D01*
X66400Y-53875D01*
X66400Y-55875D01*
X66265Y-55874D01*
X66109Y-55939D01*
X66013Y-56035D01*
X65991Y-56013D01*
X65899Y-55975D01*
X65800Y-55974D01*
X65450Y-55974D01*
X65358Y-56012D01*
X65299Y-56071D01*
X65241Y-56013D01*
X65149Y-55975D01*
X65050Y-55974D01*
X64700Y-55974D01*
X64608Y-56012D01*
X64538Y-56083D01*
X64500Y-56175D01*
X64500Y-56200D01*
X62799Y-56200D01*
X62675Y-56075D01*
X62675Y-51649D01*
X62694Y-51697D01*
X62842Y-51844D01*
X63035Y-51924D01*
X63243Y-51925D01*
X63437Y-51845D01*
X63584Y-51697D01*
X63664Y-51504D01*
X63665Y-51296D01*
X63665Y-49296D01*
X63585Y-49103D01*
X63437Y-48955D01*
X63244Y-48875D01*
X63036Y-48874D01*
X62843Y-48954D01*
X62695Y-49102D01*
X62615Y-49295D01*
X62614Y-49503D01*
X62694Y-49697D01*
X62842Y-49844D01*
X63035Y-49924D01*
X63243Y-49925D01*
X63437Y-49845D01*
X63584Y-49697D01*
X63664Y-49504D01*
X63665Y-49296D01*
X63665Y-51296D01*
X63585Y-51103D01*
X63437Y-50955D01*
X63244Y-50875D01*
X63036Y-50874D01*
X62843Y-50954D01*
X62695Y-51102D01*
X62675Y-51150D01*
X62675Y-50050D01*
X62652Y-49935D01*
X62652Y-49935D01*
X62587Y-49837D01*
X62174Y-49425D01*
X62175Y-49321D01*
X62095Y-49128D01*
X61947Y-48980D01*
X61754Y-48900D01*
X61546Y-48899D01*
X61353Y-48979D01*
X61205Y-49127D01*
X61125Y-49320D01*
X61124Y-49528D01*
X61204Y-49722D01*
X61352Y-49869D01*
X61545Y-49949D01*
X61753Y-49950D01*
X61822Y-49921D01*
X62075Y-50174D01*
X62075Y-51107D01*
X61947Y-50980D01*
X61754Y-50900D01*
X61546Y-50899D01*
X61353Y-50979D01*
X61205Y-51127D01*
X61125Y-51320D01*
X61124Y-51528D01*
X61204Y-51722D01*
X61352Y-51869D01*
X61545Y-51949D01*
X61753Y-51950D01*
X61947Y-51870D01*
X62075Y-51742D01*
X62075Y-56200D01*
X62097Y-56314D01*
X62162Y-56412D01*
X62462Y-56712D01*
X62462Y-56712D01*
X62560Y-56777D01*
X62674Y-56799D01*
X62675Y-56800D01*
X64499Y-56800D01*
X64499Y-56824D01*
X64514Y-56860D01*
X64325Y-57050D01*
X64240Y-57049D01*
X64084Y-57114D01*
X63964Y-57233D01*
X63900Y-57390D01*
X63899Y-57559D01*
X63964Y-57715D01*
X64083Y-57835D01*
X64240Y-57899D01*
X64409Y-57900D01*
X64565Y-57835D01*
X64685Y-57716D01*
X64749Y-57559D01*
X64750Y-57474D01*
X65137Y-57087D01*
X65137Y-57087D01*
X65189Y-57008D01*
X65189Y-57008D01*
X65241Y-56987D01*
X65300Y-56928D01*
X65358Y-56986D01*
X65450Y-57024D01*
X65549Y-57025D01*
X65899Y-57025D01*
X65991Y-56987D01*
X66061Y-56916D01*
X66099Y-56824D01*
X66099Y-56800D01*
X66150Y-56800D01*
X66150Y-56799D01*
X66264Y-56777D01*
X66264Y-56777D01*
X66342Y-56724D01*
X66400Y-56725D01*
X66400Y-57850D01*
X65451Y-58798D01*
X65435Y-58759D01*
X65316Y-58639D01*
X65159Y-58575D01*
X64990Y-58574D01*
X64975Y-58581D01*
X64961Y-58571D01*
X64936Y-58562D01*
X64914Y-58547D01*
X64882Y-58541D01*
X64852Y-58529D01*
X64825Y-58530D01*
X64800Y-58525D01*
X64450Y-58525D01*
X64425Y-58525D01*
X64310Y-58547D01*
X64212Y-58612D01*
X64162Y-58688D01*
X63475Y-59375D01*
X60924Y-59375D01*
X60350Y-58800D01*
X60350Y-58554D01*
X60400Y-58574D01*
X60499Y-58575D01*
X60699Y-58575D01*
X60755Y-58551D01*
X60772Y-58639D01*
X60775Y-58643D01*
X60775Y-58643D01*
X60774Y-58759D01*
X60839Y-58915D01*
X60958Y-59035D01*
X61115Y-59099D01*
X61284Y-59100D01*
X61440Y-59035D01*
X61560Y-58916D01*
X61624Y-58759D01*
X61625Y-58590D01*
X61618Y-58575D01*
X61699Y-58575D01*
X61791Y-58537D01*
X61861Y-58466D01*
X61899Y-58374D01*
X61900Y-58275D01*
X61900Y-57825D01*
X61900Y-55775D01*
X61900Y-55325D01*
X61862Y-55233D01*
X61791Y-55163D01*
X61699Y-55125D01*
X61600Y-55124D01*
X61400Y-55124D01*
X61308Y-55162D01*
X61300Y-55171D01*
X61291Y-55163D01*
X61199Y-55125D01*
X61100Y-55124D01*
X60900Y-55124D01*
X60808Y-55162D01*
X60800Y-55171D01*
X60791Y-55163D01*
X60699Y-55125D01*
X60600Y-55124D01*
X60400Y-55124D01*
X60308Y-55162D01*
X60300Y-55171D01*
X60291Y-55163D01*
X60199Y-55125D01*
X60100Y-55124D01*
X59900Y-55124D01*
X59808Y-55162D01*
X59800Y-55171D01*
X59791Y-55163D01*
X59699Y-55125D01*
X59600Y-55124D01*
X59400Y-55124D01*
X59308Y-55162D01*
X59300Y-55171D01*
X59291Y-55163D01*
X59199Y-55125D01*
X59175Y-55125D01*
X59175Y-51321D01*
X59175Y-49321D01*
X59095Y-49128D01*
X58947Y-48980D01*
X58754Y-48900D01*
X58546Y-48899D01*
X58353Y-48979D01*
X58205Y-49127D01*
X58125Y-49320D01*
X58124Y-49528D01*
X58204Y-49722D01*
X58352Y-49869D01*
X58545Y-49949D01*
X58753Y-49950D01*
X58947Y-49870D01*
X59094Y-49722D01*
X59174Y-49529D01*
X59175Y-49321D01*
X59175Y-51321D01*
X59095Y-51128D01*
X58947Y-50980D01*
X58754Y-50900D01*
X58546Y-50899D01*
X58353Y-50979D01*
X58205Y-51127D01*
X58125Y-51320D01*
X58124Y-51528D01*
X58204Y-51722D01*
X58352Y-51869D01*
X58545Y-51949D01*
X58753Y-51950D01*
X58947Y-51870D01*
X59094Y-51722D01*
X59174Y-51529D01*
X59175Y-51321D01*
X59175Y-55125D01*
X59100Y-55124D01*
X58900Y-55124D01*
X58808Y-55162D01*
X58800Y-55171D01*
X58791Y-55162D01*
X58699Y-55124D01*
X58662Y-55125D01*
X58600Y-55187D01*
X58600Y-55550D01*
X58607Y-55550D01*
X58607Y-55650D01*
X58600Y-55650D01*
X58600Y-56012D01*
X58662Y-56075D01*
X58699Y-56075D01*
X58791Y-56037D01*
X58799Y-56028D01*
X58808Y-56036D01*
X58900Y-56074D01*
X58999Y-56075D01*
X59199Y-56075D01*
X59291Y-56037D01*
X59299Y-56028D01*
X59308Y-56036D01*
X59400Y-56074D01*
X59499Y-56075D01*
X59699Y-56075D01*
X59791Y-56037D01*
X59799Y-56028D01*
X59808Y-56036D01*
X59900Y-56074D01*
X59999Y-56075D01*
X60199Y-56075D01*
X60291Y-56037D01*
X60299Y-56028D01*
X60308Y-56036D01*
X60400Y-56074D01*
X60499Y-56075D01*
X60699Y-56075D01*
X60791Y-56037D01*
X60799Y-56028D01*
X60808Y-56036D01*
X60900Y-56074D01*
X60999Y-56075D01*
X61199Y-56075D01*
X61291Y-56037D01*
X61299Y-56028D01*
X61308Y-56036D01*
X61400Y-56074D01*
X61499Y-56075D01*
X61699Y-56075D01*
X61791Y-56037D01*
X61861Y-55966D01*
X61899Y-55874D01*
X61900Y-55775D01*
X61900Y-57825D01*
X61900Y-57825D01*
X61900Y-57650D01*
X61899Y-57649D01*
X61873Y-57516D01*
X61797Y-57402D01*
X61797Y-57402D01*
X61622Y-57227D01*
X61508Y-57151D01*
X61375Y-57125D01*
X60325Y-57125D01*
X59536Y-57125D01*
X59505Y-57093D01*
X59339Y-57025D01*
X59160Y-57024D01*
X58995Y-57093D01*
X58868Y-57219D01*
X58800Y-57385D01*
X58800Y-57431D01*
X58726Y-57541D01*
X58709Y-57628D01*
X58699Y-57625D01*
X58600Y-57624D01*
X58500Y-57624D01*
X58500Y-56012D01*
X58500Y-55650D01*
X58500Y-55550D01*
X58500Y-55187D01*
X58437Y-55125D01*
X58400Y-55124D01*
X58308Y-55162D01*
X58238Y-55233D01*
X58200Y-55325D01*
X58199Y-55424D01*
X58200Y-55487D01*
X58262Y-55550D01*
X58500Y-55550D01*
X58500Y-55650D01*
X58262Y-55650D01*
X58200Y-55712D01*
X58199Y-55775D01*
X58200Y-55874D01*
X58238Y-55966D01*
X58308Y-56037D01*
X58400Y-56075D01*
X58437Y-56075D01*
X58500Y-56012D01*
X58500Y-57624D01*
X58400Y-57624D01*
X58308Y-57662D01*
X58238Y-57733D01*
X58200Y-57825D01*
X58199Y-57924D01*
X58199Y-58374D01*
X58237Y-58466D01*
X58250Y-58478D01*
X58250Y-58650D01*
X58250Y-58925D01*
X58272Y-59039D01*
X58337Y-59137D01*
X59087Y-59887D01*
X59087Y-59887D01*
X59144Y-59925D01*
X58613Y-59925D01*
X58521Y-59963D01*
X58450Y-60033D01*
X58412Y-60125D01*
X58412Y-60224D01*
X58412Y-60480D01*
X57952Y-60940D01*
X57876Y-61053D01*
X57850Y-61187D01*
X57850Y-64800D01*
X57876Y-64933D01*
X57952Y-65047D01*
X59077Y-66172D01*
X59191Y-66248D01*
X59325Y-66275D01*
X62875Y-66275D01*
X63008Y-66248D01*
X63008Y-66248D01*
X63122Y-66172D01*
X63287Y-66007D01*
X64002Y-66722D01*
X64002Y-66722D01*
X64116Y-66798D01*
X64249Y-66825D01*
X64249Y-66824D01*
X64250Y-66825D01*
X84000Y-66825D01*
X84133Y-66798D01*
X84133Y-66798D01*
X84247Y-66722D01*
X87872Y-63097D01*
X87948Y-62983D01*
X87975Y-62850D01*
X87975Y-52844D01*
X88669Y-52150D01*
X88797Y-52150D01*
X88913Y-52265D01*
X89115Y-52349D01*
X89333Y-52350D01*
X89536Y-52266D01*
X89690Y-52111D01*
X89774Y-51909D01*
X89775Y-51691D01*
X89691Y-51488D01*
X89536Y-51334D01*
X89455Y-51300D01*
X89536Y-51266D01*
X89690Y-51111D01*
X89774Y-50909D01*
X89775Y-50691D01*
X89691Y-50488D01*
X89552Y-50350D01*
X89574Y-50350D01*
X89666Y-50312D01*
X89736Y-50241D01*
X89774Y-50150D01*
X90080Y-50150D01*
X90144Y-50214D01*
X90144Y-51563D01*
X90182Y-51655D01*
X90253Y-51725D01*
X90345Y-51763D01*
X90444Y-51764D01*
X91822Y-51764D01*
X91914Y-51726D01*
X91984Y-51655D01*
X92022Y-51563D01*
X92023Y-51464D01*
X92023Y-50086D01*
X91985Y-49994D01*
X91914Y-49924D01*
X91890Y-49914D01*
X92639Y-49914D01*
X92615Y-49923D01*
X92545Y-49994D01*
X92507Y-50086D01*
X92506Y-50185D01*
X92506Y-51563D01*
X92544Y-51655D01*
X92615Y-51725D01*
X92707Y-51763D01*
X92806Y-51764D01*
X94184Y-51764D01*
X94276Y-51726D01*
X94346Y-51655D01*
X94384Y-51563D01*
X94385Y-51464D01*
X94385Y-50086D01*
X94347Y-49994D01*
X94276Y-49924D01*
X94184Y-49886D01*
X94085Y-49885D01*
X93071Y-49885D01*
X93095Y-49876D01*
X93165Y-49805D01*
X93203Y-49713D01*
X93204Y-49614D01*
X93204Y-48236D01*
X93193Y-48210D01*
X95710Y-48210D01*
X95710Y-66900D01*
X95710Y-66900D01*
G37*
G54D27*
X95710Y-66900D02*
X94322Y-66900D01*
X94322Y-61319D01*
X94322Y-59941D01*
X94322Y-58759D01*
X94322Y-57381D01*
X94284Y-57289D01*
X94214Y-57219D01*
X94122Y-57181D01*
X94022Y-57180D01*
X93910Y-57180D01*
X93910Y-55788D01*
X94068Y-55630D01*
X94159Y-55409D01*
X94160Y-55171D01*
X94068Y-54950D01*
X93900Y-54781D01*
X93679Y-54690D01*
X93441Y-54689D01*
X93220Y-54781D01*
X93051Y-54949D01*
X93047Y-54960D01*
X92982Y-54938D01*
X92911Y-55009D01*
X92630Y-55290D01*
X92982Y-55641D01*
X93047Y-55619D01*
X93051Y-55629D01*
X93210Y-55788D01*
X93210Y-57180D01*
X93077Y-57180D01*
X92986Y-57218D01*
X92915Y-57289D01*
X92911Y-57299D01*
X92911Y-55712D01*
X92560Y-55360D01*
X92554Y-55366D01*
X92489Y-55301D01*
X92483Y-55295D01*
X92489Y-55290D01*
X92483Y-55284D01*
X92554Y-55213D01*
X92560Y-55219D01*
X92911Y-54867D01*
X92877Y-54767D01*
X92653Y-54685D01*
X92415Y-54695D01*
X92242Y-54767D01*
X92208Y-54867D01*
X92163Y-54822D01*
X92141Y-54844D01*
X92122Y-54798D01*
X92051Y-54728D01*
X91959Y-54690D01*
X91860Y-54689D01*
X91160Y-54689D01*
X91068Y-54727D01*
X90998Y-54798D01*
X90960Y-54890D01*
X90959Y-54989D01*
X90959Y-55689D01*
X90997Y-55781D01*
X91068Y-55851D01*
X91160Y-55889D01*
X91259Y-55890D01*
X91959Y-55890D01*
X92051Y-55852D01*
X92121Y-55781D01*
X92141Y-55735D01*
X92163Y-55757D01*
X92208Y-55712D01*
X92242Y-55812D01*
X92466Y-55894D01*
X92704Y-55884D01*
X92877Y-55812D01*
X92911Y-55712D01*
X92911Y-57299D01*
X92877Y-57381D01*
X92877Y-57480D01*
X92877Y-58858D01*
X92915Y-58950D01*
X92985Y-59020D01*
X93077Y-59058D01*
X93177Y-59059D01*
X94122Y-59059D01*
X94213Y-59021D01*
X94284Y-58950D01*
X94322Y-58858D01*
X94322Y-58759D01*
X94322Y-59941D01*
X94284Y-59849D01*
X94214Y-59779D01*
X94122Y-59741D01*
X94022Y-59740D01*
X93077Y-59740D01*
X92986Y-59778D01*
X92915Y-59849D01*
X92877Y-59941D01*
X92877Y-60040D01*
X92877Y-61418D01*
X92915Y-61510D01*
X92985Y-61580D01*
X93077Y-61618D01*
X93177Y-61619D01*
X93250Y-61619D01*
X93250Y-62055D01*
X92655Y-62650D01*
X90150Y-62650D01*
X90150Y-61719D01*
X90322Y-61719D01*
X90413Y-61681D01*
X90484Y-61610D01*
X90522Y-61518D01*
X90522Y-61419D01*
X90522Y-60041D01*
X90522Y-58958D01*
X90522Y-57481D01*
X90484Y-57389D01*
X90414Y-57319D01*
X90322Y-57281D01*
X90222Y-57280D01*
X89912Y-57281D01*
X89850Y-57343D01*
X89850Y-58170D01*
X90460Y-58170D01*
X90522Y-58107D01*
X90522Y-57481D01*
X90522Y-58958D01*
X90522Y-58332D01*
X90460Y-58270D01*
X89850Y-58270D01*
X89850Y-59096D01*
X89912Y-59159D01*
X90222Y-59159D01*
X90322Y-59158D01*
X90414Y-59120D01*
X90484Y-59050D01*
X90522Y-58958D01*
X90522Y-60041D01*
X90484Y-59949D01*
X90414Y-59879D01*
X90322Y-59841D01*
X90222Y-59840D01*
X89750Y-59840D01*
X89750Y-59096D01*
X89750Y-58270D01*
X89750Y-58170D01*
X89750Y-57343D01*
X89687Y-57281D01*
X89377Y-57280D01*
X89277Y-57281D01*
X89185Y-57319D01*
X89115Y-57389D01*
X89077Y-57481D01*
X89077Y-58107D01*
X89140Y-58170D01*
X89750Y-58170D01*
X89750Y-58270D01*
X89140Y-58270D01*
X89077Y-58332D01*
X89077Y-58958D01*
X89115Y-59050D01*
X89185Y-59120D01*
X89277Y-59158D01*
X89377Y-59159D01*
X89687Y-59159D01*
X89750Y-59096D01*
X89750Y-59840D01*
X89277Y-59840D01*
X89186Y-59878D01*
X89115Y-59949D01*
X89077Y-60041D01*
X89077Y-60140D01*
X89077Y-61518D01*
X89115Y-61610D01*
X89185Y-61680D01*
X89277Y-61718D01*
X89377Y-61719D01*
X89450Y-61719D01*
X89450Y-62713D01*
X89418Y-62744D01*
X89350Y-62910D01*
X89349Y-63089D01*
X89418Y-63254D01*
X89544Y-63381D01*
X89710Y-63449D01*
X89889Y-63450D01*
X90054Y-63381D01*
X90086Y-63350D01*
X92800Y-63350D01*
X92933Y-63323D01*
X92933Y-63323D01*
X93047Y-63247D01*
X93847Y-62447D01*
X93847Y-62447D01*
X93847Y-62447D01*
X93923Y-62333D01*
X93949Y-62200D01*
X93950Y-62200D01*
X93950Y-61619D01*
X94122Y-61619D01*
X94213Y-61581D01*
X94284Y-61510D01*
X94322Y-61418D01*
X94322Y-61319D01*
X94322Y-66900D01*
X57420Y-66900D01*
X57420Y-48210D01*
X91336Y-48210D01*
X91326Y-48236D01*
X91325Y-48335D01*
X91325Y-49713D01*
X91363Y-49805D01*
X91434Y-49875D01*
X91458Y-49885D01*
X90805Y-49885D01*
X90472Y-49552D01*
X90358Y-49476D01*
X90225Y-49450D01*
X89774Y-49450D01*
X89737Y-49358D01*
X89666Y-49288D01*
X89574Y-49250D01*
X89475Y-49249D01*
X88875Y-49249D01*
X88783Y-49287D01*
X88713Y-49358D01*
X88675Y-49450D01*
X88674Y-49549D01*
X88674Y-50149D01*
X88712Y-50241D01*
X88783Y-50311D01*
X88875Y-50349D01*
X88897Y-50349D01*
X88759Y-50488D01*
X88675Y-50690D01*
X88674Y-50908D01*
X88758Y-51111D01*
X88913Y-51265D01*
X88994Y-51299D01*
X88913Y-51333D01*
X88797Y-51450D01*
X88525Y-51450D01*
X88391Y-51476D01*
X88277Y-51552D01*
X87377Y-52452D01*
X87301Y-52566D01*
X87275Y-52700D01*
X87275Y-62705D01*
X83855Y-66125D01*
X81452Y-66125D01*
X81465Y-66111D01*
X81470Y-66100D01*
X82250Y-66100D01*
X82300Y-66089D01*
X82352Y-66082D01*
X82358Y-66078D01*
X82364Y-66077D01*
X82407Y-66048D01*
X82452Y-66021D01*
X86176Y-62620D01*
X86178Y-62617D01*
X86187Y-62612D01*
X86228Y-62550D01*
X86245Y-62526D01*
X86246Y-62522D01*
X86252Y-62514D01*
X86265Y-62445D01*
X86273Y-62412D01*
X86273Y-62408D01*
X86275Y-62400D01*
X86275Y-51275D01*
X86270Y-51252D01*
X86271Y-51233D01*
X86260Y-51202D01*
X86252Y-51160D01*
X86238Y-51140D01*
X86232Y-51122D01*
X86211Y-51099D01*
X86187Y-51062D01*
X86166Y-51049D01*
X86154Y-51035D01*
X84855Y-50060D01*
X84821Y-50043D01*
X84789Y-50022D01*
X84768Y-50018D01*
X84749Y-50009D01*
X84711Y-50007D01*
X84675Y-50000D01*
X83550Y-50000D01*
X83435Y-50022D01*
X83337Y-50087D01*
X82712Y-50712D01*
X82647Y-50810D01*
X82625Y-50925D01*
X82625Y-51174D01*
X82600Y-51174D01*
X82508Y-51212D01*
X82438Y-51283D01*
X82437Y-51284D01*
X82437Y-51283D01*
X82366Y-51213D01*
X82274Y-51175D01*
X82250Y-51175D01*
X82250Y-50399D01*
X82449Y-50199D01*
X82534Y-50200D01*
X82690Y-50135D01*
X82810Y-50016D01*
X82874Y-49859D01*
X82875Y-49690D01*
X82810Y-49534D01*
X82691Y-49414D01*
X82534Y-49350D01*
X82365Y-49349D01*
X82209Y-49414D01*
X82089Y-49533D01*
X82025Y-49690D01*
X82024Y-49775D01*
X81737Y-50062D01*
X81672Y-50160D01*
X81650Y-50275D01*
X81650Y-51174D01*
X81625Y-51174D01*
X81533Y-51212D01*
X81463Y-51283D01*
X81450Y-51314D01*
X81437Y-51283D01*
X81366Y-51213D01*
X81317Y-51192D01*
X81339Y-49825D01*
X81399Y-49825D01*
X81491Y-49787D01*
X81561Y-49716D01*
X81599Y-49624D01*
X81600Y-49525D01*
X81600Y-48925D01*
X81562Y-48833D01*
X81491Y-48763D01*
X81399Y-48725D01*
X81300Y-48724D01*
X80700Y-48724D01*
X80608Y-48762D01*
X80538Y-48833D01*
X80500Y-48925D01*
X80500Y-48947D01*
X80361Y-48809D01*
X80159Y-48725D01*
X79941Y-48724D01*
X79738Y-48808D01*
X79584Y-48963D01*
X79550Y-49044D01*
X79516Y-48963D01*
X79361Y-48809D01*
X79159Y-48725D01*
X78941Y-48724D01*
X78738Y-48808D01*
X78584Y-48963D01*
X78550Y-49044D01*
X78516Y-48963D01*
X78361Y-48809D01*
X78159Y-48725D01*
X77941Y-48724D01*
X77738Y-48808D01*
X77584Y-48963D01*
X77550Y-49044D01*
X77516Y-48963D01*
X77361Y-48809D01*
X77159Y-48725D01*
X76941Y-48724D01*
X76738Y-48808D01*
X76584Y-48963D01*
X76550Y-49044D01*
X76516Y-48963D01*
X76361Y-48809D01*
X76159Y-48725D01*
X75941Y-48724D01*
X75738Y-48808D01*
X75584Y-48963D01*
X75550Y-49044D01*
X75516Y-48963D01*
X75361Y-48809D01*
X75159Y-48725D01*
X74941Y-48724D01*
X74738Y-48808D01*
X74584Y-48963D01*
X74550Y-49044D01*
X74516Y-48963D01*
X74361Y-48809D01*
X74159Y-48725D01*
X73941Y-48724D01*
X73738Y-48808D01*
X73584Y-48963D01*
X73550Y-49044D01*
X73516Y-48963D01*
X73361Y-48809D01*
X73159Y-48725D01*
X72941Y-48724D01*
X72738Y-48808D01*
X72584Y-48963D01*
X72550Y-49044D01*
X72516Y-48963D01*
X72361Y-48809D01*
X72159Y-48725D01*
X71941Y-48724D01*
X71738Y-48808D01*
X71584Y-48963D01*
X71550Y-49044D01*
X71516Y-48963D01*
X71361Y-48809D01*
X71159Y-48725D01*
X70941Y-48724D01*
X70738Y-48808D01*
X70584Y-48963D01*
X70550Y-49044D01*
X70516Y-48963D01*
X70361Y-48809D01*
X70159Y-48725D01*
X69941Y-48724D01*
X69738Y-48808D01*
X69584Y-48963D01*
X69500Y-49165D01*
X69499Y-49383D01*
X69583Y-49586D01*
X69738Y-49740D01*
X69940Y-49824D01*
X70158Y-49825D01*
X70361Y-49741D01*
X70515Y-49586D01*
X70549Y-49505D01*
X70583Y-49586D01*
X70738Y-49740D01*
X70940Y-49824D01*
X71158Y-49825D01*
X71361Y-49741D01*
X71515Y-49586D01*
X71549Y-49505D01*
X71583Y-49586D01*
X71738Y-49740D01*
X71750Y-49745D01*
X71750Y-49850D01*
X70848Y-50752D01*
X70810Y-50659D01*
X70691Y-50539D01*
X70534Y-50475D01*
X70365Y-50474D01*
X70209Y-50539D01*
X70148Y-50600D01*
X68850Y-50600D01*
X68841Y-50601D01*
X68830Y-50600D01*
X68777Y-50614D01*
X68735Y-50622D01*
X68728Y-50627D01*
X68717Y-50630D01*
X68672Y-50664D01*
X68637Y-50687D01*
X68633Y-50694D01*
X68624Y-50701D01*
X67874Y-51551D01*
X67850Y-51594D01*
X67822Y-51635D01*
X67820Y-51644D01*
X67816Y-51652D01*
X67809Y-51701D01*
X67800Y-51750D01*
X67800Y-55805D01*
X67760Y-55709D01*
X67641Y-55589D01*
X67484Y-55525D01*
X67315Y-55524D01*
X67159Y-55589D01*
X67039Y-55708D01*
X67000Y-55805D01*
X67000Y-53999D01*
X67544Y-53454D01*
X67590Y-53435D01*
X67710Y-53316D01*
X67774Y-53159D01*
X67775Y-52990D01*
X67710Y-52834D01*
X67591Y-52714D01*
X67434Y-52650D01*
X67265Y-52649D01*
X67109Y-52714D01*
X66989Y-52833D01*
X66925Y-52990D01*
X66924Y-53159D01*
X66944Y-53206D01*
X66665Y-53485D01*
X66665Y-51296D01*
X66665Y-49296D01*
X66585Y-49103D01*
X66437Y-48955D01*
X66244Y-48875D01*
X66036Y-48874D01*
X65843Y-48954D01*
X65695Y-49102D01*
X65615Y-49295D01*
X65614Y-49503D01*
X65694Y-49697D01*
X65842Y-49844D01*
X66035Y-49924D01*
X66243Y-49925D01*
X66437Y-49845D01*
X66584Y-49697D01*
X66664Y-49504D01*
X66665Y-49296D01*
X66665Y-51296D01*
X66585Y-51103D01*
X66437Y-50955D01*
X66244Y-50875D01*
X66036Y-50874D01*
X65843Y-50954D01*
X65695Y-51102D01*
X65615Y-51295D01*
X65614Y-51503D01*
X65694Y-51697D01*
X65842Y-51844D01*
X66035Y-51924D01*
X66243Y-51925D01*
X66437Y-51845D01*
X66584Y-51697D01*
X66664Y-51504D01*
X66665Y-51296D01*
X66665Y-53485D01*
X66487Y-53662D01*
X66422Y-53760D01*
X66400Y-53875D01*
X66400Y-55875D01*
X66265Y-55874D01*
X66109Y-55939D01*
X66013Y-56035D01*
X65991Y-56013D01*
X65899Y-55975D01*
X65800Y-55974D01*
X65450Y-55974D01*
X65358Y-56012D01*
X65299Y-56071D01*
X65241Y-56013D01*
X65149Y-55975D01*
X65050Y-55974D01*
X64700Y-55974D01*
X64608Y-56012D01*
X64538Y-56083D01*
X64500Y-56175D01*
X64500Y-56200D01*
X62799Y-56200D01*
X62675Y-56075D01*
X62675Y-51649D01*
X62694Y-51697D01*
X62842Y-51844D01*
X63035Y-51924D01*
X63243Y-51925D01*
X63437Y-51845D01*
X63584Y-51697D01*
X63664Y-51504D01*
X63665Y-51296D01*
X63665Y-49296D01*
X63585Y-49103D01*
X63437Y-48955D01*
X63244Y-48875D01*
X63036Y-48874D01*
X62843Y-48954D01*
X62695Y-49102D01*
X62615Y-49295D01*
X62614Y-49503D01*
X62694Y-49697D01*
X62842Y-49844D01*
X63035Y-49924D01*
X63243Y-49925D01*
X63437Y-49845D01*
X63584Y-49697D01*
X63664Y-49504D01*
X63665Y-49296D01*
X63665Y-51296D01*
X63585Y-51103D01*
X63437Y-50955D01*
X63244Y-50875D01*
X63036Y-50874D01*
X62843Y-50954D01*
X62695Y-51102D01*
X62675Y-51150D01*
X62675Y-50050D01*
X62652Y-49935D01*
X62652Y-49935D01*
X62587Y-49837D01*
X62174Y-49425D01*
X62175Y-49321D01*
X62095Y-49128D01*
X61947Y-48980D01*
X61754Y-48900D01*
X61546Y-48899D01*
X61353Y-48979D01*
X61205Y-49127D01*
X61125Y-49320D01*
X61124Y-49528D01*
X61204Y-49722D01*
X61352Y-49869D01*
X61545Y-49949D01*
X61753Y-49950D01*
X61822Y-49921D01*
X62075Y-50174D01*
X62075Y-51107D01*
X61947Y-50980D01*
X61754Y-50900D01*
X61546Y-50899D01*
X61353Y-50979D01*
X61205Y-51127D01*
X61125Y-51320D01*
X61124Y-51528D01*
X61204Y-51722D01*
X61352Y-51869D01*
X61545Y-51949D01*
X61753Y-51950D01*
X61947Y-51870D01*
X62075Y-51742D01*
X62075Y-56200D01*
X62097Y-56314D01*
X62162Y-56412D01*
X62462Y-56712D01*
X62462Y-56712D01*
X62560Y-56777D01*
X62674Y-56799D01*
X62675Y-56800D01*
X64499Y-56800D01*
X64499Y-56824D01*
X64514Y-56860D01*
X64325Y-57050D01*
X64240Y-57049D01*
X64084Y-57114D01*
X63964Y-57233D01*
X63900Y-57390D01*
X63899Y-57559D01*
X63964Y-57715D01*
X64083Y-57835D01*
X64240Y-57899D01*
X64409Y-57900D01*
X64565Y-57835D01*
X64685Y-57716D01*
X64749Y-57559D01*
X64750Y-57474D01*
X65137Y-57087D01*
X65137Y-57087D01*
X65189Y-57008D01*
X65189Y-57008D01*
X65241Y-56987D01*
X65300Y-56928D01*
X65358Y-56986D01*
X65450Y-57024D01*
X65549Y-57025D01*
X65899Y-57025D01*
X65991Y-56987D01*
X66061Y-56916D01*
X66099Y-56824D01*
X66099Y-56800D01*
X66150Y-56800D01*
X66150Y-56799D01*
X66264Y-56777D01*
X66264Y-56777D01*
X66342Y-56724D01*
X66400Y-56725D01*
X66400Y-57850D01*
X65451Y-58798D01*
X65435Y-58759D01*
X65316Y-58639D01*
X65159Y-58575D01*
X64990Y-58574D01*
X64975Y-58581D01*
X64961Y-58571D01*
X64936Y-58562D01*
X64914Y-58547D01*
X64882Y-58541D01*
X64852Y-58529D01*
X64825Y-58530D01*
X64800Y-58525D01*
X64450Y-58525D01*
X64425Y-58525D01*
X64310Y-58547D01*
X64212Y-58612D01*
X64162Y-58688D01*
X63475Y-59375D01*
X60924Y-59375D01*
X60350Y-58800D01*
X60350Y-58554D01*
X60400Y-58574D01*
X60499Y-58575D01*
X60699Y-58575D01*
X60755Y-58551D01*
X60772Y-58639D01*
X60775Y-58643D01*
X60775Y-58643D01*
X60774Y-58759D01*
X60839Y-58915D01*
X60958Y-59035D01*
X61115Y-59099D01*
X61284Y-59100D01*
X61440Y-59035D01*
X61560Y-58916D01*
X61624Y-58759D01*
X61625Y-58590D01*
X61618Y-58575D01*
X61699Y-58575D01*
X61791Y-58537D01*
X61861Y-58466D01*
X61899Y-58374D01*
X61900Y-58275D01*
X61900Y-57825D01*
X61900Y-55775D01*
X61900Y-55325D01*
X61862Y-55233D01*
X61791Y-55163D01*
X61699Y-55125D01*
X61600Y-55124D01*
X61400Y-55124D01*
X61308Y-55162D01*
X61300Y-55171D01*
X61291Y-55163D01*
X61199Y-55125D01*
X61100Y-55124D01*
X60900Y-55124D01*
X60808Y-55162D01*
X60800Y-55171D01*
X60791Y-55163D01*
X60699Y-55125D01*
X60600Y-55124D01*
X60400Y-55124D01*
X60308Y-55162D01*
X60300Y-55171D01*
X60291Y-55163D01*
X60199Y-55125D01*
X60100Y-55124D01*
X59900Y-55124D01*
X59808Y-55162D01*
X59800Y-55171D01*
X59791Y-55163D01*
X59699Y-55125D01*
X59600Y-55124D01*
X59400Y-55124D01*
X59308Y-55162D01*
X59300Y-55171D01*
X59291Y-55163D01*
X59199Y-55125D01*
X59175Y-55125D01*
X59175Y-51321D01*
X59175Y-49321D01*
X59095Y-49128D01*
X58947Y-48980D01*
X58754Y-48900D01*
X58546Y-48899D01*
X58353Y-48979D01*
X58205Y-49127D01*
X58125Y-49320D01*
X58124Y-49528D01*
X58204Y-49722D01*
X58352Y-49869D01*
X58545Y-49949D01*
X58753Y-49950D01*
X58947Y-49870D01*
X59094Y-49722D01*
X59174Y-49529D01*
X59175Y-49321D01*
X59175Y-51321D01*
X59095Y-51128D01*
X58947Y-50980D01*
X58754Y-50900D01*
X58546Y-50899D01*
X58353Y-50979D01*
X58205Y-51127D01*
X58125Y-51320D01*
X58124Y-51528D01*
X58204Y-51722D01*
X58352Y-51869D01*
X58545Y-51949D01*
X58753Y-51950D01*
X58947Y-51870D01*
X59094Y-51722D01*
X59174Y-51529D01*
X59175Y-51321D01*
X59175Y-55125D01*
X59100Y-55124D01*
X58900Y-55124D01*
X58808Y-55162D01*
X58800Y-55171D01*
X58791Y-55162D01*
X58699Y-55124D01*
X58662Y-55125D01*
X58600Y-55187D01*
X58600Y-55550D01*
X58607Y-55550D01*
X58607Y-55650D01*
X58600Y-55650D01*
X58600Y-56012D01*
X58662Y-56075D01*
X58699Y-56075D01*
X58791Y-56037D01*
X58799Y-56028D01*
X58808Y-56036D01*
X58900Y-56074D01*
X58999Y-56075D01*
X59199Y-56075D01*
X59291Y-56037D01*
X59299Y-56028D01*
X59308Y-56036D01*
X59400Y-56074D01*
X59499Y-56075D01*
X59699Y-56075D01*
X59791Y-56037D01*
X59799Y-56028D01*
X59808Y-56036D01*
X59900Y-56074D01*
X59999Y-56075D01*
X60199Y-56075D01*
X60291Y-56037D01*
X60299Y-56028D01*
X60308Y-56036D01*
X60400Y-56074D01*
X60499Y-56075D01*
X60699Y-56075D01*
X60791Y-56037D01*
X60799Y-56028D01*
X60808Y-56036D01*
X60900Y-56074D01*
X60999Y-56075D01*
X61199Y-56075D01*
X61291Y-56037D01*
X61299Y-56028D01*
X61308Y-56036D01*
X61400Y-56074D01*
X61499Y-56075D01*
X61699Y-56075D01*
X61791Y-56037D01*
X61861Y-55966D01*
X61899Y-55874D01*
X61900Y-55775D01*
X61900Y-57825D01*
X61900Y-57825D01*
X61900Y-57650D01*
X61899Y-57649D01*
X61873Y-57516D01*
X61797Y-57402D01*
X61797Y-57402D01*
X61622Y-57227D01*
X61508Y-57151D01*
X61375Y-57125D01*
X60325Y-57125D01*
X59536Y-57125D01*
X59505Y-57093D01*
X59339Y-57025D01*
X59160Y-57024D01*
X58995Y-57093D01*
X58868Y-57219D01*
X58800Y-57385D01*
X58800Y-57431D01*
X58726Y-57541D01*
X58709Y-57628D01*
X58699Y-57625D01*
X58600Y-57624D01*
X58500Y-57624D01*
X58500Y-56012D01*
X58500Y-55650D01*
X58500Y-55550D01*
X58500Y-55187D01*
X58437Y-55125D01*
X58400Y-55124D01*
X58308Y-55162D01*
X58238Y-55233D01*
X58200Y-55325D01*
X58199Y-55424D01*
X58200Y-55487D01*
X58262Y-55550D01*
X58500Y-55550D01*
X58500Y-55650D01*
X58262Y-55650D01*
X58200Y-55712D01*
X58199Y-55775D01*
X58200Y-55874D01*
X58238Y-55966D01*
X58308Y-56037D01*
X58400Y-56075D01*
X58437Y-56075D01*
X58500Y-56012D01*
X58500Y-57624D01*
X58400Y-57624D01*
X58308Y-57662D01*
X58238Y-57733D01*
X58200Y-57825D01*
X58199Y-57924D01*
X58199Y-58374D01*
X58237Y-58466D01*
X58250Y-58478D01*
X58250Y-58650D01*
X58250Y-58925D01*
X58272Y-59039D01*
X58337Y-59137D01*
X59087Y-59887D01*
X59087Y-59887D01*
X59144Y-59925D01*
X58613Y-59925D01*
X58521Y-59963D01*
X58450Y-60033D01*
X58412Y-60125D01*
X58412Y-60224D01*
X58412Y-60480D01*
X57952Y-60940D01*
X57876Y-61053D01*
X57850Y-61187D01*
X57850Y-64800D01*
X57876Y-64933D01*
X57952Y-65047D01*
X59077Y-66172D01*
X59191Y-66248D01*
X59325Y-66275D01*
X62875Y-66275D01*
X63008Y-66248D01*
X63008Y-66248D01*
X63122Y-66172D01*
X63287Y-66007D01*
X64002Y-66722D01*
X64002Y-66722D01*
X64116Y-66798D01*
X64249Y-66825D01*
X64249Y-66824D01*
X64250Y-66825D01*
X84000Y-66825D01*
X84133Y-66798D01*
X84133Y-66798D01*
X84247Y-66722D01*
X87872Y-63097D01*
X87948Y-62983D01*
X87975Y-62850D01*
X87975Y-52844D01*
X88669Y-52150D01*
X88797Y-52150D01*
X88913Y-52265D01*
X89115Y-52349D01*
X89333Y-52350D01*
X89536Y-52266D01*
X89690Y-52111D01*
X89774Y-51909D01*
X89775Y-51691D01*
X89691Y-51488D01*
X89536Y-51334D01*
X89455Y-51300D01*
X89536Y-51266D01*
X89690Y-51111D01*
X89774Y-50909D01*
X89775Y-50691D01*
X89691Y-50488D01*
X89552Y-50350D01*
X89574Y-50350D01*
X89666Y-50312D01*
X89736Y-50241D01*
X89774Y-50150D01*
X90080Y-50150D01*
X90144Y-50214D01*
X90144Y-51563D01*
X90182Y-51655D01*
X90253Y-51725D01*
X90345Y-51763D01*
X90444Y-51764D01*
X91822Y-51764D01*
X91914Y-51726D01*
X91984Y-51655D01*
X92022Y-51563D01*
X92023Y-51464D01*
X92023Y-50086D01*
X91985Y-49994D01*
X91914Y-49924D01*
X91890Y-49914D01*
X92639Y-49914D01*
X92615Y-49923D01*
X92545Y-49994D01*
X92507Y-50086D01*
X92506Y-50185D01*
X92506Y-51563D01*
X92544Y-51655D01*
X92615Y-51725D01*
X92707Y-51763D01*
X92806Y-51764D01*
X94184Y-51764D01*
X94276Y-51726D01*
X94346Y-51655D01*
X94384Y-51563D01*
X94385Y-51464D01*
X94385Y-50086D01*
X94347Y-49994D01*
X94276Y-49924D01*
X94184Y-49886D01*
X94085Y-49885D01*
X93071Y-49885D01*
X93095Y-49876D01*
X93165Y-49805D01*
X93203Y-49713D01*
X93204Y-49614D01*
X93204Y-48236D01*
X93193Y-48210D01*
X95710Y-48210D01*
X95710Y-66900D01*
M02*
