G04 (created by PCBNEW (2013-07-07 BZR 4022)-stable) date 5/31/2014 7:32:52 PM*
%MOIN*%
G04 Gerber Fmt 3.4, Leading zero omitted, Abs format*
%FSLAX34Y34*%
G01*
G70*
G90*
G04 APERTURE LIST*
%ADD10C,0.00590551*%
%ADD11C,0.011811*%
%ADD12C,0.005*%
%ADD13C,0.008*%
%ADD14C,0.0039*%
%ADD15C,0.006*%
%ADD16C,0.012*%
%ADD17C,0.0125*%
%ADD18C,0.015*%
%ADD19C,0.0043*%
%ADD20C,0.01125*%
%ADD21C,0.0047*%
G04 APERTURE END LIST*
G54D10*
G54D11*
X86766Y-65064D02*
X86484Y-65064D01*
X86484Y-64473D01*
X86962Y-65064D02*
X86962Y-64473D01*
X87187Y-64473D01*
X87244Y-64501D01*
X87272Y-64529D01*
X87300Y-64585D01*
X87300Y-64670D01*
X87272Y-64726D01*
X87244Y-64754D01*
X87187Y-64782D01*
X86962Y-64782D01*
X87891Y-65007D02*
X87862Y-65035D01*
X87778Y-65064D01*
X87722Y-65064D01*
X87637Y-65035D01*
X87581Y-64979D01*
X87553Y-64923D01*
X87525Y-64810D01*
X87525Y-64726D01*
X87553Y-64614D01*
X87581Y-64557D01*
X87637Y-64501D01*
X87722Y-64473D01*
X87778Y-64473D01*
X87862Y-64501D01*
X87891Y-64529D01*
X88453Y-65064D02*
X88115Y-65064D01*
X88284Y-65064D02*
X88284Y-64473D01*
X88228Y-64557D01*
X88172Y-64614D01*
X88115Y-64642D01*
X89015Y-65064D02*
X88678Y-65064D01*
X88847Y-65064D02*
X88847Y-64473D01*
X88790Y-64557D01*
X88734Y-64614D01*
X88678Y-64642D01*
X89578Y-65064D02*
X89240Y-65064D01*
X89409Y-65064D02*
X89409Y-64473D01*
X89353Y-64557D01*
X89297Y-64614D01*
X89240Y-64642D01*
X90084Y-64670D02*
X90084Y-65064D01*
X89943Y-64445D02*
X89803Y-64867D01*
X90168Y-64867D01*
X90590Y-64754D02*
X90393Y-64754D01*
X90393Y-65064D02*
X90393Y-64473D01*
X90675Y-64473D01*
X90900Y-65064D02*
X90900Y-64473D01*
X91237Y-65064D01*
X91237Y-64473D01*
X91490Y-64529D02*
X91518Y-64501D01*
X91574Y-64473D01*
X91715Y-64473D01*
X91771Y-64501D01*
X91799Y-64529D01*
X91828Y-64585D01*
X91828Y-64642D01*
X91799Y-64726D01*
X91462Y-65064D01*
X91828Y-65064D01*
X92165Y-64726D02*
X92109Y-64698D01*
X92081Y-64670D01*
X92052Y-64614D01*
X92052Y-64585D01*
X92081Y-64529D01*
X92109Y-64501D01*
X92165Y-64473D01*
X92277Y-64473D01*
X92334Y-64501D01*
X92362Y-64529D01*
X92390Y-64585D01*
X92390Y-64614D01*
X92362Y-64670D01*
X92334Y-64698D01*
X92277Y-64726D01*
X92165Y-64726D01*
X92109Y-64754D01*
X92081Y-64782D01*
X92052Y-64839D01*
X92052Y-64951D01*
X92081Y-65007D01*
X92109Y-65035D01*
X92165Y-65064D01*
X92277Y-65064D01*
X92334Y-65035D01*
X92362Y-65007D01*
X92390Y-64951D01*
X92390Y-64839D01*
X92362Y-64782D01*
X92334Y-64754D01*
X92277Y-64726D01*
X93093Y-65064D02*
X93093Y-64473D01*
X93093Y-64698D02*
X93149Y-64670D01*
X93262Y-64670D01*
X93318Y-64698D01*
X93346Y-64726D01*
X93374Y-64782D01*
X93374Y-64951D01*
X93346Y-65007D01*
X93318Y-65035D01*
X93262Y-65064D01*
X93149Y-65064D01*
X93093Y-65035D01*
X93712Y-65064D02*
X93655Y-65035D01*
X93627Y-65007D01*
X93599Y-64951D01*
X93599Y-64782D01*
X93627Y-64726D01*
X93655Y-64698D01*
X93712Y-64670D01*
X93796Y-64670D01*
X93852Y-64698D01*
X93880Y-64726D01*
X93908Y-64782D01*
X93908Y-64951D01*
X93880Y-65007D01*
X93852Y-65035D01*
X93796Y-65064D01*
X93712Y-65064D01*
X94415Y-65064D02*
X94415Y-64754D01*
X94387Y-64698D01*
X94330Y-64670D01*
X94218Y-64670D01*
X94162Y-64698D01*
X94415Y-65035D02*
X94358Y-65064D01*
X94218Y-65064D01*
X94162Y-65035D01*
X94133Y-64979D01*
X94133Y-64923D01*
X94162Y-64867D01*
X94218Y-64839D01*
X94358Y-64839D01*
X94415Y-64810D01*
X94696Y-65064D02*
X94696Y-64670D01*
X94696Y-64782D02*
X94724Y-64726D01*
X94752Y-64698D01*
X94808Y-64670D01*
X94865Y-64670D01*
X95315Y-65064D02*
X95315Y-64473D01*
X95315Y-65035D02*
X95258Y-65064D01*
X95146Y-65064D01*
X95090Y-65035D01*
X95061Y-65007D01*
X95033Y-64951D01*
X95033Y-64782D01*
X95061Y-64726D01*
X95090Y-64698D01*
X95146Y-64670D01*
X95258Y-64670D01*
X95315Y-64698D01*
X88425Y-65418D02*
X88622Y-66008D01*
X88819Y-65418D01*
X89240Y-65980D02*
X89184Y-66008D01*
X89072Y-66008D01*
X89015Y-65980D01*
X88987Y-65924D01*
X88987Y-65699D01*
X89015Y-65643D01*
X89072Y-65615D01*
X89184Y-65615D01*
X89240Y-65643D01*
X89268Y-65699D01*
X89268Y-65755D01*
X88987Y-65812D01*
X89522Y-66008D02*
X89522Y-65615D01*
X89522Y-65727D02*
X89550Y-65671D01*
X89578Y-65643D01*
X89634Y-65615D01*
X89690Y-65615D01*
X89859Y-65980D02*
X89915Y-66008D01*
X90028Y-66008D01*
X90084Y-65980D01*
X90112Y-65924D01*
X90112Y-65896D01*
X90084Y-65840D01*
X90028Y-65812D01*
X89943Y-65812D01*
X89887Y-65783D01*
X89859Y-65727D01*
X89859Y-65699D01*
X89887Y-65643D01*
X89943Y-65615D01*
X90028Y-65615D01*
X90084Y-65643D01*
X90365Y-66008D02*
X90365Y-65615D01*
X90365Y-65418D02*
X90337Y-65446D01*
X90365Y-65474D01*
X90393Y-65446D01*
X90365Y-65418D01*
X90365Y-65474D01*
X90731Y-66008D02*
X90675Y-65980D01*
X90646Y-65952D01*
X90618Y-65896D01*
X90618Y-65727D01*
X90646Y-65671D01*
X90675Y-65643D01*
X90731Y-65615D01*
X90815Y-65615D01*
X90871Y-65643D01*
X90900Y-65671D01*
X90928Y-65727D01*
X90928Y-65896D01*
X90900Y-65952D01*
X90871Y-65980D01*
X90815Y-66008D01*
X90731Y-66008D01*
X91181Y-65615D02*
X91181Y-66008D01*
X91181Y-65671D02*
X91209Y-65643D01*
X91265Y-65615D01*
X91349Y-65615D01*
X91406Y-65643D01*
X91434Y-65699D01*
X91434Y-66008D01*
X92474Y-66008D02*
X92137Y-66008D01*
X92306Y-66008D02*
X92306Y-65418D01*
X92249Y-65502D01*
X92193Y-65558D01*
X92137Y-65587D01*
X92727Y-65952D02*
X92756Y-65980D01*
X92727Y-66008D01*
X92699Y-65980D01*
X92727Y-65952D01*
X92727Y-66008D01*
X93121Y-65418D02*
X93177Y-65418D01*
X93234Y-65446D01*
X93262Y-65474D01*
X93290Y-65530D01*
X93318Y-65643D01*
X93318Y-65783D01*
X93290Y-65896D01*
X93262Y-65952D01*
X93234Y-65980D01*
X93177Y-66008D01*
X93121Y-66008D01*
X93065Y-65980D01*
X93037Y-65952D01*
X93009Y-65896D01*
X92980Y-65783D01*
X92980Y-65643D01*
X93009Y-65530D01*
X93037Y-65474D01*
X93065Y-65446D01*
X93121Y-65418D01*
G54D12*
X61150Y-50425D02*
G75*
G03X61150Y-50425I-1000J0D01*
G74*
G01*
X58650Y-48925D02*
X61650Y-48925D01*
X61650Y-48925D02*
X61650Y-51925D01*
X61650Y-51925D02*
X58650Y-51925D01*
X58650Y-48925D02*
X58650Y-51925D01*
X65640Y-50400D02*
G75*
G03X65640Y-50400I-1000J0D01*
G74*
G01*
X63140Y-48900D02*
X66140Y-48900D01*
X66140Y-48900D02*
X66140Y-51900D01*
X66140Y-51900D02*
X63140Y-51900D01*
X63140Y-48900D02*
X63140Y-51900D01*
G54D13*
X62050Y-55900D02*
X62050Y-57800D01*
X62050Y-57800D02*
X58050Y-57800D01*
X58050Y-57800D02*
X58050Y-55900D01*
X58050Y-55900D02*
X62050Y-55900D01*
X58050Y-56600D02*
X58300Y-56600D01*
X58300Y-56600D02*
X58300Y-57100D01*
X58300Y-57100D02*
X58050Y-57100D01*
G54D14*
X77400Y-61450D02*
G75*
G03X77400Y-61450I-50J0D01*
G74*
G01*
X77350Y-61900D02*
X77350Y-61500D01*
X77350Y-61500D02*
X77950Y-61500D01*
X77950Y-61500D02*
X77950Y-61900D01*
X77950Y-62300D02*
X77950Y-62700D01*
X77950Y-62700D02*
X77350Y-62700D01*
X77350Y-62700D02*
X77350Y-62300D01*
X78725Y-51325D02*
G75*
G03X78725Y-51325I-50J0D01*
G74*
G01*
X78675Y-51775D02*
X78675Y-51375D01*
X78675Y-51375D02*
X79275Y-51375D01*
X79275Y-51375D02*
X79275Y-51775D01*
X79275Y-52175D02*
X79275Y-52575D01*
X79275Y-52575D02*
X78675Y-52575D01*
X78675Y-52575D02*
X78675Y-52175D01*
X77725Y-51325D02*
G75*
G03X77725Y-51325I-50J0D01*
G74*
G01*
X77675Y-51775D02*
X77675Y-51375D01*
X77675Y-51375D02*
X78275Y-51375D01*
X78275Y-51375D02*
X78275Y-51775D01*
X78275Y-52175D02*
X78275Y-52575D01*
X78275Y-52575D02*
X77675Y-52575D01*
X77675Y-52575D02*
X77675Y-52175D01*
X79725Y-51325D02*
G75*
G03X79725Y-51325I-50J0D01*
G74*
G01*
X79675Y-51775D02*
X79675Y-51375D01*
X79675Y-51375D02*
X80275Y-51375D01*
X80275Y-51375D02*
X80275Y-51775D01*
X80275Y-52175D02*
X80275Y-52575D01*
X80275Y-52575D02*
X79675Y-52575D01*
X79675Y-52575D02*
X79675Y-52175D01*
X74725Y-51250D02*
G75*
G03X74725Y-51250I-50J0D01*
G74*
G01*
X74675Y-51700D02*
X74675Y-51300D01*
X74675Y-51300D02*
X75275Y-51300D01*
X75275Y-51300D02*
X75275Y-51700D01*
X75275Y-52100D02*
X75275Y-52500D01*
X75275Y-52500D02*
X74675Y-52500D01*
X74675Y-52500D02*
X74675Y-52100D01*
X73750Y-51250D02*
G75*
G03X73750Y-51250I-50J0D01*
G74*
G01*
X73700Y-51700D02*
X73700Y-51300D01*
X73700Y-51300D02*
X74300Y-51300D01*
X74300Y-51300D02*
X74300Y-51700D01*
X74300Y-52100D02*
X74300Y-52500D01*
X74300Y-52500D02*
X73700Y-52500D01*
X73700Y-52500D02*
X73700Y-52100D01*
X72775Y-51250D02*
G75*
G03X72775Y-51250I-50J0D01*
G74*
G01*
X72725Y-51700D02*
X72725Y-51300D01*
X72725Y-51300D02*
X73325Y-51300D01*
X73325Y-51300D02*
X73325Y-51700D01*
X73325Y-52100D02*
X73325Y-52500D01*
X73325Y-52500D02*
X72725Y-52500D01*
X72725Y-52500D02*
X72725Y-52100D01*
X71825Y-51250D02*
G75*
G03X71825Y-51250I-50J0D01*
G74*
G01*
X71775Y-51700D02*
X71775Y-51300D01*
X71775Y-51300D02*
X72375Y-51300D01*
X72375Y-51300D02*
X72375Y-51700D01*
X72375Y-52100D02*
X72375Y-52500D01*
X72375Y-52500D02*
X71775Y-52500D01*
X71775Y-52500D02*
X71775Y-52100D01*
X70775Y-51250D02*
G75*
G03X70775Y-51250I-50J0D01*
G74*
G01*
X70725Y-51700D02*
X70725Y-51300D01*
X70725Y-51300D02*
X71325Y-51300D01*
X71325Y-51300D02*
X71325Y-51700D01*
X71325Y-52100D02*
X71325Y-52500D01*
X71325Y-52500D02*
X70725Y-52500D01*
X70725Y-52500D02*
X70725Y-52100D01*
X78475Y-61450D02*
G75*
G03X78475Y-61450I-50J0D01*
G74*
G01*
X78425Y-61900D02*
X78425Y-61500D01*
X78425Y-61500D02*
X79025Y-61500D01*
X79025Y-61500D02*
X79025Y-61900D01*
X79025Y-62300D02*
X79025Y-62700D01*
X79025Y-62700D02*
X78425Y-62700D01*
X78425Y-62700D02*
X78425Y-62300D01*
X61025Y-61300D02*
G75*
G03X61025Y-61300I-50J0D01*
G74*
G01*
X61425Y-61300D02*
X61025Y-61300D01*
X61025Y-61300D02*
X61025Y-60700D01*
X61025Y-60700D02*
X61425Y-60700D01*
X61825Y-60700D02*
X62225Y-60700D01*
X62225Y-60700D02*
X62225Y-61300D01*
X62225Y-61300D02*
X61825Y-61300D01*
X66000Y-56200D02*
G75*
G03X66000Y-56200I-50J0D01*
G74*
G01*
X65500Y-56200D02*
X65900Y-56200D01*
X65900Y-56200D02*
X65900Y-56800D01*
X65900Y-56800D02*
X65500Y-56800D01*
X65100Y-56800D02*
X64700Y-56800D01*
X64700Y-56800D02*
X64700Y-56200D01*
X64700Y-56200D02*
X65100Y-56200D01*
X68950Y-61450D02*
G75*
G03X68950Y-61450I-50J0D01*
G74*
G01*
X68900Y-61900D02*
X68900Y-61500D01*
X68900Y-61500D02*
X69500Y-61500D01*
X69500Y-61500D02*
X69500Y-61900D01*
X69500Y-62300D02*
X69500Y-62700D01*
X69500Y-62700D02*
X68900Y-62700D01*
X68900Y-62700D02*
X68900Y-62300D01*
X62300Y-61550D02*
G75*
G03X62300Y-61550I-50J0D01*
G74*
G01*
X61800Y-61550D02*
X62200Y-61550D01*
X62200Y-61550D02*
X62200Y-62150D01*
X62200Y-62150D02*
X61800Y-62150D01*
X61400Y-62150D02*
X61000Y-62150D01*
X61000Y-62150D02*
X61000Y-61550D01*
X61000Y-61550D02*
X61400Y-61550D01*
X70375Y-52525D02*
G75*
G03X70375Y-52525I-50J0D01*
G74*
G01*
X70325Y-52075D02*
X70325Y-52475D01*
X70325Y-52475D02*
X69725Y-52475D01*
X69725Y-52475D02*
X69725Y-52075D01*
X69725Y-51675D02*
X69725Y-51275D01*
X69725Y-51275D02*
X70325Y-51275D01*
X70325Y-51275D02*
X70325Y-51675D01*
X67925Y-61450D02*
G75*
G03X67925Y-61450I-50J0D01*
G74*
G01*
X67875Y-61900D02*
X67875Y-61500D01*
X67875Y-61500D02*
X68475Y-61500D01*
X68475Y-61500D02*
X68475Y-61900D01*
X68475Y-62300D02*
X68475Y-62700D01*
X68475Y-62700D02*
X67875Y-62700D01*
X67875Y-62700D02*
X67875Y-62300D01*
X80700Y-51325D02*
G75*
G03X80700Y-51325I-50J0D01*
G74*
G01*
X80650Y-51775D02*
X80650Y-51375D01*
X80650Y-51375D02*
X81250Y-51375D01*
X81250Y-51375D02*
X81250Y-51775D01*
X81250Y-52175D02*
X81250Y-52575D01*
X81250Y-52575D02*
X80650Y-52575D01*
X80650Y-52575D02*
X80650Y-52175D01*
X82775Y-61450D02*
G75*
G03X82775Y-61450I-50J0D01*
G74*
G01*
X82725Y-61900D02*
X82725Y-61500D01*
X82725Y-61500D02*
X83325Y-61500D01*
X83325Y-61500D02*
X83325Y-61900D01*
X83325Y-62300D02*
X83325Y-62700D01*
X83325Y-62700D02*
X82725Y-62700D01*
X82725Y-62700D02*
X82725Y-62300D01*
X70000Y-61450D02*
G75*
G03X70000Y-61450I-50J0D01*
G74*
G01*
X69950Y-61900D02*
X69950Y-61500D01*
X69950Y-61500D02*
X70550Y-61500D01*
X70550Y-61500D02*
X70550Y-61900D01*
X70550Y-62300D02*
X70550Y-62700D01*
X70550Y-62700D02*
X69950Y-62700D01*
X69950Y-62700D02*
X69950Y-62300D01*
X71025Y-61450D02*
G75*
G03X71025Y-61450I-50J0D01*
G74*
G01*
X70975Y-61900D02*
X70975Y-61500D01*
X70975Y-61500D02*
X71575Y-61500D01*
X71575Y-61500D02*
X71575Y-61900D01*
X71575Y-62300D02*
X71575Y-62700D01*
X71575Y-62700D02*
X70975Y-62700D01*
X70975Y-62700D02*
X70975Y-62300D01*
X83275Y-52625D02*
G75*
G03X83275Y-52625I-50J0D01*
G74*
G01*
X83225Y-52175D02*
X83225Y-52575D01*
X83225Y-52575D02*
X82625Y-52575D01*
X82625Y-52575D02*
X82625Y-52175D01*
X82625Y-51775D02*
X82625Y-51375D01*
X82625Y-51375D02*
X83225Y-51375D01*
X83225Y-51375D02*
X83225Y-51775D01*
X82300Y-52625D02*
G75*
G03X82300Y-52625I-50J0D01*
G74*
G01*
X82250Y-52175D02*
X82250Y-52575D01*
X82250Y-52575D02*
X81650Y-52575D01*
X81650Y-52575D02*
X81650Y-52175D01*
X81650Y-51775D02*
X81650Y-51375D01*
X81650Y-51375D02*
X82250Y-51375D01*
X82250Y-51375D02*
X82250Y-51775D01*
X79500Y-61450D02*
G75*
G03X79500Y-61450I-50J0D01*
G74*
G01*
X79450Y-61900D02*
X79450Y-61500D01*
X79450Y-61500D02*
X80050Y-61500D01*
X80050Y-61500D02*
X80050Y-61900D01*
X80050Y-62300D02*
X80050Y-62700D01*
X80050Y-62700D02*
X79450Y-62700D01*
X79450Y-62700D02*
X79450Y-62300D01*
G54D15*
X88725Y-49300D02*
X89725Y-49300D01*
X89725Y-49300D02*
X89725Y-52300D01*
X89725Y-52300D02*
X88725Y-52300D01*
X88725Y-52300D02*
X88725Y-49300D01*
X89725Y-50300D02*
X88725Y-50300D01*
X66650Y-62100D02*
X66650Y-63100D01*
X66650Y-63100D02*
X64650Y-63100D01*
X64650Y-63100D02*
X64650Y-62100D01*
X64650Y-62100D02*
X66650Y-62100D01*
G54D16*
X60600Y-65575D02*
X60600Y-64575D01*
X60600Y-64575D02*
X66600Y-64575D01*
X66600Y-64575D02*
X66600Y-65575D01*
X66600Y-65575D02*
X60600Y-65575D01*
X61600Y-65575D02*
X61600Y-64575D01*
X75500Y-66300D02*
X81510Y-66300D01*
X81500Y-66300D02*
X81500Y-65300D01*
X81500Y-65300D02*
X75500Y-65300D01*
X69500Y-66300D02*
X69500Y-65300D01*
X69500Y-65300D02*
X75500Y-65300D01*
X75500Y-66300D02*
X69500Y-66300D01*
X70500Y-66300D02*
X70500Y-65300D01*
X75550Y-48775D02*
X69540Y-48775D01*
X69550Y-48775D02*
X69550Y-49775D01*
X69550Y-49775D02*
X75550Y-49775D01*
X81550Y-48775D02*
X81550Y-49775D01*
X81550Y-49775D02*
X75550Y-49775D01*
X75550Y-48775D02*
X81550Y-48775D01*
X80550Y-48775D02*
X80550Y-49775D01*
G54D17*
X73250Y-63300D02*
X75750Y-63300D01*
X73250Y-61300D02*
X75750Y-61300D01*
X76750Y-62300D02*
G75*
G03X75750Y-61300I-1000J0D01*
G74*
G01*
X75750Y-63300D02*
G75*
G03X76750Y-62300I0J1000D01*
G74*
G01*
X73250Y-61300D02*
G75*
G03X72250Y-62300I0J-1000D01*
G74*
G01*
X72250Y-62300D02*
G75*
G03X73250Y-63300I1000J0D01*
G74*
G01*
G54D18*
X84000Y-57400D02*
X84000Y-57400D01*
X84000Y-57400D02*
X83500Y-57400D01*
X83500Y-57400D02*
X83500Y-56400D01*
X83500Y-56400D02*
X84000Y-56400D01*
X84000Y-59400D02*
X69000Y-59400D01*
X69000Y-59400D02*
X69000Y-54400D01*
X69000Y-54400D02*
X84000Y-54400D01*
X84000Y-54400D02*
X84000Y-59400D01*
X95100Y-52597D02*
X95100Y-49053D01*
X96478Y-52597D02*
X96478Y-49053D01*
X96478Y-49053D02*
X90769Y-49053D01*
X90769Y-49053D02*
X90769Y-52597D01*
X90769Y-52597D02*
X96478Y-52597D01*
X90560Y-54540D02*
X90560Y-54290D01*
X90560Y-54290D02*
X94560Y-54290D01*
X94560Y-54290D02*
X94560Y-54540D01*
X90560Y-56040D02*
X90560Y-54540D01*
X90560Y-54540D02*
X94560Y-54540D01*
X94560Y-54540D02*
X94560Y-56040D01*
X94560Y-56040D02*
X90560Y-56040D01*
G54D16*
X60250Y-60031D02*
X60250Y-63968D01*
X60250Y-63968D02*
X58462Y-63968D01*
X58462Y-63968D02*
X58462Y-60031D01*
X58462Y-60031D02*
X60234Y-60031D01*
G54D12*
X93200Y-60900D02*
X94000Y-60900D01*
X94150Y-60850D02*
X93050Y-60850D01*
X92950Y-60800D02*
X94250Y-60800D01*
X94350Y-60750D02*
X92850Y-60750D01*
X94400Y-60700D02*
X92800Y-60700D01*
X92700Y-60650D02*
X94500Y-60650D01*
X95150Y-59400D02*
G75*
G03X95150Y-59400I-1550J0D01*
G74*
G01*
X91950Y-61050D02*
X95250Y-61050D01*
X95250Y-61050D02*
X95250Y-58050D01*
X95250Y-58050D02*
X94950Y-57750D01*
X94950Y-57750D02*
X92250Y-57750D01*
X92250Y-57750D02*
X91950Y-58050D01*
X91950Y-58050D02*
X91950Y-61050D01*
X93600Y-57950D02*
X93600Y-58250D01*
X93450Y-58100D02*
X93750Y-58100D01*
X89400Y-61000D02*
X90200Y-61000D01*
X90350Y-60950D02*
X89250Y-60950D01*
X89150Y-60900D02*
X90450Y-60900D01*
X90550Y-60850D02*
X89050Y-60850D01*
X90600Y-60800D02*
X89000Y-60800D01*
X88900Y-60750D02*
X90700Y-60750D01*
X91350Y-59500D02*
G75*
G03X91350Y-59500I-1550J0D01*
G74*
G01*
X88150Y-61150D02*
X91450Y-61150D01*
X91450Y-61150D02*
X91450Y-58150D01*
X91450Y-58150D02*
X91150Y-57850D01*
X91150Y-57850D02*
X88450Y-57850D01*
X88450Y-57850D02*
X88150Y-58150D01*
X88150Y-58150D02*
X88150Y-61150D01*
X89800Y-58050D02*
X89800Y-58350D01*
X89650Y-58200D02*
X89950Y-58200D01*
G54D13*
X59616Y-50267D02*
X59673Y-50286D01*
X59769Y-50286D01*
X59807Y-50267D01*
X59826Y-50248D01*
X59845Y-50210D01*
X59845Y-50172D01*
X59826Y-50134D01*
X59807Y-50115D01*
X59769Y-50096D01*
X59692Y-50077D01*
X59654Y-50058D01*
X59635Y-50039D01*
X59616Y-50001D01*
X59616Y-49963D01*
X59635Y-49925D01*
X59654Y-49905D01*
X59692Y-49886D01*
X59788Y-49886D01*
X59845Y-49905D01*
X59978Y-49886D02*
X60073Y-50286D01*
X60150Y-50001D01*
X60226Y-50286D01*
X60321Y-49886D01*
X60454Y-49925D02*
X60473Y-49905D01*
X60511Y-49886D01*
X60607Y-49886D01*
X60645Y-49905D01*
X60664Y-49925D01*
X60683Y-49963D01*
X60683Y-50001D01*
X60664Y-50058D01*
X60435Y-50286D01*
X60683Y-50286D01*
X58788Y-50986D02*
X58788Y-50586D01*
X58921Y-50872D01*
X59054Y-50586D01*
X59054Y-50986D01*
X59321Y-50586D02*
X59397Y-50586D01*
X59435Y-50605D01*
X59473Y-50644D01*
X59492Y-50720D01*
X59492Y-50853D01*
X59473Y-50929D01*
X59435Y-50967D01*
X59397Y-50986D01*
X59321Y-50986D01*
X59283Y-50967D01*
X59245Y-50929D01*
X59226Y-50853D01*
X59226Y-50720D01*
X59245Y-50644D01*
X59283Y-50605D01*
X59321Y-50586D01*
X59664Y-50986D02*
X59664Y-50586D01*
X59759Y-50586D01*
X59816Y-50605D01*
X59854Y-50644D01*
X59873Y-50682D01*
X59892Y-50758D01*
X59892Y-50815D01*
X59873Y-50891D01*
X59854Y-50929D01*
X59816Y-50967D01*
X59759Y-50986D01*
X59664Y-50986D01*
X60064Y-50777D02*
X60197Y-50777D01*
X60254Y-50986D02*
X60064Y-50986D01*
X60064Y-50586D01*
X60254Y-50586D01*
X60330Y-51025D02*
X60635Y-51025D01*
X60730Y-50986D02*
X60730Y-50586D01*
X60902Y-50967D02*
X60959Y-50986D01*
X61054Y-50986D01*
X61092Y-50967D01*
X61111Y-50948D01*
X61130Y-50910D01*
X61130Y-50872D01*
X61111Y-50834D01*
X61092Y-50815D01*
X61054Y-50796D01*
X60978Y-50777D01*
X60940Y-50758D01*
X60921Y-50739D01*
X60902Y-50701D01*
X60902Y-50663D01*
X60921Y-50625D01*
X60940Y-50605D01*
X60978Y-50586D01*
X61073Y-50586D01*
X61130Y-50605D01*
X61302Y-50986D02*
X61302Y-50586D01*
X61454Y-50586D01*
X61492Y-50605D01*
X61511Y-50625D01*
X61530Y-50663D01*
X61530Y-50720D01*
X61511Y-50758D01*
X61492Y-50777D01*
X61454Y-50796D01*
X61302Y-50796D01*
X64106Y-50242D02*
X64163Y-50261D01*
X64259Y-50261D01*
X64297Y-50242D01*
X64316Y-50223D01*
X64335Y-50185D01*
X64335Y-50147D01*
X64316Y-50109D01*
X64297Y-50090D01*
X64259Y-50071D01*
X64182Y-50052D01*
X64144Y-50033D01*
X64125Y-50014D01*
X64106Y-49976D01*
X64106Y-49938D01*
X64125Y-49900D01*
X64144Y-49880D01*
X64182Y-49861D01*
X64278Y-49861D01*
X64335Y-49880D01*
X64468Y-49861D02*
X64563Y-50261D01*
X64640Y-49976D01*
X64716Y-50261D01*
X64811Y-49861D01*
X65173Y-50261D02*
X64944Y-50261D01*
X65059Y-50261D02*
X65059Y-49861D01*
X65020Y-49919D01*
X64982Y-49957D01*
X64944Y-49976D01*
X64059Y-50961D02*
X63925Y-50771D01*
X63830Y-50961D02*
X63830Y-50561D01*
X63982Y-50561D01*
X64020Y-50580D01*
X64040Y-50600D01*
X64059Y-50638D01*
X64059Y-50695D01*
X64040Y-50733D01*
X64020Y-50752D01*
X63982Y-50771D01*
X63830Y-50771D01*
X64230Y-50752D02*
X64363Y-50752D01*
X64420Y-50961D02*
X64230Y-50961D01*
X64230Y-50561D01*
X64420Y-50561D01*
X64573Y-50942D02*
X64630Y-50961D01*
X64725Y-50961D01*
X64763Y-50942D01*
X64782Y-50923D01*
X64801Y-50885D01*
X64801Y-50847D01*
X64782Y-50809D01*
X64763Y-50790D01*
X64725Y-50771D01*
X64649Y-50752D01*
X64611Y-50733D01*
X64592Y-50714D01*
X64573Y-50676D01*
X64573Y-50638D01*
X64592Y-50600D01*
X64611Y-50580D01*
X64649Y-50561D01*
X64744Y-50561D01*
X64801Y-50580D01*
X64973Y-50752D02*
X65106Y-50752D01*
X65163Y-50961D02*
X64973Y-50961D01*
X64973Y-50561D01*
X65163Y-50561D01*
X65278Y-50561D02*
X65506Y-50561D01*
X65392Y-50961D02*
X65392Y-50561D01*
G54D12*
X59707Y-56061D02*
X59707Y-56385D01*
X59728Y-56423D01*
X59750Y-56442D01*
X59792Y-56461D01*
X59878Y-56461D01*
X59921Y-56442D01*
X59942Y-56423D01*
X59964Y-56385D01*
X59964Y-56061D01*
X60135Y-56061D02*
X60414Y-56061D01*
X60264Y-56214D01*
X60328Y-56214D01*
X60371Y-56233D01*
X60392Y-56252D01*
X60414Y-56290D01*
X60414Y-56385D01*
X60392Y-56423D01*
X60371Y-56442D01*
X60328Y-56461D01*
X60200Y-56461D01*
X60157Y-56442D01*
X60135Y-56423D01*
X58621Y-57061D02*
X58888Y-57061D01*
X58716Y-57461D01*
X59211Y-57195D02*
X59211Y-57461D01*
X59116Y-57042D02*
X59021Y-57328D01*
X59269Y-57328D01*
X59611Y-57461D02*
X59421Y-57461D01*
X59421Y-57061D01*
X59688Y-57061D02*
X59821Y-57461D01*
X59954Y-57061D01*
X60316Y-57423D02*
X60297Y-57442D01*
X60240Y-57461D01*
X60202Y-57461D01*
X60145Y-57442D01*
X60107Y-57404D01*
X60088Y-57366D01*
X60069Y-57290D01*
X60069Y-57233D01*
X60088Y-57157D01*
X60107Y-57119D01*
X60145Y-57080D01*
X60202Y-57061D01*
X60240Y-57061D01*
X60297Y-57080D01*
X60316Y-57100D01*
X60697Y-57461D02*
X60469Y-57461D01*
X60583Y-57461D02*
X60583Y-57061D01*
X60545Y-57119D01*
X60507Y-57157D01*
X60469Y-57176D01*
X60850Y-57100D02*
X60869Y-57080D01*
X60907Y-57061D01*
X61002Y-57061D01*
X61040Y-57080D01*
X61059Y-57100D01*
X61078Y-57138D01*
X61078Y-57176D01*
X61059Y-57233D01*
X60830Y-57461D01*
X61078Y-57461D01*
X61440Y-57061D02*
X61250Y-57061D01*
X61230Y-57252D01*
X61250Y-57233D01*
X61288Y-57214D01*
X61383Y-57214D01*
X61421Y-57233D01*
X61440Y-57252D01*
X61459Y-57290D01*
X61459Y-57385D01*
X61440Y-57423D01*
X61421Y-57442D01*
X61383Y-57461D01*
X61288Y-57461D01*
X61250Y-57442D01*
X61230Y-57423D01*
G54D19*
X77854Y-62226D02*
X77760Y-62292D01*
X77854Y-62339D02*
X77657Y-62339D01*
X77657Y-62264D01*
X77667Y-62245D01*
X77676Y-62236D01*
X77695Y-62226D01*
X77723Y-62226D01*
X77742Y-62236D01*
X77751Y-62245D01*
X77760Y-62264D01*
X77760Y-62339D01*
X77676Y-62151D02*
X77667Y-62142D01*
X77657Y-62123D01*
X77657Y-62076D01*
X77667Y-62057D01*
X77676Y-62048D01*
X77695Y-62039D01*
X77714Y-62039D01*
X77742Y-62048D01*
X77854Y-62160D01*
X77854Y-62039D01*
X77723Y-61870D02*
X77854Y-61870D01*
X77648Y-61917D02*
X77789Y-61963D01*
X77789Y-61842D01*
X77382Y-62109D02*
X77382Y-62090D01*
X77392Y-62071D01*
X77401Y-62062D01*
X77420Y-62053D01*
X77457Y-62043D01*
X77504Y-62043D01*
X77542Y-62053D01*
X77560Y-62062D01*
X77570Y-62071D01*
X77579Y-62090D01*
X77579Y-62109D01*
X77570Y-62128D01*
X77560Y-62137D01*
X77542Y-62146D01*
X77504Y-62156D01*
X77457Y-62156D01*
X77420Y-62146D01*
X77401Y-62137D01*
X77392Y-62128D01*
X77382Y-62109D01*
X79179Y-52007D02*
X79085Y-52073D01*
X79179Y-52120D02*
X78982Y-52120D01*
X78982Y-52045D01*
X78992Y-52026D01*
X79001Y-52017D01*
X79020Y-52007D01*
X79048Y-52007D01*
X79067Y-52017D01*
X79076Y-52026D01*
X79085Y-52045D01*
X79085Y-52120D01*
X79179Y-51914D02*
X79179Y-51876D01*
X79170Y-51857D01*
X79160Y-51848D01*
X79132Y-51829D01*
X79095Y-51820D01*
X79020Y-51820D01*
X79001Y-51829D01*
X78992Y-51838D01*
X78982Y-51857D01*
X78982Y-51895D01*
X78992Y-51914D01*
X79001Y-51923D01*
X79020Y-51932D01*
X79067Y-51932D01*
X79085Y-51923D01*
X79095Y-51914D01*
X79104Y-51895D01*
X79104Y-51857D01*
X79095Y-51838D01*
X79085Y-51829D01*
X79067Y-51820D01*
X78707Y-51984D02*
X78707Y-51965D01*
X78717Y-51946D01*
X78726Y-51937D01*
X78745Y-51928D01*
X78782Y-51918D01*
X78829Y-51918D01*
X78867Y-51928D01*
X78885Y-51937D01*
X78895Y-51946D01*
X78904Y-51965D01*
X78904Y-51984D01*
X78895Y-52003D01*
X78885Y-52012D01*
X78867Y-52021D01*
X78829Y-52031D01*
X78782Y-52031D01*
X78745Y-52021D01*
X78726Y-52012D01*
X78717Y-52003D01*
X78707Y-51984D01*
X78179Y-52101D02*
X78085Y-52167D01*
X78179Y-52214D02*
X77982Y-52214D01*
X77982Y-52139D01*
X77992Y-52120D01*
X78001Y-52111D01*
X78020Y-52101D01*
X78048Y-52101D01*
X78067Y-52111D01*
X78076Y-52120D01*
X78085Y-52139D01*
X78085Y-52214D01*
X78179Y-51914D02*
X78179Y-52026D01*
X78179Y-51970D02*
X77982Y-51970D01*
X78010Y-51989D01*
X78029Y-52007D01*
X78039Y-52026D01*
X77982Y-51792D02*
X77982Y-51773D01*
X77992Y-51754D01*
X78001Y-51745D01*
X78020Y-51735D01*
X78057Y-51726D01*
X78104Y-51726D01*
X78142Y-51735D01*
X78160Y-51745D01*
X78170Y-51754D01*
X78179Y-51773D01*
X78179Y-51792D01*
X78170Y-51810D01*
X78160Y-51820D01*
X78142Y-51829D01*
X78104Y-51838D01*
X78057Y-51838D01*
X78020Y-51829D01*
X78001Y-51820D01*
X77992Y-51810D01*
X77982Y-51792D01*
X77707Y-51984D02*
X77707Y-51965D01*
X77717Y-51946D01*
X77726Y-51937D01*
X77745Y-51928D01*
X77782Y-51918D01*
X77829Y-51918D01*
X77867Y-51928D01*
X77885Y-51937D01*
X77895Y-51946D01*
X77904Y-51965D01*
X77904Y-51984D01*
X77895Y-52003D01*
X77885Y-52012D01*
X77867Y-52021D01*
X77829Y-52031D01*
X77782Y-52031D01*
X77745Y-52021D01*
X77726Y-52012D01*
X77717Y-52003D01*
X77707Y-51984D01*
X80179Y-52101D02*
X80085Y-52167D01*
X80179Y-52214D02*
X79982Y-52214D01*
X79982Y-52139D01*
X79992Y-52120D01*
X80001Y-52111D01*
X80020Y-52101D01*
X80048Y-52101D01*
X80067Y-52111D01*
X80076Y-52120D01*
X80085Y-52139D01*
X80085Y-52214D01*
X80179Y-51914D02*
X80179Y-52026D01*
X80179Y-51970D02*
X79982Y-51970D01*
X80010Y-51989D01*
X80029Y-52007D01*
X80039Y-52026D01*
X80179Y-51726D02*
X80179Y-51838D01*
X80179Y-51782D02*
X79982Y-51782D01*
X80010Y-51801D01*
X80029Y-51820D01*
X80039Y-51838D01*
X79707Y-51984D02*
X79707Y-51965D01*
X79717Y-51946D01*
X79726Y-51937D01*
X79745Y-51928D01*
X79782Y-51918D01*
X79829Y-51918D01*
X79867Y-51928D01*
X79885Y-51937D01*
X79895Y-51946D01*
X79904Y-51965D01*
X79904Y-51984D01*
X79895Y-52003D01*
X79885Y-52012D01*
X79867Y-52021D01*
X79829Y-52031D01*
X79782Y-52031D01*
X79745Y-52021D01*
X79726Y-52012D01*
X79717Y-52003D01*
X79707Y-51984D01*
X75179Y-52026D02*
X75085Y-52092D01*
X75179Y-52139D02*
X74982Y-52139D01*
X74982Y-52064D01*
X74992Y-52045D01*
X75001Y-52036D01*
X75020Y-52026D01*
X75048Y-52026D01*
X75067Y-52036D01*
X75076Y-52045D01*
X75085Y-52064D01*
X75085Y-52139D01*
X75179Y-51839D02*
X75179Y-51951D01*
X75179Y-51895D02*
X74982Y-51895D01*
X75010Y-51914D01*
X75029Y-51932D01*
X75039Y-51951D01*
X75001Y-51763D02*
X74992Y-51754D01*
X74982Y-51735D01*
X74982Y-51688D01*
X74992Y-51670D01*
X75001Y-51660D01*
X75020Y-51651D01*
X75039Y-51651D01*
X75067Y-51660D01*
X75179Y-51773D01*
X75179Y-51651D01*
X74707Y-51909D02*
X74707Y-51890D01*
X74717Y-51871D01*
X74726Y-51862D01*
X74745Y-51853D01*
X74782Y-51843D01*
X74829Y-51843D01*
X74867Y-51853D01*
X74885Y-51862D01*
X74895Y-51871D01*
X74904Y-51890D01*
X74904Y-51909D01*
X74895Y-51928D01*
X74885Y-51937D01*
X74867Y-51946D01*
X74829Y-51956D01*
X74782Y-51956D01*
X74745Y-51946D01*
X74726Y-51937D01*
X74717Y-51928D01*
X74707Y-51909D01*
X74204Y-52026D02*
X74110Y-52092D01*
X74204Y-52139D02*
X74007Y-52139D01*
X74007Y-52064D01*
X74017Y-52045D01*
X74026Y-52036D01*
X74045Y-52026D01*
X74073Y-52026D01*
X74092Y-52036D01*
X74101Y-52045D01*
X74110Y-52064D01*
X74110Y-52139D01*
X74204Y-51839D02*
X74204Y-51951D01*
X74204Y-51895D02*
X74007Y-51895D01*
X74035Y-51914D01*
X74054Y-51932D01*
X74064Y-51951D01*
X74007Y-51773D02*
X74007Y-51651D01*
X74082Y-51717D01*
X74082Y-51688D01*
X74092Y-51670D01*
X74101Y-51660D01*
X74120Y-51651D01*
X74167Y-51651D01*
X74185Y-51660D01*
X74195Y-51670D01*
X74204Y-51688D01*
X74204Y-51745D01*
X74195Y-51763D01*
X74185Y-51773D01*
X73732Y-51909D02*
X73732Y-51890D01*
X73742Y-51871D01*
X73751Y-51862D01*
X73770Y-51853D01*
X73807Y-51843D01*
X73854Y-51843D01*
X73892Y-51853D01*
X73910Y-51862D01*
X73920Y-51871D01*
X73929Y-51890D01*
X73929Y-51909D01*
X73920Y-51928D01*
X73910Y-51937D01*
X73892Y-51946D01*
X73854Y-51956D01*
X73807Y-51956D01*
X73770Y-51946D01*
X73751Y-51937D01*
X73742Y-51928D01*
X73732Y-51909D01*
X73229Y-52026D02*
X73135Y-52092D01*
X73229Y-52139D02*
X73032Y-52139D01*
X73032Y-52064D01*
X73042Y-52045D01*
X73051Y-52036D01*
X73070Y-52026D01*
X73098Y-52026D01*
X73117Y-52036D01*
X73126Y-52045D01*
X73135Y-52064D01*
X73135Y-52139D01*
X73229Y-51839D02*
X73229Y-51951D01*
X73229Y-51895D02*
X73032Y-51895D01*
X73060Y-51914D01*
X73079Y-51932D01*
X73089Y-51951D01*
X73098Y-51670D02*
X73229Y-51670D01*
X73023Y-51717D02*
X73164Y-51763D01*
X73164Y-51642D01*
X72757Y-51909D02*
X72757Y-51890D01*
X72767Y-51871D01*
X72776Y-51862D01*
X72795Y-51853D01*
X72832Y-51843D01*
X72879Y-51843D01*
X72917Y-51853D01*
X72935Y-51862D01*
X72945Y-51871D01*
X72954Y-51890D01*
X72954Y-51909D01*
X72945Y-51928D01*
X72935Y-51937D01*
X72917Y-51946D01*
X72879Y-51956D01*
X72832Y-51956D01*
X72795Y-51946D01*
X72776Y-51937D01*
X72767Y-51928D01*
X72757Y-51909D01*
X72279Y-52026D02*
X72185Y-52092D01*
X72279Y-52139D02*
X72082Y-52139D01*
X72082Y-52064D01*
X72092Y-52045D01*
X72101Y-52036D01*
X72120Y-52026D01*
X72148Y-52026D01*
X72167Y-52036D01*
X72176Y-52045D01*
X72185Y-52064D01*
X72185Y-52139D01*
X72279Y-51839D02*
X72279Y-51951D01*
X72279Y-51895D02*
X72082Y-51895D01*
X72110Y-51914D01*
X72129Y-51932D01*
X72139Y-51951D01*
X72082Y-51660D02*
X72082Y-51754D01*
X72176Y-51763D01*
X72167Y-51754D01*
X72157Y-51735D01*
X72157Y-51688D01*
X72167Y-51670D01*
X72176Y-51660D01*
X72195Y-51651D01*
X72242Y-51651D01*
X72260Y-51660D01*
X72270Y-51670D01*
X72279Y-51688D01*
X72279Y-51735D01*
X72270Y-51754D01*
X72260Y-51763D01*
X71807Y-51909D02*
X71807Y-51890D01*
X71817Y-51871D01*
X71826Y-51862D01*
X71845Y-51853D01*
X71882Y-51843D01*
X71929Y-51843D01*
X71967Y-51853D01*
X71985Y-51862D01*
X71995Y-51871D01*
X72004Y-51890D01*
X72004Y-51909D01*
X71995Y-51928D01*
X71985Y-51937D01*
X71967Y-51946D01*
X71929Y-51956D01*
X71882Y-51956D01*
X71845Y-51946D01*
X71826Y-51937D01*
X71817Y-51928D01*
X71807Y-51909D01*
X71229Y-52026D02*
X71135Y-52092D01*
X71229Y-52139D02*
X71032Y-52139D01*
X71032Y-52064D01*
X71042Y-52045D01*
X71051Y-52036D01*
X71070Y-52026D01*
X71098Y-52026D01*
X71117Y-52036D01*
X71126Y-52045D01*
X71135Y-52064D01*
X71135Y-52139D01*
X71229Y-51839D02*
X71229Y-51951D01*
X71229Y-51895D02*
X71032Y-51895D01*
X71060Y-51914D01*
X71079Y-51932D01*
X71089Y-51951D01*
X71032Y-51670D02*
X71032Y-51707D01*
X71042Y-51726D01*
X71051Y-51735D01*
X71079Y-51754D01*
X71117Y-51763D01*
X71192Y-51763D01*
X71210Y-51754D01*
X71220Y-51745D01*
X71229Y-51726D01*
X71229Y-51688D01*
X71220Y-51670D01*
X71210Y-51660D01*
X71192Y-51651D01*
X71145Y-51651D01*
X71126Y-51660D01*
X71117Y-51670D01*
X71107Y-51688D01*
X71107Y-51726D01*
X71117Y-51745D01*
X71126Y-51754D01*
X71145Y-51763D01*
X70757Y-51909D02*
X70757Y-51890D01*
X70767Y-51871D01*
X70776Y-51862D01*
X70795Y-51853D01*
X70832Y-51843D01*
X70879Y-51843D01*
X70917Y-51853D01*
X70935Y-51862D01*
X70945Y-51871D01*
X70954Y-51890D01*
X70954Y-51909D01*
X70945Y-51928D01*
X70935Y-51937D01*
X70917Y-51946D01*
X70879Y-51956D01*
X70832Y-51956D01*
X70795Y-51946D01*
X70776Y-51937D01*
X70767Y-51928D01*
X70757Y-51909D01*
X78929Y-62226D02*
X78835Y-62292D01*
X78929Y-62339D02*
X78732Y-62339D01*
X78732Y-62264D01*
X78742Y-62245D01*
X78751Y-62236D01*
X78770Y-62226D01*
X78798Y-62226D01*
X78817Y-62236D01*
X78826Y-62245D01*
X78835Y-62264D01*
X78835Y-62339D01*
X78751Y-62151D02*
X78742Y-62142D01*
X78732Y-62123D01*
X78732Y-62076D01*
X78742Y-62057D01*
X78751Y-62048D01*
X78770Y-62039D01*
X78789Y-62039D01*
X78817Y-62048D01*
X78929Y-62160D01*
X78929Y-62039D01*
X78732Y-61973D02*
X78732Y-61851D01*
X78807Y-61917D01*
X78807Y-61888D01*
X78817Y-61870D01*
X78826Y-61860D01*
X78845Y-61851D01*
X78892Y-61851D01*
X78910Y-61860D01*
X78920Y-61870D01*
X78929Y-61888D01*
X78929Y-61945D01*
X78920Y-61963D01*
X78910Y-61973D01*
X78457Y-62109D02*
X78457Y-62090D01*
X78467Y-62071D01*
X78476Y-62062D01*
X78495Y-62053D01*
X78532Y-62043D01*
X78579Y-62043D01*
X78617Y-62053D01*
X78635Y-62062D01*
X78645Y-62071D01*
X78654Y-62090D01*
X78654Y-62109D01*
X78645Y-62128D01*
X78635Y-62137D01*
X78617Y-62146D01*
X78579Y-62156D01*
X78532Y-62156D01*
X78495Y-62146D01*
X78476Y-62137D01*
X78467Y-62128D01*
X78457Y-62109D01*
X61592Y-60954D02*
X61526Y-60860D01*
X61479Y-60954D02*
X61479Y-60757D01*
X61554Y-60757D01*
X61573Y-60767D01*
X61582Y-60776D01*
X61592Y-60795D01*
X61592Y-60823D01*
X61582Y-60842D01*
X61573Y-60851D01*
X61554Y-60860D01*
X61479Y-60860D01*
X61761Y-60823D02*
X61761Y-60954D01*
X61714Y-60748D02*
X61667Y-60889D01*
X61789Y-60889D01*
X61615Y-61032D02*
X61634Y-61032D01*
X61653Y-61042D01*
X61662Y-61051D01*
X61671Y-61070D01*
X61681Y-61107D01*
X61681Y-61154D01*
X61671Y-61192D01*
X61662Y-61210D01*
X61653Y-61220D01*
X61634Y-61229D01*
X61615Y-61229D01*
X61596Y-61220D01*
X61587Y-61210D01*
X61578Y-61192D01*
X61568Y-61154D01*
X61568Y-61107D01*
X61578Y-61070D01*
X61587Y-61051D01*
X61596Y-61042D01*
X61615Y-61032D01*
X65173Y-56704D02*
X65107Y-56610D01*
X65060Y-56704D02*
X65060Y-56507D01*
X65135Y-56507D01*
X65154Y-56517D01*
X65163Y-56526D01*
X65173Y-56545D01*
X65173Y-56573D01*
X65163Y-56592D01*
X65154Y-56601D01*
X65135Y-56610D01*
X65060Y-56610D01*
X65239Y-56507D02*
X65360Y-56507D01*
X65295Y-56582D01*
X65323Y-56582D01*
X65342Y-56592D01*
X65351Y-56601D01*
X65360Y-56620D01*
X65360Y-56667D01*
X65351Y-56685D01*
X65342Y-56695D01*
X65323Y-56704D01*
X65267Y-56704D01*
X65248Y-56695D01*
X65239Y-56685D01*
X65436Y-56526D02*
X65445Y-56517D01*
X65464Y-56507D01*
X65511Y-56507D01*
X65529Y-56517D01*
X65539Y-56526D01*
X65548Y-56545D01*
X65548Y-56564D01*
X65539Y-56592D01*
X65426Y-56704D01*
X65548Y-56704D01*
X65290Y-56232D02*
X65309Y-56232D01*
X65328Y-56242D01*
X65337Y-56251D01*
X65346Y-56270D01*
X65356Y-56307D01*
X65356Y-56354D01*
X65346Y-56392D01*
X65337Y-56410D01*
X65328Y-56420D01*
X65309Y-56429D01*
X65290Y-56429D01*
X65271Y-56420D01*
X65262Y-56410D01*
X65253Y-56392D01*
X65243Y-56354D01*
X65243Y-56307D01*
X65253Y-56270D01*
X65262Y-56251D01*
X65271Y-56242D01*
X65290Y-56232D01*
X69404Y-62226D02*
X69310Y-62292D01*
X69404Y-62339D02*
X69207Y-62339D01*
X69207Y-62264D01*
X69217Y-62245D01*
X69226Y-62236D01*
X69245Y-62226D01*
X69273Y-62226D01*
X69292Y-62236D01*
X69301Y-62245D01*
X69310Y-62264D01*
X69310Y-62339D01*
X69226Y-62151D02*
X69217Y-62142D01*
X69207Y-62123D01*
X69207Y-62076D01*
X69217Y-62057D01*
X69226Y-62048D01*
X69245Y-62039D01*
X69264Y-62039D01*
X69292Y-62048D01*
X69404Y-62160D01*
X69404Y-62039D01*
X69404Y-61945D02*
X69404Y-61907D01*
X69395Y-61888D01*
X69385Y-61879D01*
X69357Y-61860D01*
X69320Y-61851D01*
X69245Y-61851D01*
X69226Y-61860D01*
X69217Y-61870D01*
X69207Y-61888D01*
X69207Y-61926D01*
X69217Y-61945D01*
X69226Y-61954D01*
X69245Y-61963D01*
X69292Y-61963D01*
X69310Y-61954D01*
X69320Y-61945D01*
X69329Y-61926D01*
X69329Y-61888D01*
X69320Y-61870D01*
X69310Y-61860D01*
X69292Y-61851D01*
X68932Y-62109D02*
X68932Y-62090D01*
X68942Y-62071D01*
X68951Y-62062D01*
X68970Y-62053D01*
X69007Y-62043D01*
X69054Y-62043D01*
X69092Y-62053D01*
X69110Y-62062D01*
X69120Y-62071D01*
X69129Y-62090D01*
X69129Y-62109D01*
X69120Y-62128D01*
X69110Y-62137D01*
X69092Y-62146D01*
X69054Y-62156D01*
X69007Y-62156D01*
X68970Y-62146D01*
X68951Y-62137D01*
X68942Y-62128D01*
X68932Y-62109D01*
X61567Y-62054D02*
X61501Y-61960D01*
X61454Y-62054D02*
X61454Y-61857D01*
X61529Y-61857D01*
X61548Y-61867D01*
X61557Y-61876D01*
X61567Y-61895D01*
X61567Y-61923D01*
X61557Y-61942D01*
X61548Y-61951D01*
X61529Y-61960D01*
X61454Y-61960D01*
X61736Y-61857D02*
X61698Y-61857D01*
X61679Y-61867D01*
X61670Y-61876D01*
X61651Y-61904D01*
X61642Y-61942D01*
X61642Y-62017D01*
X61651Y-62035D01*
X61660Y-62045D01*
X61679Y-62054D01*
X61717Y-62054D01*
X61736Y-62045D01*
X61745Y-62035D01*
X61754Y-62017D01*
X61754Y-61970D01*
X61745Y-61951D01*
X61736Y-61942D01*
X61717Y-61932D01*
X61679Y-61932D01*
X61660Y-61942D01*
X61651Y-61951D01*
X61642Y-61970D01*
X61463Y-61779D02*
X61351Y-61779D01*
X61407Y-61779D02*
X61407Y-61582D01*
X61388Y-61610D01*
X61370Y-61629D01*
X61351Y-61639D01*
X61585Y-61582D02*
X61604Y-61582D01*
X61623Y-61592D01*
X61632Y-61601D01*
X61642Y-61620D01*
X61651Y-61657D01*
X61651Y-61704D01*
X61642Y-61742D01*
X61632Y-61760D01*
X61623Y-61770D01*
X61604Y-61779D01*
X61585Y-61779D01*
X61567Y-61770D01*
X61557Y-61760D01*
X61548Y-61742D01*
X61539Y-61704D01*
X61539Y-61657D01*
X61548Y-61620D01*
X61557Y-61601D01*
X61567Y-61592D01*
X61585Y-61582D01*
X61736Y-61779D02*
X61736Y-61582D01*
X61848Y-61779D02*
X61764Y-61667D01*
X61848Y-61582D02*
X61736Y-61695D01*
X69979Y-52001D02*
X69885Y-52067D01*
X69979Y-52114D02*
X69782Y-52114D01*
X69782Y-52039D01*
X69792Y-52020D01*
X69801Y-52011D01*
X69820Y-52001D01*
X69848Y-52001D01*
X69867Y-52011D01*
X69876Y-52020D01*
X69885Y-52039D01*
X69885Y-52114D01*
X69782Y-51935D02*
X69782Y-51814D01*
X69857Y-51879D01*
X69857Y-51851D01*
X69867Y-51832D01*
X69876Y-51823D01*
X69895Y-51814D01*
X69942Y-51814D01*
X69960Y-51823D01*
X69970Y-51832D01*
X69979Y-51851D01*
X69979Y-51907D01*
X69970Y-51926D01*
X69960Y-51935D01*
X69979Y-51626D02*
X69979Y-51738D01*
X69979Y-51682D02*
X69782Y-51682D01*
X69810Y-51701D01*
X69829Y-51720D01*
X69839Y-51738D01*
X70057Y-51884D02*
X70057Y-51865D01*
X70067Y-51846D01*
X70076Y-51837D01*
X70095Y-51828D01*
X70132Y-51818D01*
X70179Y-51818D01*
X70217Y-51828D01*
X70235Y-51837D01*
X70245Y-51846D01*
X70254Y-51865D01*
X70254Y-51884D01*
X70245Y-51903D01*
X70235Y-51912D01*
X70217Y-51921D01*
X70179Y-51931D01*
X70132Y-51931D01*
X70095Y-51921D01*
X70076Y-51912D01*
X70067Y-51903D01*
X70057Y-51884D01*
X68379Y-62226D02*
X68285Y-62292D01*
X68379Y-62339D02*
X68182Y-62339D01*
X68182Y-62264D01*
X68192Y-62245D01*
X68201Y-62236D01*
X68220Y-62226D01*
X68248Y-62226D01*
X68267Y-62236D01*
X68276Y-62245D01*
X68285Y-62264D01*
X68285Y-62339D01*
X68182Y-62160D02*
X68182Y-62039D01*
X68257Y-62104D01*
X68257Y-62076D01*
X68267Y-62057D01*
X68276Y-62048D01*
X68295Y-62039D01*
X68342Y-62039D01*
X68360Y-62048D01*
X68370Y-62057D01*
X68379Y-62076D01*
X68379Y-62132D01*
X68370Y-62151D01*
X68360Y-62160D01*
X68182Y-61917D02*
X68182Y-61898D01*
X68192Y-61879D01*
X68201Y-61870D01*
X68220Y-61860D01*
X68257Y-61851D01*
X68304Y-61851D01*
X68342Y-61860D01*
X68360Y-61870D01*
X68370Y-61879D01*
X68379Y-61898D01*
X68379Y-61917D01*
X68370Y-61935D01*
X68360Y-61945D01*
X68342Y-61954D01*
X68304Y-61963D01*
X68257Y-61963D01*
X68220Y-61954D01*
X68201Y-61945D01*
X68192Y-61935D01*
X68182Y-61917D01*
X67907Y-62109D02*
X67907Y-62090D01*
X67917Y-62071D01*
X67926Y-62062D01*
X67945Y-62053D01*
X67982Y-62043D01*
X68029Y-62043D01*
X68067Y-62053D01*
X68085Y-62062D01*
X68095Y-62071D01*
X68104Y-62090D01*
X68104Y-62109D01*
X68095Y-62128D01*
X68085Y-62137D01*
X68067Y-62146D01*
X68029Y-62156D01*
X67982Y-62156D01*
X67945Y-62146D01*
X67926Y-62137D01*
X67917Y-62128D01*
X67907Y-62109D01*
X81154Y-52007D02*
X81060Y-52073D01*
X81154Y-52120D02*
X80957Y-52120D01*
X80957Y-52045D01*
X80967Y-52026D01*
X80976Y-52017D01*
X80995Y-52007D01*
X81023Y-52007D01*
X81042Y-52017D01*
X81051Y-52026D01*
X81060Y-52045D01*
X81060Y-52120D01*
X80957Y-51942D02*
X80957Y-51810D01*
X81154Y-51895D01*
X80682Y-51984D02*
X80682Y-51965D01*
X80692Y-51946D01*
X80701Y-51937D01*
X80720Y-51928D01*
X80757Y-51918D01*
X80804Y-51918D01*
X80842Y-51928D01*
X80860Y-51937D01*
X80870Y-51946D01*
X80879Y-51965D01*
X80879Y-51984D01*
X80870Y-52003D01*
X80860Y-52012D01*
X80842Y-52021D01*
X80804Y-52031D01*
X80757Y-52031D01*
X80720Y-52021D01*
X80701Y-52012D01*
X80692Y-52003D01*
X80682Y-51984D01*
X83229Y-62226D02*
X83135Y-62292D01*
X83229Y-62339D02*
X83032Y-62339D01*
X83032Y-62264D01*
X83042Y-62245D01*
X83051Y-62236D01*
X83070Y-62226D01*
X83098Y-62226D01*
X83117Y-62236D01*
X83126Y-62245D01*
X83135Y-62264D01*
X83135Y-62339D01*
X83051Y-62151D02*
X83042Y-62142D01*
X83032Y-62123D01*
X83032Y-62076D01*
X83042Y-62057D01*
X83051Y-62048D01*
X83070Y-62039D01*
X83089Y-62039D01*
X83117Y-62048D01*
X83229Y-62160D01*
X83229Y-62039D01*
X83117Y-61926D02*
X83107Y-61945D01*
X83098Y-61954D01*
X83079Y-61963D01*
X83070Y-61963D01*
X83051Y-61954D01*
X83042Y-61945D01*
X83032Y-61926D01*
X83032Y-61888D01*
X83042Y-61870D01*
X83051Y-61860D01*
X83070Y-61851D01*
X83079Y-61851D01*
X83098Y-61860D01*
X83107Y-61870D01*
X83117Y-61888D01*
X83117Y-61926D01*
X83126Y-61945D01*
X83135Y-61954D01*
X83154Y-61963D01*
X83192Y-61963D01*
X83210Y-61954D01*
X83220Y-61945D01*
X83229Y-61926D01*
X83229Y-61888D01*
X83220Y-61870D01*
X83210Y-61860D01*
X83192Y-61851D01*
X83154Y-61851D01*
X83135Y-61860D01*
X83126Y-61870D01*
X83117Y-61888D01*
X82757Y-62109D02*
X82757Y-62090D01*
X82767Y-62071D01*
X82776Y-62062D01*
X82795Y-62053D01*
X82832Y-62043D01*
X82879Y-62043D01*
X82917Y-62053D01*
X82935Y-62062D01*
X82945Y-62071D01*
X82954Y-62090D01*
X82954Y-62109D01*
X82945Y-62128D01*
X82935Y-62137D01*
X82917Y-62146D01*
X82879Y-62156D01*
X82832Y-62156D01*
X82795Y-62146D01*
X82776Y-62137D01*
X82767Y-62128D01*
X82757Y-62109D01*
X70454Y-62226D02*
X70360Y-62292D01*
X70454Y-62339D02*
X70257Y-62339D01*
X70257Y-62264D01*
X70267Y-62245D01*
X70276Y-62236D01*
X70295Y-62226D01*
X70323Y-62226D01*
X70342Y-62236D01*
X70351Y-62245D01*
X70360Y-62264D01*
X70360Y-62339D01*
X70276Y-62151D02*
X70267Y-62142D01*
X70257Y-62123D01*
X70257Y-62076D01*
X70267Y-62057D01*
X70276Y-62048D01*
X70295Y-62039D01*
X70314Y-62039D01*
X70342Y-62048D01*
X70454Y-62160D01*
X70454Y-62039D01*
X70257Y-61973D02*
X70257Y-61842D01*
X70454Y-61926D01*
X70090Y-61982D02*
X70109Y-61982D01*
X70128Y-61992D01*
X70137Y-62001D01*
X70146Y-62020D01*
X70156Y-62057D01*
X70156Y-62104D01*
X70146Y-62142D01*
X70137Y-62160D01*
X70128Y-62170D01*
X70109Y-62179D01*
X70090Y-62179D01*
X70071Y-62170D01*
X70062Y-62160D01*
X70053Y-62142D01*
X70043Y-62104D01*
X70043Y-62057D01*
X70053Y-62020D01*
X70062Y-62001D01*
X70071Y-61992D01*
X70090Y-61982D01*
X71479Y-62226D02*
X71385Y-62292D01*
X71479Y-62339D02*
X71282Y-62339D01*
X71282Y-62264D01*
X71292Y-62245D01*
X71301Y-62236D01*
X71320Y-62226D01*
X71348Y-62226D01*
X71367Y-62236D01*
X71376Y-62245D01*
X71385Y-62264D01*
X71385Y-62339D01*
X71301Y-62151D02*
X71292Y-62142D01*
X71282Y-62123D01*
X71282Y-62076D01*
X71292Y-62057D01*
X71301Y-62048D01*
X71320Y-62039D01*
X71339Y-62039D01*
X71367Y-62048D01*
X71479Y-62160D01*
X71479Y-62039D01*
X71282Y-61870D02*
X71282Y-61907D01*
X71292Y-61926D01*
X71301Y-61935D01*
X71329Y-61954D01*
X71367Y-61963D01*
X71442Y-61963D01*
X71460Y-61954D01*
X71470Y-61945D01*
X71479Y-61926D01*
X71479Y-61888D01*
X71470Y-61870D01*
X71460Y-61860D01*
X71442Y-61851D01*
X71395Y-61851D01*
X71376Y-61860D01*
X71367Y-61870D01*
X71357Y-61888D01*
X71357Y-61926D01*
X71367Y-61945D01*
X71376Y-61954D01*
X71395Y-61963D01*
X71007Y-62109D02*
X71007Y-62090D01*
X71017Y-62071D01*
X71026Y-62062D01*
X71045Y-62053D01*
X71082Y-62043D01*
X71129Y-62043D01*
X71167Y-62053D01*
X71185Y-62062D01*
X71195Y-62071D01*
X71204Y-62090D01*
X71204Y-62109D01*
X71195Y-62128D01*
X71185Y-62137D01*
X71167Y-62146D01*
X71129Y-62156D01*
X71082Y-62156D01*
X71045Y-62146D01*
X71026Y-62137D01*
X71017Y-62128D01*
X71007Y-62109D01*
X82879Y-52101D02*
X82785Y-52167D01*
X82879Y-52214D02*
X82682Y-52214D01*
X82682Y-52139D01*
X82692Y-52120D01*
X82701Y-52111D01*
X82720Y-52101D01*
X82748Y-52101D01*
X82767Y-52111D01*
X82776Y-52120D01*
X82785Y-52139D01*
X82785Y-52214D01*
X82701Y-52026D02*
X82692Y-52017D01*
X82682Y-51998D01*
X82682Y-51951D01*
X82692Y-51932D01*
X82701Y-51923D01*
X82720Y-51914D01*
X82739Y-51914D01*
X82767Y-51923D01*
X82879Y-52035D01*
X82879Y-51914D01*
X82682Y-51792D02*
X82682Y-51773D01*
X82692Y-51754D01*
X82701Y-51745D01*
X82720Y-51735D01*
X82757Y-51726D01*
X82804Y-51726D01*
X82842Y-51735D01*
X82860Y-51745D01*
X82870Y-51754D01*
X82879Y-51773D01*
X82879Y-51792D01*
X82870Y-51810D01*
X82860Y-51820D01*
X82842Y-51829D01*
X82804Y-51838D01*
X82757Y-51838D01*
X82720Y-51829D01*
X82701Y-51820D01*
X82692Y-51810D01*
X82682Y-51792D01*
X82957Y-51984D02*
X82957Y-51965D01*
X82967Y-51946D01*
X82976Y-51937D01*
X82995Y-51928D01*
X83032Y-51918D01*
X83079Y-51918D01*
X83117Y-51928D01*
X83135Y-51937D01*
X83145Y-51946D01*
X83154Y-51965D01*
X83154Y-51984D01*
X83145Y-52003D01*
X83135Y-52012D01*
X83117Y-52021D01*
X83079Y-52031D01*
X83032Y-52031D01*
X82995Y-52021D01*
X82976Y-52012D01*
X82967Y-52003D01*
X82957Y-51984D01*
X81904Y-52101D02*
X81810Y-52167D01*
X81904Y-52214D02*
X81707Y-52214D01*
X81707Y-52139D01*
X81717Y-52120D01*
X81726Y-52111D01*
X81745Y-52101D01*
X81773Y-52101D01*
X81792Y-52111D01*
X81801Y-52120D01*
X81810Y-52139D01*
X81810Y-52214D01*
X81726Y-52026D02*
X81717Y-52017D01*
X81707Y-51998D01*
X81707Y-51951D01*
X81717Y-51932D01*
X81726Y-51923D01*
X81745Y-51914D01*
X81764Y-51914D01*
X81792Y-51923D01*
X81904Y-52035D01*
X81904Y-51914D01*
X81904Y-51726D02*
X81904Y-51838D01*
X81904Y-51782D02*
X81707Y-51782D01*
X81735Y-51801D01*
X81754Y-51820D01*
X81764Y-51838D01*
X81982Y-51984D02*
X81982Y-51965D01*
X81992Y-51946D01*
X82001Y-51937D01*
X82020Y-51928D01*
X82057Y-51918D01*
X82104Y-51918D01*
X82142Y-51928D01*
X82160Y-51937D01*
X82170Y-51946D01*
X82179Y-51965D01*
X82179Y-51984D01*
X82170Y-52003D01*
X82160Y-52012D01*
X82142Y-52021D01*
X82104Y-52031D01*
X82057Y-52031D01*
X82020Y-52021D01*
X82001Y-52012D01*
X81992Y-52003D01*
X81982Y-51984D01*
X79954Y-62226D02*
X79860Y-62292D01*
X79954Y-62339D02*
X79757Y-62339D01*
X79757Y-62264D01*
X79767Y-62245D01*
X79776Y-62236D01*
X79795Y-62226D01*
X79823Y-62226D01*
X79842Y-62236D01*
X79851Y-62245D01*
X79860Y-62264D01*
X79860Y-62339D01*
X79776Y-62151D02*
X79767Y-62142D01*
X79757Y-62123D01*
X79757Y-62076D01*
X79767Y-62057D01*
X79776Y-62048D01*
X79795Y-62039D01*
X79814Y-62039D01*
X79842Y-62048D01*
X79954Y-62160D01*
X79954Y-62039D01*
X79776Y-61963D02*
X79767Y-61954D01*
X79757Y-61935D01*
X79757Y-61888D01*
X79767Y-61870D01*
X79776Y-61860D01*
X79795Y-61851D01*
X79814Y-61851D01*
X79842Y-61860D01*
X79954Y-61973D01*
X79954Y-61851D01*
X79482Y-62109D02*
X79482Y-62090D01*
X79492Y-62071D01*
X79501Y-62062D01*
X79520Y-62053D01*
X79557Y-62043D01*
X79604Y-62043D01*
X79642Y-62053D01*
X79660Y-62062D01*
X79670Y-62071D01*
X79679Y-62090D01*
X79679Y-62109D01*
X79670Y-62128D01*
X79660Y-62137D01*
X79642Y-62146D01*
X79604Y-62156D01*
X79557Y-62156D01*
X79520Y-62146D01*
X79501Y-62137D01*
X79492Y-62128D01*
X79482Y-62109D01*
G54D15*
X90236Y-51195D02*
X89836Y-51195D01*
X90236Y-50966D02*
X90008Y-51138D01*
X89836Y-50966D02*
X90065Y-51195D01*
X90236Y-50585D02*
X90236Y-50814D01*
X90236Y-50699D02*
X89836Y-50699D01*
X89894Y-50738D01*
X89932Y-50776D01*
X89951Y-50814D01*
X65428Y-63471D02*
X65428Y-63171D01*
X65542Y-63171D01*
X65571Y-63185D01*
X65585Y-63200D01*
X65600Y-63228D01*
X65600Y-63271D01*
X65585Y-63300D01*
X65571Y-63314D01*
X65542Y-63328D01*
X65428Y-63328D01*
X65871Y-63171D02*
X65728Y-63171D01*
X65714Y-63314D01*
X65728Y-63300D01*
X65757Y-63285D01*
X65828Y-63285D01*
X65857Y-63300D01*
X65871Y-63314D01*
X65885Y-63342D01*
X65885Y-63414D01*
X65871Y-63442D01*
X65857Y-63457D01*
X65828Y-63471D01*
X65757Y-63471D01*
X65728Y-63457D01*
X65714Y-63442D01*
G54D13*
X63304Y-64386D02*
X63304Y-63986D01*
X63457Y-63986D01*
X63495Y-64005D01*
X63514Y-64025D01*
X63533Y-64063D01*
X63533Y-64120D01*
X63514Y-64158D01*
X63495Y-64177D01*
X63457Y-64196D01*
X63304Y-64196D01*
X63666Y-63986D02*
X63914Y-63986D01*
X63780Y-64139D01*
X63838Y-64139D01*
X63876Y-64158D01*
X63895Y-64177D01*
X63914Y-64215D01*
X63914Y-64310D01*
X63895Y-64348D01*
X63876Y-64367D01*
X63838Y-64386D01*
X63723Y-64386D01*
X63685Y-64367D01*
X63666Y-64348D01*
X75274Y-65101D02*
X75274Y-64701D01*
X75427Y-64701D01*
X75465Y-64720D01*
X75484Y-64740D01*
X75503Y-64778D01*
X75503Y-64835D01*
X75484Y-64873D01*
X75465Y-64892D01*
X75427Y-64911D01*
X75274Y-64911D01*
X75846Y-64835D02*
X75846Y-65101D01*
X75750Y-64682D02*
X75655Y-64968D01*
X75903Y-64968D01*
X75184Y-50296D02*
X75184Y-49896D01*
X75337Y-49896D01*
X75375Y-49915D01*
X75394Y-49935D01*
X75413Y-49973D01*
X75413Y-50030D01*
X75394Y-50068D01*
X75375Y-50087D01*
X75337Y-50106D01*
X75184Y-50106D01*
X75794Y-50296D02*
X75565Y-50296D01*
X75680Y-50296D02*
X75680Y-49896D01*
X75641Y-49954D01*
X75603Y-49992D01*
X75565Y-50011D01*
G54D16*
X74014Y-60442D02*
X74414Y-61042D01*
X74414Y-60442D02*
X74014Y-61042D01*
X74957Y-61042D02*
X74614Y-61042D01*
X74785Y-61042D02*
X74785Y-60442D01*
X74728Y-60528D01*
X74671Y-60585D01*
X74614Y-60614D01*
G54D20*
X81157Y-57983D02*
X81157Y-58550D01*
X81178Y-58616D01*
X81200Y-58650D01*
X81242Y-58683D01*
X81328Y-58683D01*
X81371Y-58650D01*
X81392Y-58616D01*
X81414Y-58550D01*
X81414Y-57983D01*
X81607Y-58050D02*
X81628Y-58016D01*
X81671Y-57983D01*
X81778Y-57983D01*
X81821Y-58016D01*
X81842Y-58050D01*
X81864Y-58116D01*
X81864Y-58183D01*
X81842Y-58283D01*
X81585Y-58683D01*
X81864Y-58683D01*
G54D16*
G54D13*
X89672Y-51310D02*
X89691Y-51329D01*
X89710Y-51386D01*
X89710Y-51425D01*
X89691Y-51482D01*
X89653Y-51520D01*
X89615Y-51539D01*
X89539Y-51558D01*
X89482Y-51558D01*
X89406Y-51539D01*
X89368Y-51520D01*
X89329Y-51482D01*
X89310Y-51425D01*
X89310Y-51386D01*
X89329Y-51329D01*
X89349Y-51310D01*
X89310Y-51063D02*
X89310Y-50986D01*
X89329Y-50948D01*
X89368Y-50910D01*
X89444Y-50891D01*
X89577Y-50891D01*
X89653Y-50910D01*
X89691Y-50948D01*
X89710Y-50986D01*
X89710Y-51063D01*
X89691Y-51101D01*
X89653Y-51139D01*
X89577Y-51158D01*
X89444Y-51158D01*
X89368Y-51139D01*
X89329Y-51101D01*
X89310Y-51063D01*
X89710Y-50720D02*
X89310Y-50720D01*
X89710Y-50491D01*
X89310Y-50491D01*
X89710Y-50091D02*
X89710Y-50320D01*
X89710Y-50205D02*
X89310Y-50205D01*
X89368Y-50244D01*
X89406Y-50282D01*
X89425Y-50320D01*
X92255Y-56182D02*
X92255Y-56668D01*
X92274Y-56725D01*
X92293Y-56754D01*
X92331Y-56782D01*
X92407Y-56782D01*
X92445Y-56754D01*
X92464Y-56725D01*
X92483Y-56668D01*
X92483Y-56182D01*
X92883Y-56782D02*
X92655Y-56782D01*
X92769Y-56782D02*
X92769Y-56182D01*
X92731Y-56268D01*
X92693Y-56325D01*
X92655Y-56354D01*
X90302Y-55868D02*
X90302Y-56059D01*
X89702Y-56059D01*
X90302Y-55735D02*
X89702Y-55735D01*
X90131Y-55601D01*
X89702Y-55468D01*
X90302Y-55468D01*
X89702Y-55316D02*
X89702Y-55068D01*
X89931Y-55201D01*
X89931Y-55144D01*
X89960Y-55106D01*
X89988Y-55087D01*
X90045Y-55068D01*
X90188Y-55068D01*
X90245Y-55087D01*
X90274Y-55106D01*
X90302Y-55144D01*
X90302Y-55259D01*
X90274Y-55297D01*
X90245Y-55316D01*
X90302Y-54687D02*
X90302Y-54916D01*
X90302Y-54801D02*
X89702Y-54801D01*
X89788Y-54839D01*
X89845Y-54878D01*
X89874Y-54916D01*
X89702Y-54554D02*
X89702Y-54287D01*
X90302Y-54459D01*
X89702Y-54192D02*
X89702Y-53963D01*
X90302Y-54078D02*
X89702Y-54078D01*
X60911Y-62545D02*
X60511Y-62545D01*
X60511Y-62392D01*
X60530Y-62354D01*
X60550Y-62335D01*
X60588Y-62316D01*
X60645Y-62316D01*
X60683Y-62335D01*
X60702Y-62354D01*
X60721Y-62392D01*
X60721Y-62545D01*
X60550Y-62164D02*
X60530Y-62145D01*
X60511Y-62107D01*
X60511Y-62011D01*
X60530Y-61973D01*
X60550Y-61954D01*
X60588Y-61935D01*
X60626Y-61935D01*
X60683Y-61954D01*
X60911Y-62183D01*
X60911Y-61935D01*
G54D21*
X91760Y-59432D02*
X91770Y-59442D01*
X91779Y-59470D01*
X91779Y-59489D01*
X91770Y-59517D01*
X91751Y-59536D01*
X91732Y-59545D01*
X91695Y-59554D01*
X91667Y-59554D01*
X91629Y-59545D01*
X91610Y-59536D01*
X91592Y-59517D01*
X91582Y-59489D01*
X91582Y-59470D01*
X91592Y-59442D01*
X91601Y-59432D01*
X91779Y-59245D02*
X91779Y-59357D01*
X91779Y-59301D02*
X91582Y-59301D01*
X91610Y-59320D01*
X91629Y-59339D01*
X91639Y-59357D01*
X87960Y-59532D02*
X87970Y-59542D01*
X87979Y-59570D01*
X87979Y-59589D01*
X87970Y-59617D01*
X87951Y-59636D01*
X87932Y-59645D01*
X87895Y-59654D01*
X87867Y-59654D01*
X87829Y-59645D01*
X87810Y-59636D01*
X87792Y-59617D01*
X87782Y-59589D01*
X87782Y-59570D01*
X87792Y-59542D01*
X87801Y-59532D01*
X87848Y-59363D02*
X87979Y-59363D01*
X87773Y-59410D02*
X87914Y-59457D01*
X87914Y-59335D01*
M02*
