G04 (created by PCBNEW (2013-07-07 BZR 4022)-stable) date 5/31/2014 7:32:52 PM*
%MOIN*%
G04 Gerber Fmt 3.4, Leading zero omitted, Abs format*
%FSLAX34Y34*%
G01*
G70*
G90*
G04 APERTURE LIST*
%ADD10C,0.00590551*%
%ADD11C,0.055*%
%ADD12R,0.06X0.06*%
%ADD13R,0.035X0.055*%
%ADD14R,0.055X0.035*%
%ADD15C,0.06*%
%ADD16C,0.056*%
%ADD17R,0.055X0.055*%
%ADD18R,0.0512X0.059*%
%ADD19R,0.059X0.0512*%
%ADD20R,0.1378X0.1378*%
%ADD21R,0.07X0.07*%
%ADD22C,0.07*%
%ADD23R,0.06X0.05*%
%ADD24C,0.05*%
G04 APERTURE END LIST*
G54D10*
G54D11*
X61650Y-49425D03*
X61650Y-51425D03*
X58650Y-49425D03*
X58650Y-51425D03*
X66140Y-49400D03*
X66140Y-51400D03*
X63140Y-49400D03*
X63140Y-51400D03*
G54D12*
X92480Y-53580D03*
X93960Y-53560D03*
G54D13*
X82725Y-61825D03*
X81975Y-61825D03*
G54D14*
X62575Y-57575D03*
X62575Y-58325D03*
X63575Y-57575D03*
X63575Y-58325D03*
X65700Y-58300D03*
X65700Y-57550D03*
X63575Y-55700D03*
X63575Y-56450D03*
X62600Y-55700D03*
X62600Y-56450D03*
G54D13*
X61225Y-61825D03*
X61975Y-61825D03*
X89675Y-53600D03*
X88925Y-53600D03*
X61200Y-62675D03*
X61950Y-62675D03*
X90725Y-53600D03*
X91475Y-53600D03*
G54D14*
X64675Y-51475D03*
X64675Y-50725D03*
X60200Y-51600D03*
X60200Y-50850D03*
G54D13*
X61275Y-61025D03*
X62025Y-61025D03*
G54D14*
X80875Y-61725D03*
X80875Y-62475D03*
G54D12*
X89225Y-49800D03*
G54D15*
X89225Y-50800D03*
X89225Y-51800D03*
G54D12*
X66150Y-62600D03*
G54D15*
X65150Y-62600D03*
G54D12*
X61100Y-65075D03*
G54D15*
X62100Y-65075D03*
X63100Y-65075D03*
X64100Y-65075D03*
X65100Y-65075D03*
X66100Y-65075D03*
X75000Y-65800D03*
G54D12*
X70000Y-65800D03*
G54D15*
X71000Y-65800D03*
X72000Y-65800D03*
X73000Y-65800D03*
X74000Y-65800D03*
X75000Y-65800D03*
X76000Y-65800D03*
X77000Y-65800D03*
X78000Y-65800D03*
X79000Y-65800D03*
X80000Y-65800D03*
X81000Y-65800D03*
X76050Y-49275D03*
G54D12*
X81050Y-49275D03*
G54D15*
X80050Y-49275D03*
X79050Y-49275D03*
X78050Y-49275D03*
X77050Y-49275D03*
X76050Y-49275D03*
X75050Y-49275D03*
X74050Y-49275D03*
X73050Y-49275D03*
X72050Y-49275D03*
X71050Y-49275D03*
X70050Y-49275D03*
G54D16*
X73500Y-62300D03*
X75500Y-62300D03*
G54D17*
X83000Y-53900D03*
G54D11*
X82000Y-53900D03*
X81000Y-53900D03*
X80000Y-53900D03*
X79000Y-53900D03*
X78000Y-53900D03*
X77000Y-53900D03*
X76000Y-53900D03*
X75000Y-53900D03*
X74000Y-53900D03*
X73000Y-53900D03*
X72000Y-53900D03*
X71000Y-53900D03*
X70000Y-53900D03*
X70000Y-59900D03*
X71000Y-59900D03*
X72000Y-59900D03*
X73000Y-59900D03*
X74000Y-59900D03*
X75000Y-59900D03*
X76000Y-59900D03*
X77000Y-59900D03*
X78000Y-59900D03*
X79000Y-59900D03*
X80000Y-59900D03*
X81000Y-59900D03*
X82000Y-59900D03*
X83000Y-59900D03*
G54D18*
X76025Y-58700D03*
X76775Y-58700D03*
X77275Y-62300D03*
X76525Y-62300D03*
X71650Y-62300D03*
X72400Y-62300D03*
X76225Y-55200D03*
X76975Y-55200D03*
G54D19*
X64700Y-49950D03*
X64700Y-49200D03*
X60200Y-49925D03*
X60200Y-49175D03*
G54D20*
X91084Y-50825D03*
X93446Y-50825D03*
X92265Y-48975D03*
G54D21*
X91560Y-55290D03*
G54D22*
X92560Y-55290D03*
X93560Y-55290D03*
G54D23*
X58962Y-60425D03*
G54D24*
X59750Y-60425D03*
X58962Y-61212D03*
X59750Y-61212D03*
X58962Y-62000D03*
X59750Y-62000D03*
X58962Y-62787D03*
X59750Y-62787D03*
X58962Y-63574D03*
X59750Y-63574D03*
M02*
