M48
;DRILL file {Pcbnew (2013-07-07 BZR 4022)-stable} date 5/31/2014 7:35:50 PM
;FORMAT={2:4/ absolute / inch / suppress leading zeros}
FMAT,2
INCH,TZ
T1C0.024
T2C0.025
T3C0.030
T4C0.031
T5C0.032
T6C0.039
T7C0.040
%
G90
G05
M72
T1
X59250Y-57475
X61100Y-65075
X61600Y-57025
X76600Y-56400
X77275Y-61150
X77925Y-56300
X85400Y-56325
X85425Y-55525
X89800Y-63000
T2
X59725Y-59125
X61200Y-58675
X64200Y-60475
X64325Y-57475
X65075Y-59000
X66350Y-56300
X67325Y-57425
X67350Y-53075
X67400Y-55950
X67600Y-57800
X67750Y-56475
X69050Y-65100
X69350Y-64000
X70450Y-50900
X77350Y-63325
X78325Y-63200
X79750Y-50925
X80175Y-63850
X80400Y-53025
X82450Y-49775
T3
X73500Y-62300
X75500Y-62300
T4
X58963Y-60425
X58963Y-61213
X58963Y-62000
X58963Y-62787
X58963Y-63575
X59750Y-60425
X59750Y-61213
X59750Y-62000
X59750Y-62787
X59750Y-63575
T5
X58650Y-49425
X58650Y-51425
X61650Y-49425
X61650Y-51425
X63140Y-49400
X63140Y-51400
X66140Y-49400
X66140Y-51400
X70000Y-53900
X70000Y-59900
X71000Y-53900
X71000Y-59900
X72000Y-53900
X72000Y-59900
X73000Y-53900
X73000Y-59900
X74000Y-53900
X74000Y-59900
X75000Y-53900
X75000Y-59900
X76000Y-53900
X76000Y-59900
X77000Y-53900
X77000Y-59900
X78000Y-53900
X78000Y-59900
X79000Y-53900
X79000Y-59900
X80000Y-53900
X80000Y-59900
X81000Y-53900
X81000Y-59900
X82000Y-53900
X82000Y-59900
X83000Y-53900
X83000Y-59900
T7
X61100Y-65075
X62100Y-65075
X63100Y-65075
X64100Y-65075
X65100Y-65075
X65150Y-62600
X66100Y-65075
X66150Y-62600
X70000Y-65800
X70050Y-49275
X71000Y-65800
X71050Y-49275
X72000Y-65800
X72050Y-49275
X73000Y-65800
X73050Y-49275
X74000Y-65800
X74050Y-49275
X75000Y-65800
X75000Y-65800
X75050Y-49275
X76000Y-65800
X76050Y-49275
X76050Y-49275
X77000Y-65800
X77050Y-49275
X78000Y-65800
X78050Y-49275
X79000Y-65800
X79050Y-49275
X80000Y-65800
X80050Y-49275
X81000Y-65800
X81050Y-49275
X89225Y-49800
X89225Y-50800
X89225Y-51800
X91560Y-55290
X92560Y-55290
X93560Y-55290
T6
X91084Y-51219G85X91084Y-50432
G05
X92659Y-48975G85X91872Y-48975
G05
X93446Y-51219G85X93446Y-50432
G05
T0
M30
